<mxfile host="app.diagrams.net" modified="2024-07-23T06:06:40.834Z" agent="Mozilla/5.0 (Windows NT 10.0; Win64; x64) AppleWebKit/537.36 (KHTML, like Gecko) Chrome/126.0.0.0 Safari/537.36" etag="xEDbhD5CJf9sMErHV8rP" version="24.7.3" type="device">
  <diagram name="Page-1" id="alqiQeoIWCtkOzlGPyor">
    <mxGraphModel dx="3457" dy="1529" grid="1" gridSize="10" guides="1" tooltips="1" connect="1" arrows="1" fold="1" page="1" pageScale="1" pageWidth="850" pageHeight="1100" math="0" shadow="0">
      <root>
        <mxCell id="0" />
        <mxCell id="1" parent="0" />
        <mxCell id="aM5ncvH869bX6Gn5c9m2-13" style="edgeStyle=orthogonalEdgeStyle;rounded=0;orthogonalLoop=1;jettySize=auto;html=1;entryX=0;entryY=0.5;entryDx=0;entryDy=0;" edge="1" parent="1" source="aM5ncvH869bX6Gn5c9m2-10" target="aM5ncvH869bX6Gn5c9m2-12">
          <mxGeometry relative="1" as="geometry" />
        </mxCell>
        <mxCell id="aM5ncvH869bX6Gn5c9m2-15" style="edgeStyle=orthogonalEdgeStyle;rounded=0;orthogonalLoop=1;jettySize=auto;html=1;entryX=0.5;entryY=0;entryDx=0;entryDy=0;" edge="1" parent="1" source="aM5ncvH869bX6Gn5c9m2-10" target="aM5ncvH869bX6Gn5c9m2-7">
          <mxGeometry relative="1" as="geometry" />
        </mxCell>
        <mxCell id="aM5ncvH869bX6Gn5c9m2-17" style="edgeStyle=orthogonalEdgeStyle;rounded=0;orthogonalLoop=1;jettySize=auto;html=1;entryX=0.5;entryY=0;entryDx=0;entryDy=0;entryPerimeter=0;" edge="1" parent="1" source="aM5ncvH869bX6Gn5c9m2-8" target="aM5ncvH869bX6Gn5c9m2-10">
          <mxGeometry relative="1" as="geometry" />
        </mxCell>
        <mxCell id="aM5ncvH869bX6Gn5c9m2-20" value="Extract&amp;nbsp;&lt;div&gt;News article heading,&lt;br&gt;Article url,&lt;br&gt;Article content with date&lt;/div&gt;" style="text;html=1;align=center;verticalAlign=middle;whiteSpace=wrap;rounded=0;" vertex="1" parent="1">
          <mxGeometry x="-380" y="480" width="150" height="60" as="geometry" />
        </mxCell>
        <mxCell id="aM5ncvH869bX6Gn5c9m2-27" value="" style="shape=image;verticalLabelPosition=bottom;labelBackgroundColor=default;verticalAlign=top;aspect=fixed;imageAspect=0;image=data:image/jpeg,/9j/4AAQSkZJRgABAQAAAQABAAD//gA7Q1JFQVRPUjogZ2QtanBlZyB2MS4wICh1c2luZyBJSkcgSlBFRyB2NjIpLCBxdWFsaXR5ID0gODAK/9sAhAAGBAUGBQQGBgUGBwcGCAoQCgoJCQoUDg8MEBcUGBgXFBYWGh0lHxobIxwWFiAsICMmJykqKRkfLTAtKDAlKCkoAQcHBwoIChMKChMoGhYaKCgoKCgoKCgoKCgoKCgoKCgoKCgoKCgoKCgoKCgoKCgoKCgoKCgoKCgoKCgoKCgoKCj/wgARCAKKA2IDASIAAhEBAxEB/8QAHAABAAIDAQEBAAAAAAAAAAAAAAcIAQUGBAMC/9oACAEBAAAAALUgAAAAAAAAAAAAAAAAAAAAAAAAAAAAAAAAAAAAAAAAAAAAAAAAAAAAAAAAAAAAAAAAAAAAAAAAAAAAAAAAAAAAAAAAAAAAAAAAAAAAAAAAAAAAAAAAAAAAAAAAAAAAAAAAAAAAAAAAAAAAAAAAAAAAAAAAAAAAAAAAAAAAAAAAAAAAAAAAAAAAAAAAAAAAAAAAAAAAAAAAAAAAAAAAAADGQAAAAAAAYyAAGMgDGQAAAAAAAAAAxkAAAYyxkAAAAxkAAAAAAAAAAAAAAAAAAAAAAAAAAAAAAMZAAAAAAAAAAAAAAGMgAAAAAAAAAAAAAAAAAxkAAAAAAAAAAAAAAAAAAAAAAAAAAAAAAAAAAAAAAAAAAAAAAAAAAAAAAAAAAAAAAAAAAAAAAAAAAAAAAAAAAAAAAAAAAAAAAAAAAAAAAAAAAAAAABjIDGQAAAAAAAAAAAAAAAAAAAAAAAAAAAAAAAAAAAAAAAAAAAAAAAAAGMgAAAeHiN70+QAAAAAAAAAAAAAAAAObj/jPm3Mgdz6QAAAAAAAAAAAAAAAHw4fgNEB9+3kDegAAAAAAAAAAAAAADS8Bw3mAB0cgdn9QAAAAAAAAAAAAAMMtDGHIgAB6u6lcAAxkAAaXltfnd9f6AAAAAAAAFaep+Wq1v5ABqeX5mQ7W+8BCEDlkpVBVqPS1Xej5QxCXIh7JUnzqx8KP5xnGcAXS2oAAAA0VRJA7V+NZqvEB5eY5fWPRMMpSYAgGuxu7ubAKlxYXCkU1NSOGwA+thJ9y89AAAL4bcAAABjMEw3tZiDz6rVfH8c/y2h/I67vtjYf9gQDXYTdZkKpxIXCkV+Kb8GACb7MPPQAAC9+4AAAAPhT3XJf3AH0rXqwJX2qaeyAgGuw/dyu6FW4cLhSKiqpo6+Wt9r43jL8i2Uq+egB9OvALg7MAAAAi6ux2MjZxnDpu8j+ovjDayudTOQEA12DsLpfUrJCZcKRVXIbJCuB9RwNTNT+p7sN9PPQA2l8wAAAAAKqcgeia/oOl73KPKjeQd91xmwO5BANdmcFjZ6K2QWXCkVT+OCerGg4Op9pZHPPQA2l8wAAAAAcpVAJO6k6Tvf0I7qN5X7mH0CQpZYyQDXYHruz0ausBFwpFxU6Kj22IlfdMnk9eM4+FADaXzxnDLGRhlhnGWMgAV5isOgld0nfZBHVR/L0kkB6bF/cIBrsSfGBJdvFfa9FwpFQjWYHRdx3Xfdl+w89AD0zgAmTqgAAAHhp55gzNHZd7+gEc1IkPfglzvwgGuxbCDuALWS3Atci4UivLSjmQDdzLO2xPPQAAFuZOAAAARlXICV7A/oARbGuQdPOgQDXYtb11Kvi3N3YerUXCkU5qo/KgDe247J56AAAtzJwAAADW09+IJmkLsgDWxvxXjBKckBANdsrUS9XaASau0rDnFwpFHwiGIuF8gGd3dvYeegAALcycABjIAFc4xDey07HscjGdbG/m1POh9bE+0IBrsWkmPzUm5p+pnhYuFIoHz5LheDj/AJ8LKzl56AG0vUA+37AAAAOOqsElddh2PZBrY38z8cZ+R3MxAgGuxaCZ0cVAw/f4LhSKPL6gYjWp/jJetT56AG0vmAAAAADFUOVPtNn2Yz2HZGtjfz4y5rVieuhBANdizc2FVohBcKRX4giDbldEYyVHjAlm13noAbS+YAGMsZMMgAEU17Ouklkx2PZa6NvNnGXg5U6CesggGuxZecDT0j1gXCkXnKtcA6G1fdhrqS6MneyHnoAbW+QAAAAAHmp54Ut7wDb635Acf50wd2BANdiyU6iF6wBcKRazQiMyBI2/+3OwxzguX3nnoAfaTBjLGetsQAAAAIEiDYzMHn5Xk9N9+p63dM4aTReyxP2AgGuxY2eh+accCLhSL4adcWABLdrHnoAABIdxAAAABz1R++7l+ee5LmvwDZ9b1ftfDjpGlQBANdixM/BydKviXCkVrqtRcAEr2n9Lz0AAAkO4gAAAMZFYev8AhyXKeMAM9D1vS83Ou1AQFXliwdgGRXeAy4EiGIxgqP8A8BnuZ4lTJ56CYywywMyDcIAAAAOVgjhgAA904y2AYwZyDGDOQaziuf8AJ6N72m6A/IAGcgAAAA/PCxJH/wCAAbqWJV2YAAAAAAAAAAAAAABpYoirVgZ72Wu//YAAAAAAAAAAAAAAAHxjmJeLNhKcs74AAAAAAAAAAAAAAAADmIr6mSvQAAAAAAAAAAAAAAAAAAAAAAAAAAAAAAAAAAAAAAAAAAAAAAAAAAAAAAAAAAAAAAAAAAAAAAAAAAAAAAAAAAAAAAAAAAAAAAAAAAAAAAAAAAAAAAAAAAADGQAAAAAAAAAAAAAAAAAAAAAAAAAAAAAAAAAAAAAAAAAAAAAAAAAAAAAAAAAAAAAAAAAAAAAAAAAAAAAAAAAAAAAAAAAAAAAAAAAAAAAAAAAAAAAAAAAAAAAAAAAAAAAAAAAAAAAAAAAAAAAAAAAAAAAAAAAAAAAAAAAAAAAAAAAAAAAAAAAAAAAAAAAAAAAAAAAAAAAAAAAAAAAAAAAAAAAAAAAAAAAAAAAAAAAAAAAAAAAAAAAAADGQAAAYyAAAAAAAAAAAAAAAAAAAAAAAAAAAAAAAAAAAAAAAAAAAAAAAAAAAAAAAAAAAAAAAAAAAAAAAAAAAAAAAAAAAAAAAAAAAAAAAAAAAAAAAAAAAAAAAAAAAAAAAAAAAAAAAAAAAAAAAAAAH/8QAGwEBAAMBAQEBAAAAAAAAAAAAAAQFBgMBAgf/2gAIAQIQAAAAAAAAAAAAAAAAAAAAAAAAAAAAAAAAAAAAAAAAAAAAAAAAAAAAAAAAAAAAAAAAAAAAAAAAAAAAAAAAAAAAAAAAAAAAAAAAAAAAAAAAAAAAAAAAAAAAAAAAAAAAA509fb2noAAAAAAAIdJUfB3urrsAAAAAAAZKikg66aVME7rX/DvM4Q3Ww7+RYHyswRooADll8V9zZna71Gkjfle2Ggl19InXtfSSdB9DjQcdWCspwAFZBxcJJ/V9aYnE7CxNBLZ+JNvq+k0EuBWfdtJqKvV+Uz1GjAAfNF80eak/pNhYXb8ghWusNBLcc3Lv6+k0vapq/PqXCavzKgAAhVbljv0ewLDz8ve7nu0EuFNqoehr6S5snkaLXcWrRRR8gAKuEQNgOeJ4GttGgl5296Ut3X0ntvYfZ5Qw9WDNcQAOFKg4zY7Fz/Oaq+dt160EvOdL/n0r6QdpVnIi57V+ZYeAAFLwzFK2Ot/OadcSdBoTQS87GvZyvpbfvRfKyuY+c1fmVAAAhVGF5+2V5nYSXb7nuaCXnovTS/VfV6L6+I3kz2oq9W4DnnwAHmKz1xcdiJTVOt1w0EvPRVlc19JIuZR81dU1YOOaAAIMWMD2VNkgAHTr5w8AAAAOUGH89J0z7AAAAAAAAecJAAAAAAAAAAAAAAAAAAAAAAAAAAAAAAAAAAAAAAAAAAAAAAAAAAAAAAAAAAAAAAAAAAAAAAAAAAAAAAAAAAAAAAAAAAAAAAAAAAAAAAAAAAAAAAAAAAAAAAAAAAAAAAP/xAAbAQEAAgMBAQAAAAAAAAAAAAAABQYDBAcBAv/aAAgBAxAAAAAAAAAAAAAAAAAAAAAAAAAAAAAAAAAAAAAAAAAAAAAAAAAAAAAAAAAAAAAAAAAAAAAAAAAAAAAAAAAAAAAAAAAAAAAAAAAAAAAAAAAAAAAAAAAAAAAAAAAAAAADJOScJEeAAAAAAAA3p+byee60DA4AAAAAAAC4yef3z0xwkLGAAAAAAASXUKb97W1kjIOGzXagAAAAAAAX+303TYq/qFms1HiwAAAAAAy9jzQtbxVzXHQtqGpgAAAAAAW3oLFQ61riUvD557rgAAAAADoVsOa1sfVvmylRAAAAAAAl+rtGnw8O+rFvzHuvzzwAAAAAAOsS1ahkPE2LcSmxWayAAAAAAC1dBpGP2R2NHTbMjz3XAAAAAABk6ZFS8tmNSIicNPAAAAAAATN4nPQx1mjagAAAAAAAkbbac+hUqrrgAAAAAAAMspD+AAAAAAAAAAAAAAAAAAAAAAAAAAAAAAAAAAAAAAAAAAAAAAAAAAAAAAAAAAAAAAAAAAAAAAAAAAAAAAAAAAAAAAAAAAAAAAAAAAAAAAAAAAAAAAAAAAAAAAAAAAAAAB//xABAEAAABgAEAwMKBAUCBwEAAAABAgMEBQYABxEgCBASEzRWFBUWFyIwN0BSUxghIzEyNlBUYCRBJjNVYXCBsHH/2gAIAQEAAQwA/wDk76/0TX/whJyrGLR7SQdJIFksz2qS5Sx7JRwnCXeGlekgr+SrgICACA6h/k2uJu5w0T1EUcduvN5iyb3qJHlIyScLrOVTKuFTqq8oWzS0MJQZOzdlCZltF+lOXbmbHYP2sggCzJwkun/hv/r5V48bMkRVdrpoJTmZTFt1JxaJ3ak3a5eY6iunRiI72bxwxWBZmuogrCZlPm3SnKoldpwlqiJgClauilW/x6as0VDAIPXZAVnMy3a/UnENytiP37uQX7V84VXU95B3OZiekpHAuEITMWMeiVN+U7JZuuk5SKq3VIqn/jNssbevN2wql7Rex22wPBMRUxmbcRERERHUfkGM06hDCu1fHahl9mqnYJxOHcEIqr/QJe1QEOIllJmPaneZyUdsYS+eO2MfPWmFEdFX5sI56UtQQA675LEbmpSpAwFRn2qZmT1q+QBZi4Rco/0H/wBfI502Q0ndhSaqfoRjskhHIOSAHS5imq+ogTszOYVdPUURBUqhDpmEqhTEN7v/AGxI2GOYago4A6kjdXKupWKJUCu3jl4p1ul1FTZetjx0em9IIkcQMiSViGj1PTT3HE3MycO2rwxMi8ZD6a2jxHMY9NbR4jmMemtp8RzGMg72a0180bJripMbs+LJPReZL9vHzMk1bemtp8RzGPTW0eI5jHpraPEcxjI586kcs4p1IOVnTnY5XRaoKLuVSIo3jPqNjjqNau3CScWXMW1WMxwkJdwVD9/32xkk+inAOIx44aLVDPewRZiJTqacu1pN+gLiiAxLwAdbHxhKycGKIgPpraPEcxj01tHiOYx6a2nxHMY9NbR4jmMemtp8RzGPTW0eI5jHprafEcxj01tHiOYx6a2nxHMY9NbR4jmMemto8RzGPTW0eI5jHpraPEcxiqKqLVeHVWOZRX5y7ThK7V38kYQ61VDqqHUUMJj5ayHaNHDA4+1yVSTWL0qkKcHMIifUUDGTFzGOkNRFPrLvfSDRiTqduE0sSN2SJqWPQMoMjOSEhqDhwYCco9sZ4+Rbp/xIplRRIkmGhMn5bUrqKVN+fuOLDula2Uyxu6pZGcuxHU8DLNJ2HaSccoCjXbxJE6czVh2cP3woh9lnn4+swy8nLrgi2zLzJlrs8MRQxmsT7lq4WaOE3DVZRFfKnOztzoxNyUKRQogYoGKICHKQ7g599Tv5ShPneIef7V2xgkD+zirv/Ns42XMOie1yybuf+amURcwQhqLZTXDhqs3HRZMxQwqqmiQTqnKQkjbo9rqVv1OVJG2SLvUqRwbJqHMocTqGMY+zL1j2jxZ6cPZxXpI0RMtHpNdEVCKpEUTMBib+LDula28OF482yZqzIq6NNvE4TpzGRHZw/fCiH5rKJoInVWOUieb17XutiOZI5ixHvMjM1Dxa6Fesa4mjv/zlIdxc++p/8pQnzj50ixZLu3JgIhYpVWbnH0k416+VSf8AnGCbqmHVTcIAIaCACCtDdTUI6XjlE2LuxpSrSVcM50FyPd9ZY+b4ZukIaKcsrZbzhXgbKG1W38WHdK1tSUOkqRRIxiKZP3QlzqiS6xi+c9nFITS/R59nD98KIfnxGWQ0LRRYtziVzspWXVjuGikUz6GcPw6oAQDTE8qY6fD/AFMpNDO5gwyXDvDKEHzbMv257ZkpaYNM67RJOWaqEMmoYihTEPs4ebFLTdQFCWbLiTEh3FzsboqOXCSCBBOr6rrr4deY9V118OvMeq66+HnmPVddfDrzHquuvh15j1XXXw68x6rrr4deY9V118OvMeq66+HnmKwgq1rUS3cEFNb5vPyf83VhKLRPovzy2f8AYyCzI5vZ3Vevi8MV08KINigBSgBQAAzZy3Z3eN7VHobzUvGvIeSXYSTc7d3trLHzhMt0hDVPnlzLea7KiU5tEN/Fh3StbsrLirS7W3famMxauEnbZJw2UKqhz4qCaW6IPs4fvhRD8+KGSM5u7FiBv0+eSdKTuVs6HxRGMbIJNkE0G6REkdmZOWMPdG6iwkKzl7RX5GsTK8ZLoCi5wkmdVQqaRDHUysyROt2Mpc0xIm2QSbIJoN0iJI4kO4OdlV/miH/o2a0/6QXR6smfqa8490dk+Qcp/wATdYjhumskOqeyr18XpiunhRBsUoFKAFAADlm3ls0u8d2zfobzcrHO4mRXYSKB27vZl6x7Nms8OHtcwESiAgIgNRlQma+0diICru4sO6Vrfw13jyhsaqySv63PisJpPQJ9nD98KIfnxCGE2a0sAj+XPhTkG6UlPx6hgK53Zv0VG61s5UiFLL1urzFjmfNcUyUUd5Y5VRdNTI7cdL6a5yHcHOyq/wA0Q/y/5++zPn/R2nPnSZ+lzty8kPKoYWxx/U51evi9MV08KINilApQKUAAuzNvLdpdo4V24EbzcpHu4qQXYyKB27vkimZZYiSYanjmxWTFBsT+HZlDLdjIOIxU3sbuLDula3xUg5ipJs/Yqik6oFoa3CrtJVroU/LivJo+rZ9nD98KIfnxJsTNcylFxD2ecNKPIWTbyEY4O3d03P6NcopoWpqoycQdsgJ0pRiJdk6NtZRzJgo4OyaooH2SHcHOyq/zRD/0XiAn/LrEhEIG1R20Z/5DPJFMOiXKrwAvjFdOyiDUhSkKBSgAF3ZuZatLtHi4agRvOSke7ipBdjIoHbu8URj5VL9uYNU9sa8Uj5Bu7QH9Rg6SeskHKA9SW3iw7pWthKR55yXa2GPS1f8APIu7+iVoK1eq9MQGgh+XLixJ7NZPs4fvhRD8+KCume15hONydR9v+/8A3h7tZobpCNnJBEkNn1bGXSV8RhIkhuIeLV6SzEK7ajBZo06aEpW023RVTUIoQp0zFOTbIdwc7Ix2LCSaPClA5vxFvvDzbH4i33h5tj8Rb7w82x+It94ebY/EW+8PNsfiLfeHm2PxFvvDzbH4i33h5tjLO0qXGpoTCzUjU/zU5JIw8O8kXI/oyT1aRkXL10bqX2lMJDAYoiBoN8EjFNnQfvWIAz4xXLsog1IUCFApQAC+4zey1a3aPFy0Ajeck2DqLfrspBA7d1SmPkcKmcwaKbso5bymKWjlTaqbeLDula2cNwFVyxBM5QMXOakmptrUK2IIRXPh8vHpFXvM8gr1SmOK4msZXT7OH74UQ/OVYN5SNcsHyYKtcwqk8plkXjXYGMj7mu2udrioHhZR00Cl8QBwMRvbmQGLBzUdPMCPYd4i7bc5DuDj3vDn8LWXzfEAo8JSSFbB/pt+SiaTgFUpI/SzIUpCgUoABfdZ2UmIsTJJ4oYG8wQoEIUhQ0Luy2VcJ25oDUOoNvFh3StbOGUdcuDhjM6oIXOqOY4/SV28bLMnazV2kZJxyqFgd1exM5ZgP6tdmGk/CM5SOU623FWTWuQZ9nD98KIfZfabG3SFMwky9Kl8os1S34oyiAma+6qFqlqlKFfQzoyRstL5H3mI7dtog/5SHcHPveHP4XMvm7JFJTkE+jV9Oh61VZPF2rkokX2gAiIAAajXmARsO2baaHqti06GT8/5e5m5VGKbCooPUo/eLP3Jl3J+o8uh5O+UKAaF3ZPxPQ3cyqpfa28WHdK1s4YB1y8dBy4lKP2apbXGpexz4crx5plxrkiroy4pya0yKPs4fvhRD7XrRs+aqNnqCThvb8hYSTMdevuFIpew5OXKHMYSRwSCD+OexynZv2bhqp7imWR7U7C1lo4w9pAyrWchmcmwP1tsSHcHPveHP4XMvnM+4DzbaE5NEmjfbS2Hl8+gBg1S5VWw6dDN+f3E3KoxTYVFPaUfvFn7k67k/UfFib9bYqxQ/Pa1QUdOUm6JepWGYJxkW2ZI/wAG3iw7pWtnC2bWgSAcpJi3k49wyepFVbZh1VzTrS7i3HUZLkQ5kzlOmYSnv1yLdMk45VwcPOvPh++FEP7hdFNdMya6ZFE5nLOny/ULuBZkPM8PcE46jRUm/ZGmsgbO0Exo1ywkE5+mWOvgY0vDPG6e3hbnjuoKThFjiI4kO4udlWADWaIAQ1DyFp/aN8eQtP7RvjyBp/at8eQtP7RvjyFp/aN8eQNP7VvjyFp/aN8eQNP7RvhJMiROhIhSF+bzXgPSCmPEkidTrblyw8niTuzl0Pzqth0EjJ+fdNyyMU17RQepR+8WfuTruTdR+S6YKonTN+ypDJKnIcPa2ZTxPlk2o+VLqlu4sO6VrZwsm1pEmX8+eeFIC3VYyzNPWWEBARAQ0HkVQ5UzplOYCc+H74UQ+3ziz85BH+VIeXbjABgEDAAhmDlBA2ZuqvHoJxcrLxzmIlHUe/TFN1z4YXBkswnCID7OJDuDnZVf5oh/6NmdAejtyfNUydLXmzbndu0W6X8bNuRq1SQSDQmyq2HToZPz/lzm5VGKa9ooPUo/eLP3Jl3J+o+ywIdm7KqAezsocT5orbZI5dF93Fh3StbOFc2tRly7OIaj+YLAE3HpaRu7h++FEPzVUIikdRU5SJ5m54pNe2jqYJV14mzysZZ0Z9J2orJUW2R9xgEZKOOADv4jEUUsz3ZkQADc+GYgmzIOIftiQ7g52VX+aIf+jcQEB5dXkJdAmq3PLiP7eUUeHDUm6q2HToZPz8puVRim3aKe0o/eLP3Rl3Buo+2ZQ7difQNTc6LE+d7I2ROXVDfxYd0rWzhVN/w1Nl2W2AaWevvIl+XVGyQzuvTjyKkSdDnbw/fCiH5XS5Q1Pj/KplyBDZkZoTN0VOgJhZRHKk26Up0wV/ELaYy+zOgbkimmisVnKbZ+ZYwES4kZVcqDW7WBW02mRmFyiTZwqRhjzE3KGL7GJDuDnZVf5oh/l9ffybJGRj3LJyXqQnY1aHmHkc5D9XlTI/zfAIFMGiu9lmIwiG5msq6IZZxJjLqi7MuRYN3764foeTO1Ev8AbllNE+SQqj9Quiu/iw7pWtnCmbWDni7eIyj+d4YLFHJav9vD98KIflxLVFyznE7IgKqrLYUwlMBiiIGrGb1ugCESK/B+2iuIpMSgEtAHKZDiBqhyh2rOYSE+ftQKTUEpUwzfES2BIxYOEWOpcrnOXB2C028FQmzJSsGq9CZIOCdD3Eh3FzsZOVGbxB0hoCvr0un32OPXpdPvscevS6ffY49el0++xx69Lp99jj153T77HHr0un32OPXpdPvscevS6ffY4yozWs9lvkbFSizUzT5ziFgPJ5NnOIE0TxXWHnKZathDUgBoAAH7bHr1sxT63a6aJZO9NUtSx6J3BpOyykjqCrgU0sM3jlkp2jRdRE8ZenaOhH6JHBIyzRchoVNwCSoDrtsjfUE1yhyiGCknJtmSP8bRum0aot0C9KW/iw7pWtnCibWLsRddpyFOQxDgBi5zUo1NtZytyCEVs4fvhRD8pqLZzUU5jpJEqzTM6hP6PMikqB1o33uQmXx7HMpzUmiIQ/KQ7i599kD8V4X52/QQWOqP48AAVjFMQwlOAlNlpH9KTl+cPz5HOVMgmOYClk7hFstSpqC6Vk7rIutStQI0TXWUXUFRdQ6im6MnZGN0Bq5OCcZfEzaEkmwpjHyjKQJ1M3KavN6iDhqokOBASiICGg5QRPaOnMqqX2fccWHdK1s4Tzf6Syl3ZnVFG51RzHHApXb1qsydrNXSZknHPh++FEPzn4aPn4teOlmxHLTM7KKVqh1XsWVSRhfd5U5RP7QqjIzZFWUJGsWsYwQZR6BG7XlIdwc++yB+K8L89nHXjQ93WFumPk8MyLHRbZqXTEnOx0aAg6ckBSTvihtSRrYCBISb2QN1PHKivvCHMQ4GIYxTRdvlGWhVFAdJRl1jnWhXXW1UQWSXTBRBQihJlqYkjomURxV4ssPBNGYAHX7jiuKYzStdJRHHZKfbPjslPtnx2Sn2z44UQMUtmKYohv4k6MJFSWqMRES9kp9s+OyU+2fHZKfbPjIABLlTDgYBAeY/mGg/tesma9ZTqOWJRiZC1ZQW2AMc5WPnJqskoiqZNYhk1NpQExgKUBE1VyrtljMQyEadm1oeSsFXTJu5UfO8gAaBoAaBzkO4ucdkp9s+OyU+2fHZKfbPjslPtnx2Sn2z47JT7Z8dkp9s+OyU+2fHZKfbPjslPtnx2Sn2z47JT7Z8dkp9s+Mg0zlzWhRMQwB87fav6RtmaiAIg+u7W4RpjhMILN2vyMOpIg8ISIFyLmgVixuHrJ9Z2zZFH3IgA/uADjoL9IY6C/SGOgv0hgAAP2AA3iGv7hjoL9IY6C/SGOgv0hgA0/YNN8xARE0Tploxm8CTyWpL0RMSNVaGc8PVcOIi3k5ZLH4don/rj/Dfh5gCiHlEtKqBHZH0toYBWaO3gwlVgYPQYiIYtT7+gv0hjoL9IY6C/SGOgv0hjoL9IY6C/SGOgv0hjoL9IY6C/SGOgv0hjoL9IY6C/SGOgv0hgCgA6gUPe/n8kcpTlEpwAxbPlZXJvqURbjHurNlLYYjrUYkLKNlklEFTJrEOmp7yu1WasSgFiY9ZYlYyTRJ0LWN8KpoSBi4JDsYlig1J/jthq8NYUuiWYIrms+SahetauPgOE7X5WBX7KWYLtjbyEMocpEymMesZVWKa6FHCJY1rWMp69D9CrtM0k6STTSTKmkQpCf5C6bIO0DIukU1kbPk/BSfWrFmPFuLNlrY4HrUM08taiGg6D+Q8oaFkptx2EUyXdKVjJN0t0rWJ6VuSuVGErpACKj0k1f8AJ7NRoCxgY0gxIVxNZIyCbovmaRQWbVjJuGj+hWZVUkl2TNsxbkQZN0W6H/zz/wD/xABLEAABAgIECQcICAUDBAMAAAABAgMAEQQgITESE0FRYXGBkdEQIjBydKGxBSNCQ1KCs8EUMkBQYnOSslNgotLho8LwJDNEsDRjk//aAAgBAQANPwD/ANZXkw1WnULzsgHnLcVgTGgW98H1b/N3G4wf5oHqmOcdpuG+DlHOWdpsGwQq9a1FRO08o9U5zkbjdslGVxua0brx3wfSQoGWvN/MYvU4oJHfF2GrmIHzPdB9S1zE7c+2fQD0m1EGB6xHMWPke6D6l3mr3Zdk/wCXx6pHOXuF22P4rvOXsFw74zuKJlqzdKPVPzUNhvG+DlVzkHaLtohVy0KCgdo/lqlOYplvCwcJUibTkFm8iD6DFgOtV53wbyfsItUcOSTrBsO2FA/9U2ClAOQEG8nR9wi9Dj6Qr9M5wMjVHdV34Mo0UY/MxnVRj8pwclISpnvWAINy2VhaTtH3n5L802QbMYDNZ3yHuw6gKIzHKN84zos7ozXGBkIl0o9BvnHgNsZFr5yuA74/EZy1ZoccDqVZQEnm8dsPICiBkOUbDMdC6t8L+jvKbwpBuU5G28747a5xjtjnGO2OcY8ngBSlmanmvRWc5Fx2HLXxTKktM0laEiaBOQBlfHbHOMdsc4x2xzjC1PYTryytSpOrAmTbcKraSpbjiglKRnJNwgWfSXJpZB0C9XcNJhXqKOcU3LNJN+2dYemw4UHeIFhWZNvAaFASO0TOeAJrorwwHU7Mo0iYqhtRBGSyO2OcY7Y5xjtjnGO2ucY7Y5xjtjnGO2OcY7Y5xjtjnGO2ucY7Y5xjtjnGO2OcYXQ2VKWozKiUAkk5T9tabIaB9Jw2JG8jZCyVKUbyTeYaOMQPwm/v8eXMROM14jOi3oMxNp1C8x7blg3X+EH0Ec1O4X7eVxYTqzmEJCUjMBA881PNcoeB2nocOkeDdRhXPROQcQbFIOsfI5IpLYcQrLbkOkGYIzisqisnuI+VTCe+Muo0NalqyJSMpMIVNqhoVZoUs+kruGTom1YSHG1FKknOCLoMkNeUJAJJyBzN1rs+eCJgjLy4tXgem+gsfDT9tZH0l8A+kbEjYJn3hyFWA51TZ3X7K3tCw749lfGM8rN/IL1KMgIHsWJ3n5Tg5G79/CUG8qMyarQwEdY393jyNLGEBlSbFDdOFpCkkZQegw6R4N1aYrCoilGxt7KnUrxGmsqgNH+pY+VTCe+MvlQkqUpRkEgWkmKKooojVwIyuEZz3CQ6VZCKLSXD/wDHORCj7GY5NV3Ji1eB6b6Cx8NP2xhCnFqORIEzFJdK5eyMg2CQ2cqBil6xxEjtrnIYKJ0ZS0zStWkZAbp7bYYWUrbdP1ToyS0iw9AoYxes28Bs5aGcWc5R6J8Rs6DDpHg3VQQpKkmRBFxEUWTNLQPalYuWZQt1zGSqryagbnXeNTCe+Mvl8qLxFhtDQE1nwT71WcjS6QcBrYb1bAYN6KKyEgalKJnuEZ8cgf7IyY9CHRuAT4wm0qohOMA0tm3dOEmSkqEiDmIq0Ihqj01Y5r6PZmbymUp5pZeTFq8KjqghCRepRMgI93jHu8Y93jHu8Y93jHu8Y93jHu8Y93jDVEabWg3pUEAEb/tnlBclAG0NJkVbzgjfUfTho6w/x4VwZpQfWf4gXAQwnzFIIsWPYXnGnJvBYVgONrFoPzGnLWScNeof8A21KV5hc7pn6p3y3noMOkeDdZ3zVLbHpNk3yzi8apZYdQFoWkzCkkTBFQ0GW5xXGphPfGXy0OhgyzLWok9wRUoSQ/SEgyxlskonpM56AYbSEoQhICUgXAAXCqB5umNptUcgWPSHeMhhrLelaciknKDyKISlKRMkm4ARYpvydOSjmLhydUbc0NpCUIQkJSkC4AC4cmLV4Gp9MZ/ePuajn6MxmwU3naqZ2io0sK16IcSFJOcETFUWpQfWf4gCQAycrCfMPkSCx7C9GY5N4LCsBxtYkQeGnLVdOAjqi/v8KgtBEFOA7oWLDx218OkeDddkFyhKUfrIvU3svGieaoqjODcocamE98ZfKlDAH/5IPzqPttPNg+klBUFS/WK9FBXRHbiTlQTmV3GRhKpOBQwUtSMiVn0QII51JUnmtaGwbtd50XVMWrwNT6Yz+8fcroxDGfDVZMahM7K1GVg+6bR8xsqAzSk+s/xAEgBkqsJ8w/KQcH8NejMcm8QwoocbWJFJ/wCZeVaglIzkw2gJ15zVfGMbH4xeNo/bXw6R4N16M4HG1jIQYWMB9oH/ALTo+sn5jQRylt8bijjUwnvjL5aXRWnQc8gUf7KjCsJtxOQ/MG4jLAsVSaOkuNK0lP1k6hhQr0EOjD2pNo3VqS4XXlNoCS4s3qVK81cWrwqfTGf3j7loCMJwDK6oA9yZbzWpHmlazd3+PKDzUn1n+IFgAyV2EyZfNgcHsL0Zjk3iGFFDjaxIpPJRxhe8bB8zsrMrCxpkboeQFpOgidbDpHg3U8nPPJpCUi1xjCnPWmZOonMKnlAht6ZsbX6Lmy46Do5Z0gfDqYT3xl8tAcLT0h6tcpE6lAD3q6bm8cVI/SqY7oF5caxajtQQO6MqqO4l4a5HBPjCvV0qbJnm50gdhMKEwpJmCK2LV4GpR3kOhJMgcFQMu6O0q/tjtKv7Y7Sr+2O0q/tjtKv7Y7Sr+2O0q/tjtKv7YdcWjFIXhAYKpXyH2ujNKcVpkLBrN22KQ4p1Z0kzrAzBGSFoGEMyhYe+AeanK5/iAJADJ0LCfMvGwOj2F6MxyQwoocaWJFJikHGHVk7rdteiqwkT9hXAz3ith0jwbqGlvJINoIMuMUyb1FVkSJ85vWkncRU8moCQVG11m5KtJFx2Z+QPPDelPCphPfGXy0ltTTiDlSRIxPDoz0rHWzcdeQjIeiBmW0rmg60HmnaIu+l0QWjSpB8QdkLuW2qcjmIvB0G2pi1eHS49795+1rpKBSSLwm0p2YUu7oMb5udylStBOQXQBIAXDo2pBtxAmXkA2oUMozHJ3QkSAzV1hSXBkwJTO6QNbDpHg3UFOdH9KIT52iun0HRdsNx0GGVltxtVhSoGRB5aOuZQTIOINiknQRFJbC0nKM4OkGYOkQKWsb0f4qYT3xl1EzUxSEDnsqzjRnGXcYUZM0tsEtODXkOg2+PR2Yxo2tujMpOUd4yQyAKTRVKmWznGdJyHlxavA9Lj3v3n7XSWiifsnIdhkdkMOKbWk5FAyIrGEpmvrG098XNuk9x49EqxDYNqjwhW4DMIVzhtruHEtT9kWqO+Q2VsOkeDdQeUXB/pt8iylqnJSLjclzbYk7M5qU5c6MpRsbezalXawM8DygBvbXwqYT3xl1XBgrbdQFJUMxBvg24ogusk6iZp2EjRA9ZQl4c/dMld0ey80pB7x0LSpONzkHUH6yDoPcZHJFKbDqDlE8h0g2HSOTFq8D0uPe/eftnlBE1SuDqZBW8YJ31mfOr2Xd8uW5t1XgePQKsQ2Dao8IVuAzDkbNuo1nVhCRnJMhDLYTPOcp2mZrYdI8G6g8pufCa5KQ2W3EKuUkiRhJxlHdI/7jR+qdeQ6QeVJBSoGRBziKD5SaapacpOKdAXqUO8GphPfGX0CrClaQQdhg+nR0lk6+YRBuS4EvIGyw98C4BZaWdihL+qE3ulvCb/AFpmnvrUNwPsg+wucwNAUJ+9yYtXhUNMZBBy88R+WI/LEfliPyxH5Yj8sR+WI/LEZkiQ+2UcfSWZC3CSLRtExtFakqs6osHfOpc26o9x41lWIbBtUeEK3AZhyqBBhJINWiJ5s8q1WDcJ91fDpHg3UHlBR/02+WgAu0eQtcT6Te2VmkDOYGflXLCSDYZXTFTCe+MuqWy79Hwxh4E5YWDfKZvrm8GJEpeYTgoWrMtAsOsW67oozimnE5iDLaNNR6gOAjSFII8DyYtXgan0xn94+5nVY9jNgKtkNRmNlR1YQNphtAQnUBKrc26fA8airENi9R4QrcBmGiq4LdY/4KroxzvWVk2CQ2V8OkeDdQU6f+mnhU8pLJWEixp+8jUq0jTOvhPfGXyoBUpSjIJAvJMWpX5QUJoR+WD9Y6TZmnCHMYp11RUXM4VnBFmqDzXmSecyvKk/I5R0DtHZW5L2sGXgBUTQXSf1IHz5MWrwNT6Yz+8fc1AXguEC9pRA7jLealHTJPWNnhOvc26T3HjyK+o2Dao8IVuAzCsjnDZUaOOd6qcm0yG3oMOkeDdQUtJ/oHCpSESCgLUKvSoaQZGKM4UKzKGRQ0ESI11sJ74y+RQOKYRa66cyU/M2DPAPMojSvrZis+kdF2jLymSXWV2oeTmUPA3iCOfQn1AKn+A3LGq3OBWYThKUrLmAGUnIIpLk0IPoIAklOxIFRphFGSc5WrCP7Bv5MWrwNT6Yz+8fc1IbU0sZwRIxRnVNk55Gw6iJHbyvedXrN3dLoEiTXOmdSpXDSYXcpCppAzDoAZp1ZOWlq5s8iE2DeZ93QYdI8G6gpLZ/pPCrQESpCUi1xnPrTfqJzCthPfGXyUsJaewlFWJcAkNSSBZpBziqDMEZITc1TklyQ60wrvjKujPgg+6oDxjMWWyO5ceyKOmfeuD9VymOBIGtKZz3iEGbbCBgtN9VOfSZnTVpRNKpAN4UoCSTqSEjXPkxavA1GHEuIJExhAzHhHZhHZhHZhHZhHZhHZhHZhHZhHZhD+MwwhgJPNbUoW6wPttJTiHiPbSOadqbPd5CrCX1RaeFb8apT1Z49tfNTxPdB9W1zRxO3kzoVKevPHtp5quB7oPq3eaeB31hzVfL58jywieYZTsEzDSAhIzACQ6DDpHg3UDzJ/pVwqqEiDaCIpk3qIrIkek3rSTuIq4T3xl8lIQUOIVlGcZiLwchh4k0WlSsWPZVmUMo29NQl4SAoWUh0XJ0pF52DPy4tXh03nvgr+2qRhsk5HE2p3mzUTCTIg5DCzikHQLT8t3KLSSZAQPRatH6rt04Psc5W8/IQb1LMya49WvnJ3G7ZH8Rq0bjb4xmB5w1i8cqhZryQLDDQxLRPtG1R3SG3ocOkeDdQLo57nKyfO0V0+g6BZsNx0GGVltxtQkUqBkQdtTCe+MvleElIVkzEG8EZCIE1YxKZuMjMsDJ+IWZ5dJYoTGC5SBmSMifxbs4YSENtoEgkDlxavDpvPfBX9u8of8AUNAD0iZKT+q3aIbQASMqryd84Hq085W4XbY/iPWncOJi/BJkkahd0gtBSZEQPRdtP6r984Pt2p3j5yg3KQoEHbDxmkDKTk3whE3CMqzae/ocOkXDQ3HVMdUx1TE6ObR+ZXWQ1TkIFxuS5tsSdmmOqY6pjqmMJ6w/nLqqtLlHSMWs/ibu2iW2Bc9QpuGWlH1hulphJkpKwQRrFY2AAXwr/wAimzaTLOARhHYDCbQXUyZQfwoy6zPUKuLV4R1THVMdUx1THVMdUx1THVMdUx1THVMdUx1THnrSP/pX9uoTpdYLpISSRLBJAJAngn3YnILowm0feHgT9iUbEMAkq2C+KOrGISoydUZWTSJgWyOQ2dHqjVGrodUao1dBcC+ylZGokTEHLR6QsdxJHdGZSm1D9oj8pEfgxaf9pgfx6QrwTgwPTbZAX+q87+g1RqjVGqNUao1RqjVGqNUao1Rq+3kSINxhVuMovNBOlF26R0wLcJgScA0oNu6cJMlIWJEHSD0s5F0jBbTrUbIvNHo3NTtWbTsA1xlKE85WtV52n+XpSDksFadShaIvFHpVh2LHzA1xOQUpPNVqULDsPQKMglImSYPp0mxRGhF++UC3CpH1AdCLt84SJJSkSAGr+YliSkOJCknWDBtk3z2idKTdsIhNuOos1gDSn6w3S01MuLTMJ1m4bYvNHo3OXqKjYNgMASLyhhOH3jbsu/mg/wDkM8xzaRftnClW/SQULQNgIV3aoFuAfNtA6gZnadkI+q20gJSNg/8AXof/xAA6EQABAgMEBgcHBAIDAAAAAAABAgMABBEFECExEhMzQVGBFSAyUmFxsRQiMKHB0fAGQEKRUJAjQ/H/2gAIAQIBAT8A/wBazjqGhpLNBExbSE4MivjuhFsTCVVVQjhEva7DuC/dPjl/cAhQqP8AIzE+xL4LVjwGcTFtOLwaFB84ccW4dJZqeoxNOsGraqRL22Mnk8x9oZmGnxVtVf8AHW7PvsrGgfcy5wibbXmaRn1mZd19Wg0kqPhEj+lppZC3laHzPyw+cMvo17kslROhvOZ4/PqsyKnUBYMdGK70ONltRQrdfLsF9WiDSOjFd6JiTUwnSJre0yt00QKwizD/ADV/UCzWuJg2a0ciYcs1acUGsKSUmihQ39GK70dGK70dGK70dGK70dGK70dGK70TEqWACTWvx33NWgqifY17Ck78x53IdWjsmG54/wAxCHkOdkwASaCJP9PTs1jo6I4nD5ZxJ/pWVZxfJWf6H5zhpltlOg0kAeGEWlNiTlVvbwMPPd84k5gsvhw8+fVkdgnn63T8vpp005j0vs7bcrrS2Q8/vdKy5fVTcM4QhKBopFB1XmEPCiofYUyrRVA69p9lPx51yqggbrrQY1D6kjI4jnfKSjs26Gmhj6eJixJdmzUhBFT3jn/54QDXEX/q6c7EqnzPoPrdZcxrmADmMOpI7BPP1vnJfUrwyN1n7YXWlsh5/e6Rb0GQeON03Oak6CM4M48f5QieeTmaxLzSXxhgeF09MtrGrTj4wLiaCsdJucBHSbnAR0m5wEdJucBExNKfAChl8ZSgkFRhaipRUbrbY0mw6N3obpSUdm3Q00MT8vExZ1nNSDWgjPeeN0nOar3F5ekA1ygkAVMWlNmcmVvbicPLd8rrImNU/oHJWHPd1JHYJ5+t8wyHkFJhSSk0MSG3HP0utLZDz+90satJ8hdOyi1L1iBWsEFJobkLKFBScxExOreGiMBcLldk/s51yiQgb73mg62WzviXknph7UNjH084s6zmpBrQRiTmePUk5zV+4vL0j9Qzns0krROK8Bzz+V4JSaiJZ4PtJcG++R2Cefrcw/V1TSuJpdaEv/2p5xJbdP5uutLZDz+91nPAp1ZzF6khWBFYXJMq/jDlmD+Cv7h2XcZ7YuFxxwj2Jju+sexMd31j2Jju+sexMd31h5IS4pIyr8aeQQsK49SyLWYTMLbUANI4Hj59V11DKC44aARNWyq0XNDJCeyPX83dSyGlNy4Kt+N8jsE8/W6YUUPqUM6ww8HkBYhQChQwhksTQTuutLZDz+9yVFJqnOGbRScHcPGEOoX2TXqKSFChicltSqqcjA68xtVeZ+NMt6xsi+0X9RLqIzOA53WHbmUtMnyP0P0N7rqGUFxw0Ai17XXPr0U4IGQ+p/MIaXoLCoBrdLMl91LY3wlISABkL5HYJ5+t03tlRJTGqXQ5G5xoLIVvF1pbIef36qJh1HZUYRaLg7QrEvMofHu53TqNJk+EC5XZMVMVMVMVP7CYb1bhF1tP6TgaG71N9h25lLTJ8j9D9DDrqGUFxw0Ai17XXPr0U4IGQ+p/ML5RzTbpwusSX7Tx8h9epI7BPP1unNsq6RmNYjQOYvtLZDz+8JSVGgiWs8J953+ompUPJqnMQtCkHRUKG+zUErK9102rRZVAuVkf2k63pI0huhawhJWrIQ64XVlaszcElRoIYsl93FQ0R4/aJqSemGEsqdJ0eO/85w/Z77GKk1HEY3ybmivR4wlJUQBmYlmQw0lsbupI7BPP1unduq5p0tLCxCFhxIUnI3Wlsh5/eJd4srCoQsLTpJyuW2lYooVhUgyd1ITIMg5VhKQkUSKC60Xwf+JPOBf7Mz3RHszPdEezM90R7Mz3RD0u0G1EJGR+OoBQoYtx0st6neT8hDEi+/2E4cYYsRIxeVXwEMy7TIo2mnUfkWH+2nHjvh+xFDFlVfAw4w7Lq99NIsRoPuB3cMefVkdgnn63Tu3V+br7PmNFWrVkbrS2Q8/vcxMrYOGXCGpxp3fQ+PUWtKBVRpExaFRotf3GcDrv7JXkf2ExZ7L69aoe9xhyVcRur1wCo0EIkVOCi8olpRqVToNCg/YJdWjskiPbHu9BmnjmowSTif3jjCHO0IcklDFBrCkKQaKFzbK3OyIbkQMVmEISgUSKf5NSQoUIhMq0DWn+vX//xAA1EQABAwEFBAgFBQEBAAAAAAABAgMEAAUREiExEEFR0QYTIFBhcZGxFCIygaFCkMHh8CMz/9oACAEDAQE/AP21mmVvKwti81GsBxebxuHAZnl705YcZSMKbweNSbFkM5o+YeGvpyvogpNx7xjWdIk5oTlxOQqNYLSM3jiPDQc6baQ0nCgXDw7EiIzIFzqb/f1qTYB1YV9jzp+M7HNzqbu7o1mJhx233E3lWee7h+KRJQrwoHtOOoaGJwgDxqVbkcAoQnH56f77VOilDaJGG7FuGg4fjuyyIXxstDR01PkNeVTmOuYUga7vtsQ4pH0mkTD+oUh1C9DRN2ZqRa8ZjK/EfDnpUi3X3MmhhHqaccW6cSzefGobHxD6W+PtvqdGEiOpsa7vMd2dE4XVsqkqGash5DmfbZPY6h9SRpqNrzyWU41VJmOyD8xy4djo/H+p8+Q/nZa8bqJBI0Vnz/PdTDKn3EtI1UbqjsJjtJaRokXbLZYxIDo3bHXUspxKqRIU+rErsAX5Cocf4dhLfD337LbjddHxjVOf238+6uicLrH1SVaJyHmeQ99rzYdQUHfUhYjg9ZuqRIU+rErTs2RH6+SCdE58vztUkKBB0NS2DHeU0d3tu7p6JSUrjKY3pN/nf/vbsW42qS8p5vTh/PZQgrISkZ1ZEcRwUnU9i2nkuSiE7hd3TYc34OYlRPynI+R5HPbaD/UsKI1OQ2ToOrjY8xtQgrISkZ1EiBgXn6qbXgUFUM9kp8R2VOndSlFRKjqe6rEm/GQ0LP1DI+Y567LZfxOBobvc7Z0HVxseYpCCshKRnUSIGBefq2xl4kXcNlvyfpYHmf47r6KTepkGOo5L9x/X8UtYQkqVoKdcLqys79gBUbhTFlPu5qGEePKh0cabvW0r5j6f1T9nvs5qTeOIz2xV4V3caUoJBUdBUp8yHlOnf3Wy6plxLiNQbx9qmz0vQ0Lb/X/j+cqYgvv/AEJy40xYqRm6q/ypqO2yLm03dh+Cw/8AWnPjT9iqGbSr/OnGHWD86bqtmXgjBKdV+2/l3bZtsrhXJUgLSOOo8j/VQukMOVckqwq4HL86UDf2nHUNJxuEAcTlU7pRFaBQyMZ9B/fp96mTFy3MagB4DQd3w7Wlwv8AxXlwOY9OVQulrS/llJwniMx6aj80xJakpxsqCh4bJlpxYQ/7LAPDU+lTelq1fLFRd4nX0096ky35SsTyyo+P+y7zZecYVjaUQfCnekE91vqy5d4jIn7iiSTef29P/9k=;" vertex="1" parent="1">
          <mxGeometry x="-650" y="551.3499999999999" width="102.99" height="77.3" as="geometry" />
        </mxCell>
        <mxCell id="aM5ncvH869bX6Gn5c9m2-28" style="edgeStyle=orthogonalEdgeStyle;rounded=0;orthogonalLoop=1;jettySize=auto;html=1;entryX=0;entryY=0.5;entryDx=0;entryDy=0;entryPerimeter=0;" edge="1" parent="1" source="aM5ncvH869bX6Gn5c9m2-27" target="aM5ncvH869bX6Gn5c9m2-10">
          <mxGeometry relative="1" as="geometry" />
        </mxCell>
        <mxCell id="aM5ncvH869bX6Gn5c9m2-29" value="Stock name, Company name" style="text;html=1;align=center;verticalAlign=middle;whiteSpace=wrap;rounded=0;" vertex="1" parent="1">
          <mxGeometry x="-570" y="610" width="90" height="30" as="geometry" />
        </mxCell>
        <mxCell id="aM5ncvH869bX6Gn5c9m2-32" value="" style="group" vertex="1" connectable="0" parent="1">
          <mxGeometry x="-230" y="555" width="180" height="125" as="geometry" />
        </mxCell>
        <mxCell id="aM5ncvH869bX6Gn5c9m2-12" value="Preprocessing of data" style="shape=process;whiteSpace=wrap;html=1;backgroundOutline=1;" vertex="1" parent="aM5ncvH869bX6Gn5c9m2-32">
          <mxGeometry width="140" height="70" as="geometry" />
        </mxCell>
        <mxCell id="aM5ncvH869bX6Gn5c9m2-31" value="" style="shape=image;verticalLabelPosition=bottom;labelBackgroundColor=default;verticalAlign=top;aspect=fixed;imageAspect=0;image=https://www.svgrepo.com/show/376344/python.svg;" vertex="1" parent="aM5ncvH869bX6Gn5c9m2-32">
          <mxGeometry x="-40" y="15" width="110" height="110" as="geometry" />
        </mxCell>
        <mxCell id="aM5ncvH869bX6Gn5c9m2-33" value="" style="group" vertex="1" connectable="0" parent="1">
          <mxGeometry x="-470" y="550" width="210" height="130" as="geometry" />
        </mxCell>
        <mxCell id="aM5ncvH869bX6Gn5c9m2-10" value="Data collection" style="shape=cylinder3;whiteSpace=wrap;html=1;boundedLbl=1;backgroundOutline=1;size=15;" vertex="1" parent="aM5ncvH869bX6Gn5c9m2-33">
          <mxGeometry width="175" height="80" as="geometry" />
        </mxCell>
        <mxCell id="aM5ncvH869bX6Gn5c9m2-26" value="" style="shape=image;verticalLabelPosition=bottom;labelBackgroundColor=default;verticalAlign=top;aspect=fixed;imageAspect=0;image=https://www.svgrepo.com/show/376344/python.svg;" vertex="1" parent="aM5ncvH869bX6Gn5c9m2-33">
          <mxGeometry x="-30" y="30" width="110" height="110" as="geometry" />
        </mxCell>
        <mxCell id="aM5ncvH869bX6Gn5c9m2-34" value="" style="group" vertex="1" connectable="0" parent="1">
          <mxGeometry x="-450" y="680" width="112.5" height="150" as="geometry" />
        </mxCell>
        <mxCell id="aM5ncvH869bX6Gn5c9m2-7" value="" style="shape=image;html=1;verticalAlign=top;verticalLabelPosition=bottom;labelBackgroundColor=#ffffff;imageAspect=0;aspect=fixed;image=https://cdn4.iconfinder.com/data/icons/ionicons/512/icon-social-github-128.png" vertex="1" parent="aM5ncvH869bX6Gn5c9m2-34">
          <mxGeometry x="22.5" y="30" width="90" height="90" as="geometry" />
        </mxCell>
        <mxCell id="aM5ncvH869bX6Gn5c9m2-18" value="GitHub" style="text;html=1;align=center;verticalAlign=middle;whiteSpace=wrap;rounded=0;" vertex="1" parent="aM5ncvH869bX6Gn5c9m2-34">
          <mxGeometry x="37.5" y="120" width="60" height="30" as="geometry" />
        </mxCell>
        <mxCell id="aM5ncvH869bX6Gn5c9m2-22" value="Data storage" style="text;html=1;align=center;verticalAlign=middle;whiteSpace=wrap;rounded=0;" vertex="1" parent="aM5ncvH869bX6Gn5c9m2-34">
          <mxGeometry width="60" height="30" as="geometry" />
        </mxCell>
        <mxCell id="aM5ncvH869bX6Gn5c9m2-8" value="" style="sketch=0;pointerEvents=1;shadow=0;dashed=0;html=1;strokeColor=none;fillColor=#505050;labelPosition=center;verticalLabelPosition=bottom;verticalAlign=top;outlineConnect=0;align=center;shape=mxgraph.office.concepts.website;" vertex="1" parent="1">
          <mxGeometry x="-467.5" y="350" width="170" height="120" as="geometry" />
        </mxCell>
        <mxCell id="aM5ncvH869bX6Gn5c9m2-11" value="" style="shape=image;verticalLabelPosition=bottom;labelBackgroundColor=default;verticalAlign=top;aspect=fixed;imageAspect=0;image=data:image/png,iVBORw0KGgoAAAANSUhEUgAAARgAAACcCAMAAACTBkTEAAAAGFBMVEX///8AXaBKpDUASJQwlxjI4dFKi7uUx5PFTnzkAAAF8ElEQVR4nO2bibKjIBBFAwL9/388snTTLBpNTEzNu2eqpnwIRo4tm/p4AAAAAAAAAAAAAAAAAAAAAAAAAAAAAAAAAAAAAAAAAADAN/Etd5/O7awOKGJ7UupfNJSErAKcoKy0icnQBT9JwfwIYcNJNDLI2EIMvemHrDPLjzCKWeMkV/WAkZmgFD8v6Fl/di18d6AIYTg7+5KTIX7O6clWVu72IYT+7N6T0uk5dnPp373bh9CIucxKr8dudF/e9yF6tw+hEXO1ltZPrj0JvKPJebcP4TtiWkHT7v92MakvukvMc27TEuJgnqoZiGExycB/L6a7LyBGqhWBmLGaaWRgTsQMxEDMp8XowcZsYLw5Wp6kH5hw6HOdVmCrskuT6YiY5lBHxZThV66I+r+tGVdUpU4KtgZFTjfEK3/JSS+jBklcdFL8K6VwsqwZLLVAzlRLlo16pKNi8pjd2Wg+zvHWfyTbNSZSWp0azwrOMsc/iXPqgmT58oc4s/I+aAlrYjpCqKGQe58l587pS6AyKeOeqWQygSgUU6HURo5/UIxLh7bEeyjXNGfiujiqRYnjYSw4yxw95aO5Zje5ct71nILEgTrVUp/FpL8MH9tHM4ueq6415fCpNV9MzeKL5FNi1C9Yla2Y0VUVX2PBWeZkxjf7fdFkpIWoEsyYSPnmSWLUrD1WbNE/FcXkTMX8wg76458Rs0G+ym1Vec1iKDjPTI5DJodU/cN0l5zPvE+kKqbLOxdTiw2F8vFPitFrKLIdr7JUVVLJTQvaet88YitSUtuQkYCx6oLKofRVluPG6tQ6SvLkVurFyHE58bwYHxvVWkPeVndCysGVdbOCNbPPqy+cqkJGbUo9KJ6cLw4miQ8VMbGhCOIrNrV5OzW+2l5szDmjPv5ZMfpq26YCJWB87pq55ZwVrAqsuqu8yivhF3dzbITcwaYstLSJxNUpdfZLjamYyh5LL81iQuqdS8DE7YVb4dONr5tvVzFN0+p1Bl2wuqjNie6JdKly4l76Ch+kheFE1sV1Ls2nl+0iyeiui/8Kqoi2eUYMuWGbxqqoyrpJZl/DSz/arfedd9qy0XXNGuJmk1gqYU6JoUYFj4Sk0FVibCPGPhEz6eNUA97EZHEgQ7hmvNKIeZwT08SICMi3Jf2QGNWHkRNVoxizI2Y5I4YHcvRNMc9upRwRDWVekHfUgNmNmLdupfkI93IxOvrVPbHXxtDs+UAXQmMbk7uSqZhzjW8j5nNtTNcriaa9xpenU1TnnGpEXH5ZOiCpVHwBok083CtN7sNZi3OpGJ4DJvpxTCfGSma+7by8bNMFjIxjKL9zcGgcsx0xahzTxgiPYx6s47I2hhvUWMOyaTfFcH9tZeTr+5CxIoZHs0FGprGnLb9WE/3ytI3xeuTbtdx55PuQ8teJ0fPth+TYEMOZ5fk1e+A9LErPlQQzSww7Ytijbohqc97PlfzpudKemMnsep7ZOztqrP1821jZ7dk1zRK3xEjumZh+dm2uFTMsseyJ6cxUL133ZjfXYzozYezGGzG8FDUR06xTyUrVy2LGgLB14r02pm6/4DRzFUZazHwFL65f9okTMTzyN9ISdR102lkl07kVvLwE+2w7rjikR+H90u3RzNKG1xQ+9byKS92abz6CStRPHJunj6vcuMQ77sg7TXqG74OZH2pbjB6E6RFZ9/JGeSLgnhecZh4DZvcpgeHF/iZFrfwvwwOEpc/UHH/zUDsR8x36pvf5c6WvcfOTyD5g/uobVR1jwEBMFtP11RBTvNQ5FsQ0YsaAgZgt7vYh3NvGjK+03u1DQMRscEJM//ay28/+v4vpLbQfu12u6Ce/V+rEtB9ITB6BPHz5KtAO86IXcS78CjQVc/qDI18+E3xLj3qD4Lfw4uTlL/i8f1nPz2rhxWqit8/vvB7Hr+j9JGvEXHh2h2+ufDUu+91P8IFr1n2iPChJbdnvxsrH4ca5gy64b/8HuHunP/uNPwAAAAAAAAAAAAAAAAAAAAAAAAAAAAAAAAAAAAAAAADg7/IPidNkt1xGyGcAAAAASUVORK5CYII=;" vertex="1" parent="1">
          <mxGeometry x="-447.69000000000005" y="280" width="107.69" height="60" as="geometry" />
        </mxCell>
        <mxCell id="aM5ncvH869bX6Gn5c9m2-19" value="News data source" style="text;html=1;align=center;verticalAlign=middle;whiteSpace=wrap;rounded=0;" vertex="1" parent="1">
          <mxGeometry x="-312.5" y="380" width="60" height="30" as="geometry" />
        </mxCell>
        <mxCell id="aM5ncvH869bX6Gn5c9m2-25" value="" style="shape=image;verticalLabelPosition=bottom;labelBackgroundColor=default;verticalAlign=top;aspect=fixed;imageAspect=0;image=https://www.svgrepo.com/show/376344/python.svg;" vertex="1" parent="1">
          <mxGeometry x="-512.5" y="390" width="110" height="110" as="geometry" />
        </mxCell>
        <mxCell id="aM5ncvH869bX6Gn5c9m2-42" value="" style="shape=image;verticalLabelPosition=bottom;labelBackgroundColor=default;verticalAlign=top;aspect=fixed;imageAspect=0;image=data:image/png,iVBORw0KGgoAAAANSUhEUgAAA0AAAAIZCAYAAACPlV/JAAAAAXNSR0IArs4c6QAAAARnQU1BAACxjwv8YQUAAAAJcEhZcwAAFiUAABYlAUlSJPAAAP+lSURBVHhe7P0Fd1trsu0Pvx/if+890Of06dNMG7s3M2YHdpiZmZmZ2WFmRtuxY2ZmZmaGOHYc6nqfWc7j7chSZMcyRfUbo0bvTixpaS1Lqbmqatb/jwRBEARBEARBEKwEEUCCIAiCIAiCIFgNIoAEQRAEQRAEQbAaRAAJgiAIgiAIgmA1iAASBEEQBEEQBMFqEAEkCIIgCIIgCILVIAJIEARBEARBEASrQQSQIAiCIAiCIAhWgwggQRAEQRAEQRCsBhFAgiAIgiAIgiBYDSKABEEQBEEQBEGwGkQACYIgCIIgCIJgNYgAEgRBEARBEATBahABJAiCIAiCIAiC1SACSBAEQRAEQRAEq0EEkCAIgiAIgiAIVoMIIEEQBEEQBEEQrAYRQIIgCIIgCIIgWA0igARBEARBEARBsBpEAAmCIAiCIAiCYDWIABIEQRAEQRAEwWoQASQIgiAIgiAIgtUgAkgQBEEQBEEQBKtBBJAgCIIgCIIgCFaDCCBBEARBEARBEKwGEUCCIAiCIAiCIFgNIoAEQRAEQRAEQbAaRAAJgiAIgiAIgmA1iAASBEEQBEEQBMFqEAEkCIIgCIIgCILVIAJIEARBEARBEASrQQSQIAiCIAiCIAhWgwggQRAEQRAEQRCsBhFAgiAIgiAIgiBYDSKABEEQBEEQBEGwGkQACYIgCIIgCIJgNYgAEgRBEARBEATBahABJAiCIAiCIAiC1SACSBAEQRAEQRAEq0EEkCAIgiAIgiAIVoMIIEEQBEEQBEEQrAYRQIIgCIIgCIIgWA0igARBEARBEARBsBpEAAmCIAiCIAiCYDWIABIEQRAEQRAEwWoQASQIgiAIgiAIgtUgAkgQBEEQBEEQBKtBBJAgCIIgCIIgCFaDCCBBEARBEARBEKwGEUCCIAiCIAiCIFgNIoAEQRAEQRAEQbAaRAAJgiAIgiAIgmA1iAASBEEQBEEQBMFqEAEkCIIgCIIgCILVIAJIEARBEARBEASrQQSQIAiCIAiCIAhWgwggQRAEQRAEQRCsBhFAgiAIgiAIgiBYDSKABEEQBEEQBEGwGkQACYIgCIIgCIJgNYgAEgRBEARBEATBahABJAiCIAiCIAiC1SACSBAEQRAEQRAEq0EEkCAIgiAIgiAIVoMIIEEQBEEQBEEQrAYRQIIgCIIgCIIgWA0igARBEARBEARBsBpEAAmCIAiCIAiCYDWIABIEQRAEQRAEwWoQASQIgiAIgiAIgtUgAkgQBEEQBEEQBKtBBJAgCIIgCIIgCFaDCCBBEARBEARBEKwGEUCCIAiCIAiCIFgNIoAEQRAEQRAEQbAaRAAJgiAIgiAIgmA1iAASBEEQBEEQBMFqEAEkCIIgCIIgCILVIAJIEARBEARBEASrQQSQIAiCIAiCIAhWgwggQRAEQRAEQRCsBhFAgiAIgiAIgiBYDSKABEEQBEEQBEGwGkQACYIgCIIgCIJgNYgAEgRBEARBEATBahABJAiCIAiCIAiC1SACSBAEQRAEQRAEq0EEkCAIgiAIgiAIVoMIIEEQBEEQBEEQrAYRQIIgCIIgCIIgWA0igARBEDqAZ8//RfVPnlFt/ROqedQ88OePnz5TP/ec/vWvf714lNDZyHUTBEF48xABJAiC0AEgiS6prqPs0geUXlRFqYUvB/688mG9+rmnnEwLXQO5boIgCG8eIoAEQRAsyJNnz6m67jEVV9VSjkqOUwsqKTa7jIJTisg1OofsQzPpTlA63QpMeynsQzPIKy6PQlKLKCarlJLzKyirpJqfp+bRY3ry9Bk9fy4VhvZCrpsgCIL1IAJIEATBgiCJTswrJ8/YXLrml0w2DlG06nIgzTnlQzOOe9HUox405UjzwJ/PPOFFC8/60uorgbTbLoIueCeRh3oeVB6qa+s5mRbaB7lugiAI1oMIIEEQhDaAtqe6x0+p9EEdJ7yByQV0zT+F9tpH0vKL/jTxkBv12WJP36y906L4Yf1d6rv1Ho2xcaFF5/z4eW4HpfHzphRUcGUBcycyc9I29HUre/CIMourudIj100QBME6EAEkCILQBpBE55XXkH9SAR1ziaUVlwJo2jEPGrnPmQbudKTeKon+XiXHxpJmY/GtCiTTvTbb0cAdDvw8k4+408rLgXTKPZ7brXLLamTmpI3o6xaYXEhnPRJo3bVgmnHcU66bIAiCFSACSBAE4TWA81d5zSNKyq/gGZEjTjGcQPfddo9+2NDyxLml0X+7A8077UMHHKP59TBrUvagThLqVoLrBtOClIJKclPn8ZhzLM1X53XIrvvUY6Ot0XPfltDXzcYhmpwjsykxt4JKq+W6CYIgdCYigARBEF4DiB8MvmPeA1UftD5p8fPtOuPJcFviR/W8/bff49YszKac8UigsPRiKqmu5WRaaBkQP1GZJXTdP4VWq/M41saVRQrEz3fteN3GH3Clxef86KgSXPi9kesmCILQeYgAEgRBaAWPVNJaVFVLoWlFdFqJkCUX/Lllyljy2x6BRB3VCgzdn/VM5BaugoqHUlEwg7azjlTi57JvEhsW4DwaO8ftEXpGaNYJLzrtniDXTRAEoRMRASQIgtAKMMzuFpPDrWizTnqz+PmxHVqnTAWqFBBBg9TrwoEMrmMByQVSUTAD2s58E/LpuGsczT/jQ4PbqeXNVOgZoQHbHdg9Tq6bIAhC5yECSBAEoQXoPTGoIBy8H03TX8z7GEt2EUh4MUTfe7M9VxrQaoXEd+ZxL5qjhBPmQpoGKgOTDrvT6P0u/PM/b73HCbOx50ZoIQQRdNYzgcLTi3kmCNUEcRn7hafqumEfT1xOGZ10i+NzjZY3Y+cU0drrNvtkg0X22AOuNHR3y6/blCPudNo9ntvhIM7kugmCIHQcIoAEQRBagN4TczMwlSsI5swOkAQjGZ5w0I3WXwumE65xZBuSQd5YmplSRJEZJS8FqhNYrHnEKZZ/fvoxJbDU4409tw4k06gEoR0OM0EwZJCWqpepefSE7cntwzJoyXk/Fj8/bjBd+WntdQtIKqB76rnh9LbxRkiLrxsqQRC9mAlKyC2X6yYIgtCBiAASBEF4Bc//9S968uwZ5ZQ+4ER3y61QGr7HyWhii9AJNCo5ECZ77CLoTlAa3+nPKnlAVSYWY3KiXlhFgUmFZBucTofux/A+mVHqefB8qEqgOmH4enomCMYIcIeD1XJtvbRUoZoCQYE5G5wXtJzBmtrw/Ol43etWp851njrnqMDZh2bQYXXdILTGwhTjFdcNr4e/hzGCU2S2XDdBEIQORASQIAjCK9Ctb2FpxbT9TjiNsXGlXptNL8hEEj3tmCftvBtOjuGZFJtVRtkqgcbCzYdK5MCG+fnz5q1O3KqlXqesuo4T6tjsMpUYZykhFM1VBTwvkmbD19MtVRMOufFcEvbNFFfVvXhW6+WZOscwPsB5hJgZd9CVd/sYnj8dr3vdnqnrVlf/hCpqHlF+eQ3F55STZ2wunXSN47Y5U9dNzwSNO+DKFtly3QRBEDoOEUCCIAivAJWZ1MIq3uqPliWIDYgOw4QWbVVYgImk1+ZeFO98QeXg0ePXa23SlQW/hHw6rEQQdtUM3ulosqKg982gFQs7blCtMJawWwt60en9iCyae8rb5HXTlZ+pRzxon33brxu7zSkhg8rRUecYuW6CIAhdEBFAgiAIr6CwspZblFD9GbXP2WgSjRi4w5Fbn065xfOsSGHFQ64coLKDNrrWoisLxer1UVW4HZjGybSpioLeN7PycgC7i1WbaNmyFmB57R2fx9UVGBmYum668gPx459Y0PbrpsTLo8cNltuY7ZHrJgiC0PUQASQIgmAEPUOSVlhJJ1xjufrTz4jrGxLrnptsuYKAtqeglEJum7IUOqGGCMJ8ibkh+8nqOG4FpfHgP6pX1kpWSTWd90rkeZ4BO5q7vunrBrODvXaRPCdUpMSmpdDXDSIIRgeoDL7KNVCumyAIQschAkgQBMEIeoYkKrOU3b1M7Y3pucmOK0Ob1M+gggArajzOUrAQe/acK0EN7XAxNMbGpdlx6MCg/x77SPKIzeWdRdZKYl4FbbsdRsP2ONFP6hoZnid93TZeD2GHN4gftL1ZCn3dYHGNdriTbvE872N4HDrkugmCIHQcIoAEQRCMgKH38ppHPJy+4IyvyRkS2FCvuBRA1/xS2CmuvdAzQc6RWewcZqqlCtWORed86YJ3IldBrA299ycwuYDPg6nrplsWL3kn8cxPe6FngmCMsPS8v1w3QRCELoAIIEEQBCNo8wPs5pl21MPkDMnEQ+502SeZW52qax+/eLTl0TNBcdllbJFtqhWu12Y7rhDB9hl7gawNthMvqqI7wek822PqusHN75hzrMVbFg1paQujtV83QRCEjkQEkCAIghFQ/UHr0nHXON7yb5iwfqsSazi/YSmqT0K+yT0xlia//CEv5txwLYSG7m6+jwjVBSTYq68EUnRWCc8xoR1Lo1v7Kh/Wc8UqTYm87hQQN9nquEuqa9X7aN6yBjtqWJbDjMJYy5m+brNPerPddW7ZA6pVwrK9wT4iB/V6W24a3yOlrxv2OWHBqrjBCYIgtB8igARBEIyg3d+23Qmn4XubL9BEa9Xgnfdpw/UQnhMytSfG0qBagWWpGKyHu5nhcen9MgvO+lKwEnAQCU3tnLklq7pOHXMJt+2hmtSd4oQSpFfVcUN04n0YgvkZzNHstY/kGR/D86Ov2/prwSyUIH7QNtfeVNU+prjscrrkk8xVQ8Pj0tcNlti+6r2JG5wgCEL7IQJIEATBCKiOQCAsvxjAcz6GCStmOeD8hram1IKqF49qf7jFq7BhL9EU9fqGx6Vj5gkv8ozL5UoPxJkGCT8qKHA9g3iD+1h3ijmnvNVxB7MIwvswBLt/0P62VgmcIbvvNzsvfbbY0+TD7nTAIZr37nQUehYI533Gca9mx6UDLXJYgGtpUwZBEAThF0QACYIgGCGjqIqrDabsr+EKh3almwGplFta8+JR7Q8P+dc9Zse5OSe9mx2XjilHPcg2NINFQtMWLz0jgza6Oad8qI8Sct0p4OoGEYTWRLwPQzKKq3mp6Gz1M/22N7e/1uYHl72TKLsdzQ8M0bNAQSlFNFedd8Pj0gFRCwGXqd4H9hEJgiAIlkcEkCAIghEwb4KWK1QdkHgbJqqY44DN8v2ILJ7v6GjQdjf/jG+z49Ix6bA73VDiLLWgkgWTpqm5w6sqSF01Gis4jsYrOOauG6pCaH+7q0QGXPU6mte9boIgCILlEAEkCIJgBBFAXTPaKoBQQdp8M5QcwjKpoLz7XDdBEATBcogAEgRBMIIIoK4ZbRVA3fW6CYIgCJZDBJAgCIIRRAB1zRABJAiCILQVEUCCIAhGwIA9rKZNLa7EDp6NN0LILjSDd/N0FM//9S968uwZhaYVs2Wy4XHpmHzYg0UOHOMgejRvugDS5hUzj3tRXyPmFTwDdD2Y7oaks2NcR9HS6yYCSBAEof0RASQIgmCErJJqOueZSAvO+NIAI25isMZecSmArvmnsGV2R/Hk2XOqVokx9uBgmafhcemAuIHTG5zODF3g3mQBhGsBi+zlF4zblw/Y4UALz/nSBe9EvsYdRUuvmwggQRCE9kcEkCAIghFyy2roZmAqrb4cSEN2Nd8ng+oCdu0cc4nlRBzLRv/1r/ZfhKr3+NiHZtC0o6YFDCpXLlHZvBj00ZNf9snw45UoclV/Bzc0JNxtidH7XdgmvMcGW/punfFjQegFpPj58QfdjD5XSwLiAcd9xTfFqI012tpwbjbdCKFhu52aHUdTAZWUX9Fh163u8VOuODmEZ9E0dW0Mj0vHVHVN76njzy17WbgKgiAIlkMEkCAIghGwiNIlMpt23g2nEXudmyWqnNArYYR2qoiMEqpXIgPJdHtTUfOI26hOusXTuAOuzY5LB3YEBSYX8jLNpseFpaiVNfWUkl/JAgnVhrbEEacYmnfKh8UNzomxY0HovUn4+YveSUafqyUB+2ocd6Q651jyakixum5u0Tm02zaCRu5rft1+VEINu4CwKLUjr1tVbT3FZJfRBfXeJxxya3ZcOiDwAhILWPxg55MgCIJgeUQACYIgGKH8wSMKTimk4y6xNNaI0EC1Awn/3FPe5KSEEioPuMvfXqBKgUQdlQHMr2y4HsJzSIbH9f36u9R7sz2tvBRIMVllLx79C3ohZ4USQaigoNWqLeERk0ubb4TSmP2u1Eu9ruHx6Biz34XFj3tMDkVnlhh9rpZEWmElt64ZVrY0LBBTTQvEjr5umkIlzPB62+6E03AjgtrcdRMEQRAshwggQRAEI2D+Agn3zYBUmnzEvVnCikAyjSQbZgmByQVU9qDuxaMtD4RL/ZNnFJdTRvvuRdLEQ27czmV4TL3Vn0046Eb770VxlccQFlLPntNj9Vy1j57w+2xLxGSW0l47dTzqNY0djw4cEyo/0ernC5XoMPZcLY2H6rgNK1sa3eL3qhbBjrxuGnPudOaumyAIgmA5RAAJgiAYAWKjpKqO3GNy2bXL1IzLwJ2OtOxiAF3ySeZZoPZqqdKzP7BvXnzOj2eQfthwt9nxNJoz+HWMOYO5xF4H5nfQwgZRCRHTXjx5+pyqah+TX2IBn6eem+zUdWt+njrquqFKVVRVSx6xubT0gr/J68bHcyHA5GyTIAiCYDlEAAmCIBhBt4pFZpRyu5mpGZefVII9fK8TzwLB4aukupaTaUvDM0lR2bTLNoLG2rhwEv2tEUEGk4GDjjEsAEqrO7+yoaOjBNBzdd0w5xSbXUY77oTRqH3OLIIMj6ejrhta9dxicmiPfSS3Upq6biP3OtMeu0huKcRjBEEQhPZDBJAgCMIryCyuptNu8Wwq0G9bcztsPVOCNjnMncB4AHMllqoo6ApCQHIB7XeIounHPY3ut0FSjQF/7L+5E5TebP9Pe9HVBJAG1bLLPkm05Lwfmx4YHk97XzeIsPIXhhVwnDN53VRg/geW5Kj+JOSWU3Wt2F8LgiC0JyKABEEQXgHa4Lzj8ng2Y9R+l2YJLALJNJJbiIDddhEsVixVUdAVBIifacc8TLZQIZlHlWrd1WAKSSlikdERLmJdVQCZM7FAtOd1g/gJSS2iMx4JNPtkw1JWY9ftByV+flbnbdkFf/JPLGC3uCdKPAmCIAjthwggQRCEV4AqCqoptsHpXAUyNVNiWFHwTcjnZB8D9nWPn3BVoSX7ZrTZASyeMcOD54HpgakKgo7+2x3YjvqMewJlFHXcgs+uKoDq6p9SXlkNOUVk0cIzvuywhkqL4XFZ6ro9Vz/z5NkzXnaKHVKoKJ1yj6clSthgvsfwdXX0VecMO5uOOsXyuRQEQRDaHxFAgiAIrwBVFCTs4WnFtO1WqMmZEkTTigLmhjBg39rWKjZfqK6jqMwSNjLYfDOUxYOpCoIObTMdmNQxrmaariqA4HRXV/+kRS51lrhuT9TrQfwk5pXz+9yiflew8BTi50clsIy9LgIzW4c6cGZLEARBEAEkCILQInBX/2ZgKq25EkTD9zhxNQHzG4YJra4ojNjrxC5jsFp2jmxY3JmcX8E7bPLKa3gvDAJJNv4/ZlZSlZiIUgk7HMPOeSbScvV4tN313GxccCF06xv2x8AkAXuC4BjXUXRVAaTB+YUl9hYlJCESTbn5tfa66cDvBc4BdvdAxFz1S6aVlwPNXreGhawO3PqG1+no6yYIgmDNiAASBEFoAWiFQ6JrG5JBC8748twG5jeMJbdIpuEyhrv/2DeDpZvrrgXRQccouuidqJ4jnZdiIhzCs/g5L/sm08H70bTxRgjNP+ND4w+68eORRH9n4nUQg3fdp1Uq4Ua1KEUl6kiiO2L2R9PVBRB2BsHI4r46zyuUsDHl5odozXXTcSswjStvuG4Lz/rSRPU+B6lrYu66wZgBBg3nldBNzC3v8OsmCIJgzYgAEgRBaAHaFhsuXagOzD7pzeLDVEVBh64s4G7/ZJUcLzrny9bL2+6Ec2y5FcZtV9gRgzmUIXhOEwl600A7XL9t93ju55J3ElcqMDfU0XR1AaSvG5aLXvBK5IoLKnhtvW46Vl8JoqlHPVp+3ZQogniGW98pt3gKSimksgePXhytIAiC0BGIABIEQWgBGITHXAnmNODudd4riRae9XtlRUEHkmm0PGEGZYBKqIfsvk/D9zpzDFPJ+FD1/wftdFCJsT0/16sScx0wPZirxM8x5ziKSC+hipp6tl7uaLq6ANLXrUqJQ1TI7EIyaPmFV1eCdLzquumACG7NdYP4wWwQXAWDU4p4XgtzX4IgCELHIQJIEIQOAYPkdY+fckvSI/W/sPrF0sruBpsUVNVRWFoxnXGP57YqzJaYchmzZGDmCAYMw3Y7cRvecZc48onHEs/OG57v6gJIY1gJ6qzrhordAYdoco3O4eW23RXtVojPNMJS+5MEQRA6AhFAgiB0CEiSMESOeQwkftXddN+JTqRRCUrKq6D74Zk8YP8qlzFLhF50CtcwOMPdVGIiOrNUiTHL7K15XbqLADKsBHXWdbvhn8oVO3wGcCOgu6LdCvGZRlhqf5IgCEJHIAJIEIQ2wYnl8+f0SCU/FQ8fsesWRA6cs2Kzy9jVDAFbYQeVdGKfDlyvfOLzKDS1iGKySnmuBolxdkk1L/6sefS4y1eItBDCe7ULzeBFmnNP+9DIfc5sqWxuxqQlgcoBkmfsihm515lmn/CmHXfCyT40k89ZdW3HCwlDuosA0hhetz12kVxNG2Pjwm1upvY8tSaaXrcR6rrNOO5J226HsRtdV7lu5tC23vg8Yh9VWmElHzs+r/g8o30PVSyYeCDw3/gziPI49bnHzYGMoirKV+KoouYR1dY/FZMHQRC6DCKABEFoE7oVpkglShEZxeSoRM5ZjwTaZRtBKy4F0HyVXCLmnPLm2YepKlHG4sdZJ7x4hgXD/7gzftAxmi77JLMFdLpKnLp6hUhXFOAOl1f+UL33ErobkkH77kU1GCS0YMbkVaErB4N2OqoE2qtR+CDBzC2toaoucn66mwAyvG5I5u9HZNExl1h2ZXvVnqeWhOF1g/CBUxzmxrJKHnSZ62YOvdPIU30er/klq2vc4FC49EIAz77NUZ9dvD98phEQefiMLz7nx1bxO++Gs8kDRF94egnbhUMECYIgdAVEAAmC8Fpg4L685hFlllRTdFYp3wE+o4QPFkDOO+1jdg+KDogEOGjBaWvpeX/aax9Jt4PSKCCpgO8io6L0QCVjXb0ihIQ6XYkBr7g8lfjF0Ybrweo8eHPiP8bGlYbvcWZRBPMCDM2j7appoFowWCXN2EODasQUJShwHtdfC6ZjL3bSIIFG21RXmrXobgLIkDqVlOep5Dw4pZAu+STRtjthtEgl8Tj/Yy1w3WC/jbmjri58eOHvo4aKD6o9gckFdM0/hT+Pyy82OBQO3Olg1uwBLnc4JxCSc0560yYlms64J5CTEplRGSWUrX6Hyx9IRUgQhM5FBJAgCK8FxA/ual/1S6Gtt8M46ZtwyI1dzfqpZNHcHhQdSKaQVCGZhOUwWsiQbGEJKPar4O58ikqau3pFiBNIldhjJgetP7Cldo/J4aQf1QVUcLCvB9UwVMAg+JrG7BNetPZKEO2xi6ATrnH8ONx9x7wIEuhCJQRhIIHXef6vriMEu7sAQjWorv4Ju7Fh2WlMdhkvNIVb3El1Hdp63QrKlYCvfcw3DLq8gFe/t6jA4nOH6u20Yx78ecRepD5K/P3YAqc7tP9BBKGKBpv2Ybvv0/gDrjRffT9sV98TqPKiVU4qQoIgdCYigARBaBFIup88e8ZCBHdx/VWSeNItnrfm4+53S22AWxq4i4yEc/udMK4IoY0G1aDucudYu8VBvGHXCyo4MC4455lIR5xj6YBj9EuB5BmtUhBNmI1C8lxW/ajLVXwM6e4CyJAnT59TlRIs+B3HdXhTr5sGs3toX0UVF+1q++wjadpRD55jw64pY9fydQKCaNQ+F1py3p/dC12jcrjCix1I+KwIgiB0JCKABEFoEXooOj6njC56J9Haq0Gc9GLWoWFw3Hji87qhW2lwB3rmCS82GfCKz+s2d471sD3a95DkFVbU8uwOhu9TCytZGDUNCAkMmxdVPqTyB3VcNahXSXRXq/gY8qYJIFRpUK1Bte1Nvm4atLy5KfGGGZ9FZ325dQ2tfhA/mGcydi1fJ2Asge+JgTscubUQNuQXvJJe7EKSRbCCIHQsIoAEQXglL5sclHDLG4bFW7r5vq2hW+QmHnJjowS36BxOOrurjfabxpsmgKwF3ETIUcIOM2uY85l+3JOrPsauXXsEhBCqQafcE7iVtrvbgguC0L0QASQIwivR+z7QxrXvXkOiNHiXo8Vb3l4VeB3MCGGXChym7ganU2I3sRN+0xEB1D1B1eqaXwp/niYcdLN4y5u5gFMeRBCquzYOUd1+MawgCN0LEUCCIBhF7/fBcHh4ejGd80zg2QBzwgd/13OTLfVXCdWIPU40/oAbW1/PPO7FrlBzT3mzTTRsc5EUQ9SgmvSzSp7R9mbsOZvG0N1ObMd7NySdMoqrlUCTDfSdiQig7oWe+UHlB+LHXCUXpgbfq89l7832/LNj1Od10iE3mn7MQ32Ovdj8BIH/nqq+H8YdgHOeE7vm4XnxeGPPq0PP+mGeKkx9z1Q+rOcWREEQhPZEBJAgCEbRrW9YaIq9PgvP+vK8j7mqT8OwszMtUEnRrrsRdN4zke6FZpK3SrhCUoooLK2YgpILGx3SjjjFsmUwkiAkQ8aes2n8pJKqobvv09prQeSTkCcb6DsZEUDdCz3zg7a3CQddzd7QwE0J3JxAlUhbe9/wTyWXqGz+HMPtEAHb+nthGfxdAec8uObhc2puIbCe9cMOIdiQR2WWsAgSBEFoT0QACYJglLrHTymvvIZbU2AD/Ko7xbjL22uzPRsWoMKz9VYoJ0JwejJc3KnNATD4jCHywKRCsg1OZ+tdWF8j0RqAu8dmEqexB1zZhS5UCSpYcgudgwig7gHbtD96TDFZpep6RZud+cFnHfuPYPW97II/7b8Xxa2nED1wuoOQQjVJo/cpYdePS2S2+vwn0qYboVztxfeCuQrvYPX9supKIF0PSKGM4ir+rujKtuGCIHRvRAAJgmAUzP14x+ex8QAMCEzdKdab78cr4YJefsfwTIpIL+ZdONhdU1FTz45aeg+K3sSPqg07pKnXQeIES1zcRb7knUSLzvpx8mVKcCGQvGF+4LhrHO8vEToHEUDdA73nxy40g6u55mZ+WJBcDmT7b9+EfEpWogcOjKXVj3j2ztDmW+9TqqyBc95DXgqMytC9sEzaeTfcbIWXBZd6zbXXgnneUExOBEFoT0QACYLwEnrfDxLV0+7x3N+Pfn5jSQsqP7izi+QWbS9YAJlb9oBqVSLUWvT+lbjsMrrglcjJ1xgbV549wAyC4Wvr1hlsqYdwkoSpc8DyUCTJSy/4s1DG/IexWHrenxxUMgw7aQhioWNBxQZLTtH6hhZVw8+TDt1iCoe2K77JLGJepyVNV3qxTwkVoQMO0TwDaO7GxkT1XXLVP4WS8iv4BokgCEJ7IAJIEISX0Pt+0OqyWokQiB9UeAwTFV35gfjBMkgsRs0tbRA/r7OoVO9fqVLJVpZKkjEjtO12GE086MYOcM1eXwVEEAavYc0trnCdA5y70CZ5SollJNe4ZsbilFs8z4CJ3XHngEod2kzxecFNC8PPkw5tMoLlrnE55VzBfR1TAl3phdhFRSg8rZiru/hOQTutsddGDFHia/31YDY5QQuuIAhCeyACSBCEl0CrTKpKlm6qBAhtTcaSFARECcTPLtsI8k8qaDYT0FYKVNKEzfSbb4byHWtUgYw5SqG6gAT7fkQWP0boWCA6E5T49FMCGEII18FY+CXkU0ZRdeMsmNAx6Nmf4JRCWnkpwGTrW4MttQMvQ70ZkMrX1JI3FFBFQjUJS5RnnfAyWdntrb5XJhxyY8v9eHUMMgskCEJ7IAJIEISXKKysJafIbNp2J5yG7zXdKoP2NDhCof0sv/xhs5mAtoI7x2iXQtsUkjLctTY2RA0hhkFt2OjCVEHoWHTrImbGCisfsgg1FiVKIGP2R8+CCR2Dnv2BgcHM454sflC9NfwcNSwm9WPzkpisMosLVVx3VJOw9HS3bYTJyi5bbqs/X3LBn2+sSGurIAjtgQggQRBeAuYFaGnDXdp+RlyiIEIgRjAjgJkCS1d+NHqGADNBNveiWOQYS5j0LNDKywG8R0T2AgnCL8BtMTC5kI46x9JYG9dmnx9UVSE64L543CWODQjwmPYCN0tsQzJow7UQbrczPB4dU456kG1oBmW/aKsVBEGwJCKABEF4iYTcCm47gyOTsWFliJ9pxzzZ+QszApau/Gj0DAEc4u6HZ3KbG9rdDI9HzwJhjwj2m8heIEH4hUbBcd244NA3NGBSgeWoWHyM/V/tBYwN4Ph43T+Fb2oYHo8O2NyfwNyY2NwLgtAOiAASBIHRi0+xVwetMKZsr4cpEQKBhNa0ApVctTd6xuSqLxImD6NzQAhts4w2OGPuUWjBQSKFFj9LBIb5S6vr3pgWnWfPnlHdo3qqeVhL1Q9qqKq6ISqrHlB5RTUVl1ZQbkEJZecVWTzwvIUlZep1qhpfV8eDGiVo6x/TU3WOu3PrHAv65895vxYqLMZ+p14niqvqeL6mtv6pUfMRtJHCzRE3CPoZcXPkmZuDbrznB/t92hvdMhmQVMh7vyC+jLW28vfMLfU9E66+Zypktk8QBMsiAkgQBAbiB3McqKJgeaGpJaRIljDIjNY0zAm0Nzph8ksooIVnfE0uSOWZJG7hKTLawgPxg/kDzDdZItyic9j57k1xn4P4KSgqpdSMXIpPzqSYxHSOyLhUCo5MJA//CLrt6E2X77haNK7auvPzOnuFqNdJaHxdHSnqeErKK6lWHd9TJdK6K/oGA5J5tKQZ+516nUDVBjM72NEDEWQI9vfAqGTUfhfqudmu2eeGXdeuBfOMEKqt7Y12e0QVCK50pvYDwX1y7mkfOu2RQBlKxAmCIFgSEUCCIDDos0e/PZzXph017f6GhMUlKrvdZn9MgSrQxush7FRlzJYb2+b32Ec2ziUZggTxZmAq/8yOu+Fs8tCWQFKJNkBUnSIySjrd3rmhZfAZV0tQNUHVprCknPIKSygnv4jSs/IpISWLYhMzOCJjUykoPJ78Q2I43HxC6Ya9J529dp+OX7Sno+dtOQ6duU17j1+nTfvO0aL1h2jWir0WjTmr9qnnPUhrd57i19GvqwPHc9fZl1x9Q8k7MJKPNTAsjkKiEilKiTO8Fwi25PRsysjO52oSqlXllQ+ouuYhCzucl85CCx9UC+NzyshZfXaOusQa/Z16nTjiHMsue3HquY3dkECb6tqrQSbd38YoYQQhAjOT0gd1Lx7V/sDi+k5QGh+bMVts7Qa33yFKzE0EQbA4IoAEQWC0W9RtlZRMeYX9NZYZ4g52e83+mCKtsJIOOUabNEOAYx2EDRJMtAYZovegoLqF+QL8fFtihIrRKnnEolg40MECGiKos9AtbKiWoGoSEplALl4hdMfRm67ZutOJS/a0ef8FWrntBMe8NTY0YsZ66jtuOUfv0Uvoh2EL6NvBc+nrgXPoqxfx5YDZ9Hm/mfRx72n0/o+T6N3vJ1g88Lwf9prKr6NfV8c36nh6jFhIvdTx9Rm7jPpPWEFDp66hCfO30oJ1B2n1jpO0ce9Z2n3sKp26co+rSahWhUUnUVJqFle1cF46C11ZhQ21jUrmUdUYd9DN6O/U6wSeDzuYApMLeH7HkOisUm5pNeX+1tEVXU1JVR15x+Vx6x2qU4bH1WuzHY2xcaHddhG8FFUQBMGSiAASBIHR+3+wANGYAELbWc9NtrTsgj8nVR1NVskDuqAStUVn/diy1/D4cBd57dVgJeDSudpjCFqB9thF0pj9riq5ai6gXjfQvoOqGBI53EVvr0qQFjiYiykqLefZmZSMHIpLyqCI2BQKDI8jd/9wrpagaoJqCqoqqNrMWbWfxs/bQr1GLaavlKBB/LPHJPr1PwbR//fX3t0q/u/f+9Cv3u1Pf/x0BH3Ycwp9M6hBIA2ctIomLtjG7xfVKpuTN+nU5Xtc1UJ1K0idn0h1nlAtQpsfzl9RSQVVqvP56JHlZ4wMW96wCHbKEXeTs3WvG+YqOFGZpTT/jK/RxyKwGPVeaIb6zHSs2xosscPTS+i0ewKNVyLM8LhwnvCZ3nQzhPcBCYIgWBIRQIIgMOYEUM9NdryQdMedcErM6/g7subsc/ttc+DqzkmVaKYXNZ8ZSC2o5DvwpvaPvG5oG260DUIEtVclSM/oxCamkbtvGF2540r7T9zgCsjslXtpzJxNXB3pMWIRfTN4HldTUFX5hxI67/0wgf7+9Vj6/afD6X8/Gsrx30r8/L+3fjYqMrp6QAT9+zv96Nf/HMTv5XefDKc/fTGS3vpmLFeTUK36vN8s+nrQHK5qobo1fPp6mrvahjbuPUcHTt+iy3fcyE2dx+iEdG4VtPSMka78QPxAeOMzBVt5S4ofhLkKjjkBhM9MQGIBix9jJgrthTY3ueKbzAYmhseF8wQRtPSCX6fccBEE4c1GBJAgCIw5AdTZPfloa8PQN+Ye0PpjeHxwk8JxYy4ntaDqxaN+AS1w+LvJ6mf6GBm6bmtYqhL05MlTqnrwkJPyjJwCik/JpLCYJG7runnPi46ev0sb9pyhWSv20JApa7hF7F0lcH77yTAWBcYEg0RvFnwQgz2GL6Rh09fRzBV7ab06j0fU+bz1om0OJgyYKUrLzFNis4yq1XWof/ykVa2eHVX50aHdDyHwsWjWEHMCCC102J+F94g5so7C3PeNDrSYRmaUvHiUIAiCZRABJAgCYy4h6eyefHMCCEPeM497sRMcxI4h7S2ALFUJQtKNNi24op2+6sDzLVOX7KRBk1fRTyMXcfvaR72n8uzMn78cRb/9eCj91/sD6d/f7kv/5299jCb/Er252gURhGrRX74czefvo17TeMbpRyWKcH6nLN7BFTWITEf3QEpMzaaKygf0WImgltJRlR8dbRVAsMfG8tOOXiAsAkgQhM5EBJAgCIy5hKSze/LZNSo4ndZeC2brXsPjG7DDgRae9aULXomUZcQ2F1WrffciadxBV65mGT7eUoH5pCXn/emyTzJllzx48erNea6STSTWmEHBPIqu9Dh7BbNhAeZ3Ji7cxvMtf/tqDP3q3QH0f//ePVvWukP86r0B9Levx3BFbczsTbRq2wk6ddlBCaEgCgiLY1Gak19sVhBhzw9+VyHW8fvYe7M9fW9kz42lAvMz572S2Aq76mHrW+BmnvAiz7hc3iUEe+qOAi1w8Tnl/DmZeMh4C1xnzhwKgvBmIwJIEATGnADq7J587AKB29VsEwsdze0zwdzS1tthNHSPE/20qfk+FEtFSwUQkmgk07EJ6XTljltjpWfAxJX07eB5PL/z1rfj6PefDKf/fK8/z70YS9wlLBNsrqDO828/GsqC84OfptA3A+fwXNXkRTtow56zdM3Wg8Kjk/m6mUILIFjFL1XJe/9txm3bLRWj9rlwxRH7gLAU1RBzAmjKUQ+yDc1gC/yONEHAri5UyY46x9JYG9dmx9XZM4eCILzZiAASBIF5qAQQtsZDQMAZyjAh0THrpBf5JuYrwfS4Q4am9QZ9DEzvvBtucqEjbKl33o0w2XoGi+9jKtlaoJLBacc8uXWoNYFhczhuDd55n4Wg4ev/pP5sqBJh80750AGH5rbYhhWfyLgUbnM7dt6WZq3c2ymVHkMzgQZDgWH0ly9GsWnC20qAvfP9+Jfi/R4T6dOfp9OXA2a1KT7vN4PNCj74aTKbNBi+zt+/GUt/+nykEoDDWJT85sMhfJz/2cGVMF0ZQpsc3PQOnr5Fzp7BFJuYztfRsCLELXBKiGDp7lHnGCU+fPj3wnCBLyypIYzQHgc7dWO/cy0JiG3MGfklFvCuIUNQGYIQM7VAGBWks54JSiiVcBWoo8CMlEN4Jm25FUrD9zQ3NcFMHz6nR5xijba0CoIgtAURQIIgMBjYR8LuHJlNM457NUtIdGCG5lZQGgsKVI3aGz1UHpZWrBK5ABY/3xlpKUISedAxxmQiWKb+zF/9HQQeFqJibqI1Aact2A2vvhxodHEjnOk23gihG/6pFJHefDGqYcUHLW7Yw4OZHsyjdHSlhyseTeyktT02Ev2h09bShAVbadrSnTRzxZ6XYvHGw7TzyGU6cu5Om2L/yRu0xQZ7iY7zTiLD15moXn/gxJVsWgCr68/7zlTHObVBJCpRYuw9tUfoyhCEGIQaqnPDp6+jFVuP0eXbrs0qQvh9ffS4YQ4Ioh2/b2jjMhTO+G/82VwlmA+r3ytjv3MtCYewTApOKeIKKW5iGJKQW0Gbb4aaFO6Yp3vV/qz2AjdbzngksAlDfyMVXfwZKldnPRL5ZwVBECyJCCBBEJgnT59TVe1j8k3I58FjzC18a5CUIFCBweJPH/VzSPLaG7QU4W4xtt3DZc3weHTwLIRnIrfnGbuTXVf/lFvjMCz+OgGbYbi7XfVNpqXn/Vnw/LTRrjGRxZ14tA8i6cV8gwYuYqXlVZSUlk0efhF04qI9zV65j74fNp+rLcaS7tcJGCDACOG/3h9Av/1oCP3p8xH092/G0Hs/TqSPek2lz5SA+GrgbPp+6HzqOWox9R2/nAZPXk3j526h+WttOKFHwGHO5tRNXip64aYTXb7j+lLcdfLlmZiYxPQ2BRaVegdGsdkAdvUYvg5ef/fRq3w8q7afoKWbjqjjPMBGBYOnrKHeY5by+/hx2AK2u/6s7wz6QAk5iJS3vhlHf/liNBseWNruG+cYxhNfDJhFM5fvoYNnbpOrTxhf35KySrYrx84mLYRS8it5Lg0iCJUOtHYh8N/4s5OucSzMjf3OtSQyi6qoUH0+YIH9xMgMj7kFwhAaqIqiCoSbGu3tBofnx2carXnb75iu6Dbs9Qqi2+ozZWyvlyAIQlsQASQIAoMlkBiChuPSqsuB3IICZzPDxARmA4vO+dIF70TKKmn/O7PmZgV0mFvo+OyZSrzUn8Mp63UCA+aoLGFwG0nZphshNEyJoMEqUcP5wj6TOPV3holomRI//iExdPyCHc1ctof39MCOGeLHkrbVOjGHJfY3ShBglghVnIXrD/J8EXYGnbxkT9ftPMjFO4R8g6PJPzSWgiPiKTI2mWIS0jiwWDUlPYfSs/IpM6eQ27yaRl5hCb8nLGRtS1RUVlNJaQXvNoK5gOHrZGTns6iIT87g3UfR8am8yDQ0KpGP2ysgUr2PULpz34fOXHWgPceu0podJ7mahJmdYdPWcvXI0gtftdD83w+HcOUOe4YmzN9KOw9fJp/ASH4/EEHcuql+5/B7k5JfQXYhGbT8QgDP7CAgfmxD0ilRCebiylqjv3MtiYcqIO7x2TW2yBWzPZd9kpRo96NBRhYIo3Vz2O4Gc5PIzJJ2d4NrahKBCo+pii7mf/bbR5JXXC4VV3VcZUoQBOtABJAgCC/Bbmkq8Rh3wJUdrAwTk4bhZBfaciuM5xyqTdx5biu69S21sJIuK3Gx/GIADdrZPIHTblGLzvpy9crUnXBLoRc4orUJd6ghfq75pbBwbFp5qq2rp9yCEq5y7Dt+ncbP26KS8cmvPeOjE+///sdAbpfDjA4G9bHw9NvBc6nPmKU0ctYGbh9DxQTVE1RRbmPHjV84hUUlUWJKFuUXNiTo3R1UWfA+SsorKSUjl3f4YDYH1aSz1+5zFQvVozmr9/HeH1SLUP36sv8s+rDXFHr7u3H0h89GtLlCpGeEYJaw49AlnuvKyi1sVglKzq+kc56J3I629VYonfdK5D9Dm2R7Cg6IK7foHNptG0Ejlagw9vlBFROzfTBDQLuZsVa6tqJn+UqqaykwueCVNzRQeYYz3EXvZJMLXgVBENqCCCBBEF4C7SbX/VNp5aVAbu0yTE6+W3eXRRDsc6/7p/Ad7KYtX5ZC71PxS8ynjTeCacTehvYhw+NpEGTOtP12GA98m7oTbil0q2BGUTX5xOeTd1weYfFqRc3LNsIQPzcdvLitrPeYJTzUD/HyujM+usLzfo9J9NOoRVzdQcUDQ/kXb7nQPdcA8gmOZivtmMQ0rp6gipJbUEzFJeVUXlHNO4YgzJ6qxLy701BheUb19Y/pQU2ten9VVFhcRjn5qB4VcBUL1ayImGQKCIvlqheqX5g/Wr/7NE1bspNFY1srRHpGCLuFYKG9YO0BtjI3rASV1zyiWJXMByUX8jxbcn4FC2YYiTxvx5YzLdhRoYRpguHnBwERNFx9vlAFslMiKL/84YtHWw59QwM7xODmiDZbY7M/2hxi7ilvFm4lVbVclRIEQbAkIoAEQXgJbjlLamg5QxXI2BwQQg/93w5KY5taS1WCdKJUWPmQglOLeFAa7W24S23MxarBdtqPLnknUdYrbKctDQu0qjpuz3nUJEFD0ltQVEZuPmG0bPPR15r1aUiqB9AfPxtB730/gT7vO4MrGCNmrqc5q/bRpn3nuLqDigfawrJyCpu5kQkvg+uC6hfa/Nx8QunCDSfaeuACn88hU9ZwdQhzRO//OFGJmVH0mw8H078p0Wns+hgLbSoBI4lNe881qwRp4VyhhNCDusftXvnR6N9Tj5hcWoiWs012fBPD8HOE3VgTDrmxIQJcHg1NPF4XXfmBa2R2aTWbLaBqihkfY6YM2k0R3y0RGSUddp4EQbAuRAAJgvAS6NHHHWD06OMurCn7XJ2ooDWNRZCFKkG68hOcWkgH70dzaw7mjowdA2KMjSvbW2ObPcRbR6FbmwwTtILiMnJwC6S1u07TD8MXtnrWRyfSGOTvO245z7TAMe3GPU/yDIik8NhkXsqJGZ1CJbQgfB7W1rHZgiSKpuGWubp6qqyqocKScsrMKaCElEyeKUKLIKpDe45do4XrDvL8EEQnrLeNXSNTgWuH6/3VwDnNKkF6xg6/37hR0N6VH43+PY2G6cDtMK6WGqukwvQEImjyEXdeGGzKTr616BsamEVyisyi3XYRNP6gq8kbGtr9DTc+YH/dUedJEATrQgSQIAgv0dKESYeuBN0MTOMWn7IHdUpENSTjuPvbUp6oRKe67jFlllSTf1IBJ0Czlfjpu+0e/bCh+R1rTtg227ODFRziTJkfdBRPVVJb87CO3c027z9PP49dxhUcY4ly02g6VP/Od+O5gtBPCZ/pS3fRjkOXeaYFz/mmzO50NfQsUb4SKsERCXTbwZvnhxZvOMxuc1/0n8XX5bcfKyH7tnkhqwXst4Pm0q4jV8gvJIZdADubHCVArvqlsBGDsVk6HX233mO3xb32kdzimasep6u7rWktxecfN1NwMwNtb1gMC/Ez/bgnf6aNvTaqzbCzb1jsKuYHgiC0HyKABEF4CT2zkF3ygN3OMOhvbO+NDl0JWnTOj4e84dgG2+rWuklB/CTmldO9sAzaqoQXNtSj8gPxg7kAw9fllp2DbrRHJVXRmSUsfjpiMaspamrrKD07n67ZedDQqWuV+BlJ//FOf6NJctPQsz2wVZ6xfDfZnLxJDm4BjaYFOXnFPL/zpszudDX0LBGqQ2UVVTwzlZKRw5Wh+x5BdOTcXTaW+H7oPPqdEkHGrqFhQATBGAH7gg4oMQWThs4G80Yw6oDdNSzjDT9POuD8CBE08ZAbOx1iHrDB2r11La7a7S1AfR9g5mfl5UCu/Ji6oaFnf2af9CbH8MxOv6EhCMKbjQggQRCMohMmzNbMUUnJzyZssXU0zOL48+wQlqnisdhTgkQG8zyoDMHNCUKn4uEjvjMMoQQrbQyEwxnqmn8Kb4Yfa+NiskUGd4lR/Rm511klaKFsL9weQ9utpbS8knyComjbgYv06c/TjSbGTQNLT//61Wj6UgmfodPW0LItR+nSLReu9pQ3WawpdA5NF9diL9HqHSfZTQ6ue7hu5tzj8PewO5+lxFNAaGzjLFBnoWeBUNVZdzWYK7fYY2X4+dLRYC7iQisuNVi8YwcWhBA+rxA2xeq58B2BZcgIfLbxmYaJClrXsAzYKSKL21Pnn/YxOfOj45cbGpFsZiKzP4IgtCcigARBMArmFeBsBseqAw7R3BaDO8PGkhcE7t5CBME4AbNDG64H03GXWLoZmMrtLxA4cTlllJBXwcPNsKx2CM+ki0pgoYqz4lIATTvmQcP2OFEv7AYxMfMDEQYxhtY3+9DMdrPtbS1ZuYV07oYTTVmyk97+brzRpLhp/O2rMTR61ka2Tr7nFkDRCWn8HOWV1WJm0AV4rpJvXIfK6hq+LhGxyeTkGcwVupEzN5h1j4M4ggjqN3453Xb0apwF6ix0ayvcC22D0xv3WBn7jCG02yPa5VANWnrBn/bfi1Sf10TeX+QVl8dCJVWJHURMdhl5xefxMuAjTjHq8x+ivgd82Ooacz2mbmjogNiyUd8zeF4sdpXZH0EQ2hMRQIIgvBIMQrtEZvMeEdyhNeUipQNJDpKdwbsc2Sp79ZVAdpY64hxDl3ySeA7htEcCHXCM5mrP4nN+XPEx1RrTNFD96b/NgWYe91JJViwvJe0qd4phO73zyGXqN2E5/enzkUaTYgSssP/RY6JKotfTwdM3yS84mkrLKl88i9BV0RWh8OhkOnz2Nk1etJ0rfebc4jDTdfyCLS90hQ15Z6NtsdHeuvS8P1vdv6oyo0O7xGEJ8vrrwTync8EriQUP4oJ3Eu13iFKf9yB2bTRX8dGhW2hXXw4k16hsaX0TBKFDEAEkCMIrQTKCeSAkJxuuBZs1RUBoEdRPiRoIIewYGaNEDu4kYxfJuIOuPOw8fI8TDdzhwBUfU7M+OvSMwGT1+FNu8RScUsQtPV3lTjGc2dbtOs12yq+aFUFb1OKNh+ianTtFxadSiRI/2GUjdG10RQgVutSMXLp734dmr9hr1i3ukz7TafvBS13GDEHbcePmwVXfZBYer5rx06Fd4jCXN0QJFlRscENkyhEPDoijUeozPVg9189b7c1WfHRoE5U7QemUVlDZ6bN8giBYByKABEF4Jbp1Bn39NwJSOVmBCEElBoLEWFJjyUAS1XOTLQ1ViRUqP/vuRbHRguH+nc4mNjGDVm47wXf8//ejoUaTYQT+/tgFW4pLzqCqLlAREF6PxNQs2mJzgXqNXkJ/eIXb34c9p9CaHafI2TOECovLXzy689EzfhBBqAShHQ43Nkzt/bJU6Bm+n5WYws0U7ASC+GkwWpAbAYIgdAwigARBeCXaFQ7LG2Gli9mdw/djuL/f2CZ3S0fDMLYz36lGogSrbQxgd7Uh6ZYKoG8GzaEzVx0oJT2XHtSIzW93paUC6J8/TWaDC3tXf7ba7iroGT9UgtAOt+VmKI3Z72Jy75elQs/wTTvqSQcdo3k+EGYpMFGwxCJlQRCEliACSBCEVlFaXUe+8fl00jWe7xyjtQ1tMeZmg1oa+g4xdvzgrjSqPptVcobqE6pQXdUdKi4pg53Cvhk8l22tjSXDiI96TaX1u8/wQD2WmdY8rKWnT7tOJUswjrbLhmjNyS8mR48gmrt6P7vCvaoF7oOeU/j3Ate7sLjsxbN1HfRMkH1oBm27HaY+b57ssGjO9bE1gc80Zn3Q7jrhoCstPudLh+5H880UmfkRBKEzEAEkCEKr0Ha6uHMMu+tjLrG05Lxfi2aDWhL6DvGkQ+609VYYXfNL4XkfVJ9Qheqq7lAJKZm0ce9Z6jFiIf3+k+FGk2EEqkOoEiF5vuvk+0IE1b14FqGrohempmTm8q6nJZuO0NeD5rD4eZUJwmd9Z9CeY9d4yWpZRfWLZ+s66JkgzPmFphaxoQGEkDnXx5aGnt3DvN+yCw02+aj6xOeUUXHlQ5n5EQShUxABJAjCa1FX/5TyymqUOClkdzckTQvO+LDRAcTQkF2ObILQZ4v9K6PvVnu+M4xqD1pwkHgtvxjA1tuO4VndZjYgVSXGB07fpGHT1tFfvxxtNBlGYEnmr97tz4nx8i3H6MpdNwoMi6OMnAKqqHpA9Y+fdMkKl7Xy+MkTvi64PiFRiXTpjivNW2tD3w+bT7/7xLTZxf/5Wx9ecttj+EK6cNO5ywtdLYRSCirpfkQWuyyuvBRI09TnEdb2DYYljiyKjH2OdWC2B/OBcJdDJWnSIXead8qHq7iXfRr2CWFvl+z5EQShMxEBJAjCa4G5oLr6J4QFp1iOGJVZSu4xuVyxOeAQRWuvBtHsk15smPCqQMsN7gyj2nPMOY5uB6VTUHIhpeRXUoFKlLrLbEBeYQndcfSmResPsdObsaRYB0QQ7JMxH9J/wkpatOEQnb7iQJGxKWy1LHuAug4QP+ExyXT5tist23yUBk5aRR/2msri59/f6Wf0+iIgftAKOXzGenL3DevyrY7Pn/+L54JQZcWCYnz+sAPMKTKLTrvH8w0OVHrRkjr1iIfRzzJi+lEPXny65koQ7bOP4kXK7tE5FJVRQhlFVdxCq6s+sudHEITOQgSQIAgWQbfGJeVVkE98nhIyaXTSLY73/bwq0EKHTfP3w7MoOLmI0gureLN8d6NhR0wSHT57h34auYiXYGIZprHkuGmghQpzJBMXbKNDZ27TfY8gbpdKSs2m3PxiKq+oprq6epU8P+MkVWgfdIsbBE9uQQnvdYLwcfQIpAOnb9GsFXvpy4Gz6bdmhI+O3348jL4bOo/W7DxJsUnpL16l+6DdHwsrayk8vZirQqj0HnOJo0P3Y4x+lhFYgnrOI4GNFbxi87qsaYkgCNaNCCBBECyCTpjQrgaLagw3pxdVcUvNqyKtsJKyS6q52lNWXUc1L+Z8uht6R4yHXzjNWLab/tljEv1aiSBjyXHTwPwIRNBb346jL/vPokGTVtGcVfto5+ErdPOeF4VEJrJ7WK1Kzp+qJF1oHyB+CtR5Do9J4vO+88gVmrF8N/WfsIK+HjiH3v1+Av2vuk6o7KC9zdi1bBqo7q3Ydpwc3APV83Y98wNzaPfHOiVcymsecVUoq+QBG5EY+xzrgKNbZlE15ZbWULEST7DbhviRio8gCF0JEUCCIAgWBLMeR8/b0ri5W+gfPSbTf747gP7v381XgnSgcoQWun7jltP8NQdo7/HrdOOeJ3kFRlJkXAqlZORQdl4RFZWWU1V1DSfuqF4ILePJk6e8f6mopILPY3J6Di+k9Q6MolsOXmRz6ibNX3uA+o1fQW8rUfqrVl6/X703gN76ZhyNnr2Jrtt7ismFIAhCF0QEkCAIggWpVsl1fFIGnb/hRMOnr6e/fTWGk2JjybKxQNscRNAfPxtJ7/8wkdvjfhi2gGdJlm46QvtO3KDLd1zJzSeMYhLSuGoBESS0DL4+yZnk5humzqMbO7QtWHeARs3aQL1HL6Ev+s+i93+cRH/6fCT96n2IH/PVnqaBSt7kRdvp5CV7ik1MF5tzQRCELogIIEEQBAuiZ0milTjZfewqjZi5nj7uM41nQv79bfOzI6ZCzwoNnrKGZq7Yw7uEjpy7SzfveZKHfzg7lEXFpVJCShZXHTDHUlxaQeWVD6i65uEbXynCjBQqLZiZKiwpV++/mDJzCnnhbIwSImHRSey2d989kE5ctKMNe87wXE+DqcGUFs/2GAuIpF//cxC3yY2YsUE9vz2/Hs69IAiC0PUQASQIgmBB9MJMJOLR8alsc822yUPn0e+UCDKWQLck9KzQn78cxYn2R72n8j6hn0Ys4rmhCfO30oJ1B2nz/vN04pId3Xb0VsIoghPxpNSsN75SVFNbR+nZ+RQSmUAuXiE8x3PuuhPtP3mDVm47TlOX7KShU9dSz5GL6auBc+ijXtP4PP7581EsXlo622MY2tb8497TaN7q/Vz5gxDFPJi4+QmCIHRNRAAJgiC0A7oSlJKRS9ds3WnV9uM0cNJK+uCnyUoIDX3thNswdAL+x09H0Ic9p3CCj/kj2HFv2neObE7epFOX79ENe09y8wnlKghEUaRK0qMT0ikuKZMdz1Iz8ygzp4DnYhC6goTlnXBGw7yRsWhpi9fz589ZENTWPeI2NGPPhahQwqGkrJIKi8vYBU8fD6paqG7FJmZwQGSg6hUYHkf+oTHk7BXM+3YwM7V25yme45myeCcNmbpGCZ7Z9LevW9eKaC60zTXa5eD6N3+NDV1X1zkuKYNnjARBEISuiwggQRCEdkBXgh7U1HICHxQRT1fuunI14ruh89vUcmUYEEF4LlQyfv/pcPr712M5MUdV4vN+s+jrQXN4jggzLqiCoBqCahH22qzbdZp2Hr5Mh8/eprPXHXm+CKErSMGRCWy+gDYyY9HSIX+IH1iFQ9QkpmYbfS5EWEwy+QRFsx04zB/08Zy4ZE+b919Q5+8EB44fVS+8H+xS6jVqCX07ZB63CWJPz/s/TqS3vx1Pf/liNP3vR0NZ/LTGzMBcaJtrOPadu36fhSUEJEQcjBYEQRCErosIIEEQhA5At2g5qsR+7a5TNGz6Wvpm8Fx674eJbHjQ0r1BbQ0IAVRDMPfyed8Z9L0SY/3GL6eRMzfQlMU7eC4GoStIqKhgPxGc7YzFhRvO5OwZTP4hMa8MTyWm7rkGcDXs1BUHo8+FgAvb1gMXadX2E1zF0cczft4WJXIWc9sfAtUuVL1a69L2OsFVNnXe/vjZCDam+FK9/rBpa2m1Osartm6UnJEjNuWCIAjdCBFAgiAIHYAe0sdOmNikDHJSogELNtE6Bcvrlu4Nams0JPP9uVqEmSJUMv74+Uj661dj2PYZczEIXUH6rO9M+qK/Eh0D5xgNVF1Qfemr3sOros+YpTyv9IMSXN8Mmmv0uRBwYfukz3QWOBAb+nhQ1UJ1C9UcBM/tvNOP34+x92mp0C2GsLbG+0Dl6dgFO7rvEcyLUlHdQ5VPFtUKgiB0H0QACYIgWICmLW85+cU8V4P5Gj1jgz9rmiijHSw8Oolnc3YcukSzV+6lgRNXcrsaDA5gpwxx0to9QhKvHxA7//FuP154+pcvRrEAQ7UJAnX60l3qOl2m2w7eFK+uKa4f2vr0XqF8JWyT03IaZ5Tw3/gz/J20xAmCIHQtRAAJgiBYgEbTg8xcumbnQTuPXKF1u880ztig9QtLTHWrFJJnOIXl5BdRYmoWBYXHk6N7IJ256kgb957lXTLfDZnf6j1CEq8XutIDV7gv+8/iFreF6w6yiYSDWwCFRSVRYkoWzzBhzqdeXb9nz5837hW6p34GO4X0jNLuo9fI3jWA4tTfiSmCIAhC10IEkCAIggVAe1tqRh7ZOvvRog2HeK4G8zV6xgbLNm/Ye1B8SiYnzYZok4DU9Fzy9Auns9cc2c1s0sLt/Hi0jX3683T6x4+TeIbn958Mp//+x0CLuclZS+hFs2inw3l8v8dEPq+wKR8wYQVNXLCNlm85xrNIqPaY2ufzi8tfDl2540or1GNQwdMzSgPUf+N58HdpmXmNgkkQBEHofEQACYIgWAC0uKHyA/Hz7eB59KfPR/LeHz1j81m/mTRRiZmjF2wpLSvvxaN+QdtEo02uqLScMnIKeFbIPzSWHNwCeb/MriNXaMnGwzRu7mbqOWoR/aPHJIu6yVlDQPzgvDXYhW+mxep87jxymc+vi3cI7xGKSUijlPQcrvaY2ucD8YPdSo7uAVyt++dPU9Q1H9U4o4Tr/8+fJrMVt7tPWGPLnCAIgtD5iAASBEGwAJjzQSLdb8JyTn5NJd5zV+2jiNjkF48yj64MwW4aVsu2Tr504qIdbdp/juas3kejZm/kCtGPwxbw/NBnfWfQBz2n0Hs/TODBfdhA/+6T4fQ/HwzmVro3rWKkKzoQHb9TYvBPn4+gv38zht77cSJ91GsqmzhgDxAqcT1HLaZh09axdTUc7o6r83hXnc8AdV5bauetqayq4V1KcMiDK5yxY0N8o67JmasOSlDlsrgVBEEQOh8RQIIgCBYAcyCY90GijcqPYSKsE3Uk4Ei4W4quDCE5Ly2voryCEq4g4fXClZBChcjNN4zu3PfhRHvPsau0ZsdJmrfGhiYv2sGzLD2GL6RP+kxrMFZ4wypGWlhCaPQYvoBbzyYs2EoL1x/kWar9J27QyUv2dN3Ogys8AWGxFBGTrM5fhhI9eZRXWEJl6ry2dKGrBm5+sPVGm9sHP00xemyIj3pPU8dxjjz8wnmxrCAIgtD5iAASBEGwAHD+wvA75j9QjTCWDCP6jF1GvsHRLx7VdvQsSkl5JaVk5PLiUuzlgbvc2Wv3eZZlw54ztGjDQZq2bBeNnrOJBkxaRb1GL6EflTD6bsg8rpB8OWAWh64gYZHou9+Pp3cM4q1vx9JfvhzNO3HQ3qdbvlobqNbAaQ321rDfNnwdXcH59OcZvNxUH983g+fQTyMX8XlE6IoO9gbhfe4+epVOXbnXsMhViQ5tXpBfWMrnyVLA/hoLWrGjCDbdxq41AucRZgqYJ8pV4lUQBEHofEQACYIgWIDOEkDafru+/jG3WJVXVFFhcRm7y2VkF/AsS1xSBkXFpfBAf1BEPPmFxJC7Egd2Lv505a4bnbxsT0fO3eHQFSQk7bOVsJi5Ys9LMXnxdhoxcz31fWHyoIf+WxsQX0OnreVqzbSlO5u9jq7g4HgOnr7ZeHznrt+n+x5BfA4RuqKDuR28T7QiZmTnK7FRTMUl5ep8VLPpRG2dZReVtlQA4e9mr9rLC1PxGEEQBKHzEQEkCIJgATpLAL0uerYIg/6JqdkUk5jOoStIqFhctXXnJL9pnL3uSIfO3qYdhy/R2l2naMXWY68VqNagOoVqzYWbTs1eR1dwgiMSKFKJN318rZ3VaS9aKoBQzYKgw8+KABIEQegaiAASBEGwAN1NAOnZotq6R1whwW4bhK4goYKChN0wMnMKKDUjl3cXxUKUJKS9VqBag+oUBE1mTmGz19EVHMznQKjp42vtrE57gWMUASQIgtA9EQEkCFYCdpDUPX5KNY+eNIva+idU/+Sp7ClpA91NAAltQwRQx2Lq++uhikfqz588faZE/b9e/LQgCMKrEQEkCFYCkoe88hpKLax6KdKLqii79AGVVNeyCBJeDxFA1oUIoI7F1PdXZnE1FVXWUnVtPYsgQRCEliACSBDeEHgY/vlzeqRETMXDR5Rf8ZDFTUJuBcVklVFgciE5hGfSrcC0l+J2UBrZhWaQa3QOBacUUWx2GaUWVFKOEkXFVZJYtBQRQNaFCCDL8lx9fz159owe1j+h0gd1lFtWQ2lK4Jj7/rINTifnyGzyTcin8PRiis8p5++vXPX9VVpdRzWPHtPTZ1LZFgThZUQACcIbwrPn/6L6J8+oSImWiIxisg/LoGMusbT5ZigtveBPc05507RjnjTliEezmHrUg2Yc9+SfWXU5kGwcouiqXzJ5xOZSYm65EkGPX7yKYAoRQNaFCCDL8kSJlOq6x5RZUk3+SQUsbo44xZj9/pqqYrr6c/z9kvP+tOF6CB10jKbr/inkl1jAN4HQKicIgtAUEUCC0M15/PQZldc84sQhOquUKzlnPBJo080QFjVDdt2nHhtt6Zu1d1oUvbfY04RDbrTsoj/tsY9UQiiFAlRCkl5YxXdUa+ufyh1VI1ibAHry5ClVPXhIhSXllJFTwPbTcUmZfB6MBRa3wjwBi1zxuPrHT7r1zJkIoLahK9ZobSt78IjSlFAJSimkuyHpdEgJn9VXgvjGTEu/v75bd4d/buAOB5p82J1WXgqgw/djuEIUmlrMrXJ4Hfn+EgQBiAAShG4OxE9IahELla23w2jeaR8WMEP3OFHfbfc4KUByYCxpMBbfr7/LImjgTkcauc+Zk5DlFwPoqHMs31FFawqSCOFlkORbkwCCcxxEjbNXCJ2+6kA7j1yhdbvP8DkwFhv3nqMDp2/RbUcfildCCc5ucKHrrogAahu6Yl1Q8ZDb2y75JNGaq0E0RX3fjLZxocFK+Py81b5V31/4uR832FIf9f01SH1/jdnvQrNPeNH6a8F8UyhAvY58fwmCAEQACUI3Q985RW87zAv8lSg56RZPy5RIGbHXqdWCx1z8oARR3633uM0Ed1Rdo3IoKa+C76YigREasBYBhKWrdY/qKSUjh66opH7tzlM0ceE26mdmMWqP4Qtp2PR1tGzzUbp6152i4lKpsqrmxbN2P0QAvR561gdziikFldxme9w1jpZc8OebLsa+g9oS+D5EFQk3hnATxy06h1+38mE9V88FQbBORAAJQjdD3zlNLayky77JtPZqEE0+4sF3PHtusrOo+EF8q0KLINxRXaGE1gWvJDZMgAgSGrAWAQTxU1BUSo7uATR50Xb6sNdUeuvbcfSnz0fS7z4exu/dWPzuk+H0ly9H09cD59KMZbvp9BUHysguePGs3Q8RQK+HnvWJyymj816J3OqG7y+Inx+VWDH2HdSWwPchRFD/7fdorI0Lzzhe80+hqMwSFkGCIFgnIoAEoZugKz9wZYPLkX1oBouR1s74tDUG7nDkYeNT7gncegcLWuzhsHZaKoB6jVpMrt4hLCRQTeluYBEpZnnOXrtP3w6eZ/Q9viogklApWrvrFC9D7a5gISxa/1D9ggA09l4REEezV+2lq7ZuVi2AdOUHc4SRGSXcsrvkvF+Hf3+htW7VlUBuuYtQxyH2/4JgnYgAEoRuQmPlR4mfi95JPJfTHi1v5gI99hBBM094sVscTBcggqydlgogJP/X7Ty4igIR1N1omP3JoOOX7OjrQXOMvsdXxf98MJg+6TOdFq0/xG1w3ZXk9Bzac+waDZy0iv78xSij7xXx/o8TaeG6g3TbwZtyC0pePNr60JUfiB98b0w/7qnEiGOHf3/h9SCC0BJ3zCWOfBLylQiqe3GUgiBYCyKABKGbACtXLP5raeUHSUXPTWj9cGAzg4mH3HmOZ/ZJb5p7ypsTAATsYyFmYCk71saVn7f3Zns2Q0D7m7HnRui5oAOO0RSWXmz1PfWoZqzecZK+GTyXfvuxaQH0Ua+ptH73GXLyDKb0rHyuqDx92n3uQJdVVFFgeBztPnqFPus7o/F9/d+/96H/fLc//eHT4fRBz8n0eb8Z9HHvafT2t+Pov94f0Phzv3pvAP3t6zE0ZfEOCo1KfPGsXR+uwD57Rg9qaiknv5gcPYJo7ur96n3OpN98OKTx/RkGWgTX7T5Nrj6hVFRS/uLZrAdducbMD9reYK8Pd0pzwgdttz+r7xh8H43e70KTDrvTLPU9pb+3dOD7DN9DEw+50Sj1PYdW4F6b7cx+f+F7EY/H/BHcM2XfmSBYFyKABKGbAMMDzPy0tPKDeSAkBIvO+pKNA/ZipPIAcFByAYWlFfGdWATa2Lzj88guJINOqmQAjkkTDrpx8oEkxNhzI/RcEAQU2kmsvac+ISWTNu49Sz1GLKTffzLcaDKMQHUIVSIkz3edfF+IoO5zBzq/qJRsnf1oyaYj9M+fJje+r/9UwuavX42h3qOXshDcf/IGbbG5QFMW7VAiaHzjz0Eo/eq9/jRkyhoKCI198axdn0bzh8xcumbnwe8fFTCIn397u2/j+zOML/vPoiNn71BMQhpVVXdf04fXRVeuYTyAmR+0vaHyY67qg+8f7P1Zp76PDjvF8l4gLDvV31s6gpILySUqm675pdABhyhacSmAxh1wNfv99eOGuzwXtFB9P94MTJV9Z4JgZYgAEoQujt7zA7e3dVeDXln5wR3PXpvtueKDKs/WW6GcdPjE51NKfiWVVT/ieZ2m+1eePH1OVeof/uySBxSqxNDd4HTaax9Ji875ciLRf5sDt70Zez0Ejmft1WCVRKTxrg3cRX2ukh5rI1UlxgdO36Rh09bRX78cbTQZRrAAeLc/V0+WbzlGV+66UWBYHGVk53N1pb1ngxpMDMooMTWbQiMTWYSERCawpXVxaUWz13/85AlVVD2gvMISfo9uvmG0VQkbCBiYGuj39Vsl7L4eNJfmrT3AAiksOom8A6PI5uRN+kKJgKbnAPHVwNl0/KId/xxeOyu3kMorq5u9/qP6x1w5SUnPobAo88drafT7x66jEPX6l+64qvdoQ98Pm0+/+2RYs/el4//8rQ/9uxJGPUctphv2npRf2D1bHtsK9vzklddwqywMCFr6/YUbN4cco/n7KCCpkPeQGVtoCnFVUlXHzpQ+8XkshHbbRvDjYdpiTggN2+NEm9X35L2wDMote8DfjahaCYLwZiMCSBC6OHrPzym3eJpyxN1k5edb9WcQKuMPunGPvWN4JkWkNywALKmqpQdK5NSrZARLADGQrIFYgch6qJILuLqh0hSbXUbOkdlcOZp7yofbRQxfT0dDpcmFttwK4+O01lYSCIQ7jt482/KPHpOMJsU6IIJ+8+FgrqD0n7CSFm04RCcu2bMQau/ZoILiMnJwC6TtBy/RhPlbadCkVTR2zibasOcMefqHN3t9JP/hMcnqvfnwHp/5SuD8MGwBz72g5U2/p799NYZGz95IB9XPRMenUoUSMyVKoNi7+NNPIxe99P4RqJKhWjZ1yU6unF246czCxvD1IXIguvaduM6uc+aO19Lo93/5titbeGPmB21tED///k6/Zu9LB8QPWiFHzFxPngERVFtXrz571ve5wHwNKswHlZhBm1pLv7+cIrIoNquM8spqqEw9R03dY6MLTFFhevT4GVdvitX3HL7vYrJK1fdfFu28G8HtcahUG76eDrTLjbFxoR13w7kVDoYITW8QCYLwZiICSBC6KLp3Pqukmq74NbS+ob/d2D/iuHOKO53ok99xJ5w8Y3P5bmZtfesXTeqEAgsDveLy6LhLHM0/7UODdxq/c4tkBn+OOaJbQWnc6vJAJSvWBhZ7hkcn0eGzdzjh/+9/DKL/99bPRpPjpoEWKsyRjJu3hXYducKLQgOUEEpKzabc/GIqr6imOiTPbaysIQHHED7ExNpdp+nnscvoj5+NaEzUIUZQ2bnnGsDmBBjyj1JCBotOD565zcIOe3xMzbxA9C3eeJjb+iAGNcERCTR61kYWfE1bxXQlDMIJrz1t6S7ae/x64/uHqQSqPIYVJ8Pjve8RTCkZuVT14CE9aYObl25xg+DBeUpKy2bh4+gRyMIPdtdfDpxNvzUjfHT89uNh9N3QebRm50mKTUp/8SrWg3Z9g2nLafd4nrcxdSOlPb6/UNF2icym/feiaNpRD5OVIP39NfukF1eBcAPodV5XEITuhQggQeii6N553JXcejuU535QbTH8B1zfOUXycMI1jlvlcl/8I27sjqk5Goa9n/PjcUcVffaXfZJo9Yv2FcPXRyCJQNvKNpW83I/I4u3u1sbjx0+4hcvDL5z33PxTCYJfKxFkLDluGhAFEBR//2Yst8X1n7CCZq/cRzsPX6Gb97woJDKR525qVXLelgoCkvqbDl5cxfhx2EIlfkbSf7zTv7FVC2IIMy3j52+lbQcvscPZgnUHaMSMdfTdkHkscP7y1Wg+VmMzL5/+PIMFHKpYZeVVL16VKCYhnV/zc/XeDIUTGye815+rQe98N57FlX7/mCNCZciw4mR4vBAmV23dKU6JJYig1wXiB9Wk8JgkPu871XuZsXw3H8/XA+ewnfX/quPHa+MYmr4PY4Hq3optx8nBPVA9b9mLV7EetOsbZnTw3QHxY6yVtr2+v1DRLlTfQwFJBSyCXlUJwvcX5iV33g0n56hsKhRXS0F44xEBJAhdlEdPnlKREiAwLkAFxlTrCBzbMKuz7XYY+ankAaIFj7UUMDaACIL1NlyYtEOc4XFoV7gjzjGUUlDB1Str7KWHqcHR87Y0bu4WJRomq6R9gEr0zVeCdKByBLHRb9xymr/mAFdFbtzzJK/ASIqMS6GUjBzeJ1NUWs5D9UjcXzUDoys/qOQs3XzE5OyKrsjAta3f+BUvWr2mvLLiwY95bwCLkcGT19DVu+7NTB0w23Tikh1NXLCNRYG586Hf/zeD5nKVx1TFSR/vJ72nqfNkQxdvOVNsUobJSlBDYvyMHj16TJXqvBWVVPB51JUuzCvdUgLR5tRNFl04BzgXv2rl9cP5eOubcTR69ia6bu/Z7UwuLAXmddKLquh2UBo7TBp+X+jovcWeTVdQ+YH4sfT3V7ESM/gO3WcfyS14DcuijXx/bbvHVexjLrFcxZZZIEF4sxEBJAhdFAgPLOo765HA/3AbEz+IEXudadfdCJ7ZySp50MzkoK1gPqiipp7nezBcPFElK31U0mJ4HNoVbuXlALbFttZeet6ToxLx8zecaPj09dzihaTYWLJsLNA2BxGACs37P0xkAYAKyPAZ62nppiO078QNunzHldx8wthZzNwMjK78QPygkvOq2RUtaP6kXvvPn4+iX/9zkMmKhxYgSPb7KrGGag1srQ1tvbVt9qEzt2nQ5NVmz4d+/3DL+90nw01WnBA4BuwVek+dpzFzNtOFWy4mK0G6xQ3CMSYxnVvrLt9xa6x0jZq1gXqPXsKGDe//OIn+9PlI+tX7ED/mqz1NA0tRMat08pI9xarX6W4255YCQsYjNpcNVVBdMfy+0IH5QcwaesbmUU5pjcW/v/B82FPmE59Hm26E8LEYq6TjBhP2A62/HszfuzILJAhvNiKABKGLgjYy+7AM2nQzhJ2KDP/BhiDCnh/swYBTkimXJEuRX/6QbEMyaMO1EBq6u/nx6MCCQ5fobKvdsK4T7WglTnYfu8pD8B/3mcYzIf/+tvnZEVMBIQAxNHjKGpq5Yg/vEjpy7i7d9wjiSkb94ycvJWzmKj9I7NFSBjECgWEu0dezN6iKoFWvx/CFNHDiSpq+dBftOHSZ7F39uVXPEJwLOKChwrLj8GUlDnaox63ihbB4HrS+taS1TAsjFmVKwBkeL0QQKkHXbN25SmZYGUMVJjUjjzz8I+jUlXtsooD2uZZUuswFjgXHhTa5ETM20ImL9uxuV1754MWrWx+YwUHVePE5P16cbPg9gRsmmMtZdNaPDQ9ed+anpWCmEasAVl4K5HlGw+PB9ylE0PwzPuQZl8uGMGhBFgThzUQEkCB0UdA+gnYMCAq0Zxj+g633/MDqOiyt2KRLkqWAsQGsZq/7p9Dkw+7NjkfHhENudNEniZceVtW2nztXV0W3WsG8AG5osLlm2+Sh8+h3SgQZS6BbEnpW6M9fjuJE+6PeU3mfEJJ4T78INmHAHJLGXOVH7+1BxQLHZa7VSw/1w7UNVZMb9h7k7htGYVFJlJiSZdLmmQWhEmPFpZVsvR0UEU/ufuF03c6Dn2fm8j30pXof5gSIbo37sOcU+uOnI5odLypBn/SZzucDotCwMoblpdjfs3zLUW5v+6jXND6P5ipd5gLiB5UwLH2dt3o/V/5gIoF5sKbXw9pIzq+kPXaRNMbGla2tDb8nIH6w5wfucLFZpa8989NS4BKXkFtOV3yTed7I8HgQEEFTjnrQjUDrNXMRBGtBBJAgdFEScytoy81Qk3szMFQ8/4wvnfVIZOvX9kbvC0Kf/tLz/iZngdDSgqFjOMgVVzWffeC9HdV1lFP6gDKUyEsr7F6B40Z7orkWGV0JgkMZqhKrth+ngZNW0gc/TVaCY+hrJ9xNA8k39szAaloLIP26GOaHA5mpys87KvkfOm0tTVq0nYap//1x+AJ6/8eJjZUqXfFBhQZtYfiZ1dtPcIIPZ7fX3Wujjw/VIjwP7KWXbz1Gw6avpW8Gz22sCOEYEb9RwgYGEagYTVu6k+au3kfD1c9+NWAWvy9dCdJC5LvB82jv8Wvcdof2O01GdgFbjcNtD8+nz8frhj4/aJeD6x+qT9dhxvBiDskcb+rngG8AqP8PK+o1V4L45s0PG5p/TwzZfZ+XLqN6Davr9kZ/f/klFNBC9b3ZY4PxmcqxB1zppFs8haYV8woCQRDeTEQACUIXJSarjJZd8DdpfoDZH+y5wIJB9Li3N3pfUEJOOe3HQLGJWSC9GPV2UDq3nRhSqpI+bHS/6pfCrk+H7sd0q8BxR2aWmG3x05WgBzW13KKGyseVu660cttx+k4l821puULohB97cbwCIhtb4CAuUP2wdfZlgWOq8jN06lo6fdWBXesc3ALo+AVbmrViT2OlSld84IQGa2/YTcMWOjOngIXF6+610ecFVSE8T1ZuIbcLOnkGs920rgih0oX4tO8M3lcEhzkXrxAKDIslWycf2rT3LH2tfq5pJQjn5O3vxtH4+VvYeAEGBBoINjsnP1q68Qj9s8fkxvPxuqHPz5xV++jc9fvsfodzA2OKlthxv6mfA+1eiaXKWEYK8QOnN8PvCSwpPeIUQ4FJ6vfpQfubROjvr+jMUtp4PcSkrT/cLPeo7zfML2GOSRCENxMRQILQxdAJRHBKES8hNfwHWgeck9BjH5fdsa1mMFq4oF4XvfvGevtRmVpwxpfOeRqvTOHOMba1b1BJyBz1/iYf8ehWgSFpzDi1dl9ITW0dpWfnk6NHEK3ddaqx4oHZFRgeoMWrJXuDdOBnYbM9fNo6Tr41D9XrwHkNi0XR+mb4ON0qBqczVElQrSgtq6LYhHQ2V8CxjZmziV3M1uw8RZduu1BMfFqzFjtLo/co6YrQxIXbOJZsPEynLt8jv+BodZyVje8PPwfTAsNWuD98Opx6jVpMm/efp4SUzBfP3rBQ1d03nDbsOcvtak3PiblgsamEI9zuYEwBgaYrYldt3Sg5I6fVNuVv6ucAIgOVIVSAZ53wbvb9oGPyYQ+6FZjW7rOLhqB6BeE1Vb0HtOEZHpe5GziCILwZiAAShC6Gbo2BdevM417N/oHWActpl6hsKqnqWLMBc2YI2g77qHMsJxuGoN0Hd7znnPJmc4c+6ue7U8xWx303JJ1ntFqTuGGRKQbxsRMGds264oHWKVhet3RvkI7XFUCo7qCdDOImWgkbVCvq6xusobNyC3lpJ6pVQeHx7GKGP8PfGZosWBq9Rwmvh4pQSFQiByyqIRxLlPjBcer3B9truOPpFjgdlhZAutKm3e4WrDtIxy7YNVbEUN1Dla+1i2rf1M8BxBBEkX1oBi8gNfx+0AFLfVTA2nt20RCImpuBqSb3mvXb5sDGMmiDSy9q/9ZiQRA6BxFAgtDFaGkCMUf9Ix2YXGhx21hzsL1tTC63iaBdxPC40BYHk4QDjtE8SGxIRnE1nVLJBZIMJBuGj+/qgQHqGwGpvOEeydvroiseN+w9acehSzR75V52VcNyTxgcwJwAbVam9ua8qgUO7V62Tn5sw/2HT0fQfzRpgdNucgvXH6SA0NhuZ9OMJav+ITG08/BldpEzPCeYIULlCE5vEEoazBzZOfuxlTj2ETV9XNPH/8e7/XgG6S9fjOJqD4wmIFC1291tB2+KT8psc0UMNwfQSoZqCgSFsd+1rhymPgcQQ6nqvaG686r9P/NO+/B+sY4GS06dIrN5afPwva3//hIE4c1ABJAgdDGQQLRkgSDa4+D+hrunzztwYV9FzSMKTS3mO6RYwGp4XOYSiLzyGrqj3tvaq0FG78B29bCUANIVj5z8IkpMzeKKi6N7IJ256sg7dbBL5rsh81+5NwcJu1EThLp6iohN4SpIn7FLuXVLP0a7yfWbsIJb3rrbos7UzDw6ePqWEnfr6K9fjX7pXEAQ/jB0AR05e4eXxlZW/WJDzSYIl+1p3HzjJgj68XCF+/KF6cPCdQfJ5uRNnpHSbne5+cU859PWipgIIBFAgiB0HiKABKGL0dUTCL2g9YxHAo0/6NbsuMwlEOb2G3X1MJX4aXezkrIKbr0KiUzgCguqFWhRw/JNLOHEz+BnDYF4gYhJTc8lT79wOnvNkdbuPEWTFm6nfuOX0zeD5tKnP0+nf/w4if729Rj6/SfD6b//MZC+HTyPTQpgvVxZ9cvMAlrt7rkG0KrtJ+jzfrOaVZI+6j2NNu47Rx7+4dwe1l2IVO9z3mqbZi2DsLKGRTZMFGDs8JIgVOdcu+LBsQ27jH7/6XA+j+/3mMjnFeYPA5QonLhgGy3fcoxsTt3kao+5fT4NphNlbPEdGpnI1xsRqq4/hC3+Dj9jiAggEUCCIHQeIoAEoYvR1RMIODb5JxXQYacYGmPj0uy4zCUQvJBQJU4rLwfy5nXDx3f1MJX4NSTCpeQVEMEVnLFzN9Ogyaupv0qqh05dQyu2HiM3n1D+GWMJ8fPnzzlhxzwJhFJGTgHPCvkrEeXgFsj203BCgynAOPXcPUct4r04X/Sfye1Zp684cJVDg9dAKxyqQ2PmbG5WSULyP3rORjp64S6lZeW9eFTXB/NJI2asb2Ya8fa342nakl107tp9SknPMemKB/HzSZ9p1HPkYj6Pi9X53HnkMp9fF+8QFq4xCWn8HKj2mNvnU1Bcxtdn+8FL7FaHOSHEePXf29SfQYQaWxArAkgEkCAInYcIIEHoYvAMUEkLZoBOeVNQSiEbIHT0DJBbTA7ttot4rRmgrJJqOu+VSAvP+tKAHW/ODBAWn6KN7cCpm9R7zNJGm2vdWvX1wDm01eYCebay4qIrQ2hVQyXJ1smXTly0o037z9Gc1fto5oo9XOW5cNOJDQQ0WlDhMVMW72DB01QA/enzkTRg4kraffQqJaVlv3hU1weCsP/EFXxe9XtBQAxCHOL85BX+klhrIejsFcLOd8OmrWPr6k37ztFxdR7vqp8PUOeota2AMI+Ag16wEkx4rp/HLnup1fAP6r/7qD/D34VGJTabtXqTBRCc3cy38HpTSGoRPWmleURbMVeB1gtajzgZN3ERBOHNQASQIHQx2Ea2xryN7PTjnmxDa24fjaUxl0CYE0CYbzrmEsvHjyWJho/v6mEq8UP15eRle26hwkLRpotOkawjOe4xYhG7kMUn/+JOZg4tZJCcl5ZXUV5BCVds8BzhsckUFpNEMYlpSvwUsEOaRgun++5BNGDCShY/TVvg3vpmrDrWrc3MAro6sO7GDiND++u/fz2Wl5weN9j/o2eiCovLKDI2RYmdWIqISVbnL0P9XB6LJRgrtNYMolqJH1yDc9eduNIHK/P/eKd/4/HAeALXfMiUNXTV1r2ZwHpTBVBLb+DABc47Po+qa+tZBHUU5irQHb1gWhCEzkEEkCB0MbAH6NHjhj1A80770rcG/0DrmKgSkKv+KZSUX0EPmiQg7Q2SG+wfWnzO+B6gfkrUzD7pRSdd41jsGIL9J1iiiC3wcIJDItWdYp06btiP4zw03X+CuR+0vvUYsZDnc3QirAOC6LcfD6XRczZxG1d7oxP0E5fs2Vmu6bFAkMEKGlbYsOOGOGgt2tYb1SwICbSNBav3pWdgdGAOCm1lmFFKTsthAYfKyeuaCMDcYO7q/VzxQRucfk/a3nv1jpMUoYRhe9t2w5bb0z+CNu87xy11Tc9v0/j05xncuohKHISW5k39HLCNf1UdL2ie8Qob/ylKHNkqkdTafVptRduPQ4Dhu8rwuCCKVilxdFOJpNxS2QMkCG8qIoAEoYvRsCn/OffHLznvTz022NJ3Rjapj9rvQjaO0eSdkM97gzqK5PxK2mMXSWNsXKnXZvtmx9WwSDCIbgemGV0kCBMFvDckT3eD0/kucncKHHeKOgeo0qFap4lLyuDkG8tNIXQME2FUgyCCYHUNYdDe5BWW0p37PrR4wyEWC/o4dEter1FL2AUu06By1FL0YlfPgAg6dsGWlm0+SqNmbWycgdEBm+6xSvQtWHeA9hy7RrcdfdpkI41q1YlLdlztaerm9u9v92MRBHc4J4/g137+loLK0R1Hb1q0/uXzaxj4O8wZodWuaWvem/o50Ddwgswsch57wJVOuMVTSFoxldc8evHo9icht4I23wxlodNjo22z4xq+x5l23Akn58hsnhcSBOHNRASQIHRRGv+h3mn8H+qBOx1p2cUAuuybzK0auNsN8dRePFGirLruMe8eWnEpgNvXfthwt9lxYS5on30kecbl8ryQIfoOMe4cY1YALTTdKbJLqtkK3HD/UmxiBq3cdoL3xvzvR80FkA7MhfgGR794VPuBagsqDzBhwLyPfv3/en8gvfv9BDZO8FNCrPZRPT014kpnSIMwf8YmDZg1QkXjyl03ttoeowQOdgvBXrvpe0XoytcHvabQACWGFm04TKcuO/DuIrSFoRqEeZqWgjZAHPeuw5fp64GzX2o1RHwzaA6duepAKem5fKztBRagQkDOWrGXz2fT99w03vl+PM9p4WfxGM2b+jnQxGaXcSWl92Z7+n598++JIbvv0/rrwXRHiT9Uw9r7+4tbi5Xo9EnI5/lDfKcau7GEGzvHnGN5vrLsQccJM0EQOhYRQILQRWls1ThuvFXjp012NHyvE225FUpRmaXtboYA8ZOYV07X/VNo+jEPFj/fGkkgYI193jORorNKOeEwRN8hfvjoCc8OdLd4+Ogxn2vD/UtdTQBhzgWW0G9/O55Fj379v3w5it3Q9p+8wTbNaGVryRC6tpOGYcK5G05KyBxS4molfdxnOv3t67EsfrBjqOl7RejKF2yqsWMHVtU/jVjEbWzX7DwoLjmTRVBLqX/8mErKK8nBPZCGTV/XaDahX4/tvfeeYyvs9rT3bqsAelM/BxqIJBuHKJqovg8wF2j4PdFb/dmEQ2601z6SxVJ7f3/huygqs4QNWNDCZ0z8IPB3N/xTeX6xI1uLBUHoWEQACUIXhc0GQjNo040QGra7udkA/gHHXUzM29wLa79eer7zrxITLDB1CM9kwTXciPkBZpVwp3emEmwOYZmUW9axvf2dTWcLoEYb7Ye1VFxWQfdc/an/+BXNzAI+UAIErXqtnf1BNQXi5+Y9T07oTVV8zIVuwftECZX5a2zo4i1ntvtubSUoOiGNFm08pATYNPqfDwY3Pj9srqcs2k6nLttTXGJ6q80NWkpbBdCbjp5xWn4hgAbtbD4r+IP6rui79R4tOudLjhGZ7fb9BaGJahvmEW8GptHaa8FcfTI8HtzM+XGDLbvTuUXncPX6USt+HwVB6F6IABKELkpFTT2Fp5fQaXfjC0cREEGj9jnTzrvh5BzVPj3rOoHAXdpdthEmZ3+Q0MBCdsXFAApJKeRkBneHrYXOFkDa9Y0XqfpH0M7Dl3lHkKFd9LdD5tEFJTpaO/uDtjfsypkF8aOe11TFpyWBY4Joee+HiYQdRRduubS6EpSWmUeHzt6mETPX01+/GtP43NoMARUqOxe/Zu5rlkIE0KuBgPCIyeUKD76jDL8vcMME3xnYJbZTfa+01/cXtxpW15FfYj63FGN2sudmu2bHg5tJaDeGKUWE+t411donCMKbgQggQeii1NU/pbyyGnKKyKL5p32o5yY7JXia99LjLur0Y560/14UBSQVUJFKIvCPd1tBW8uTZ8+o4uEjbge5E5TGzkmmeucb7a8drHOBYEcLoMdPlOCpekBZOYXc7gbRg6WbWAQKZzLM5cAaWr/uv73Vl36jRMewaWvJQ/1sS2d/9Ov4BEXRwvUHm1V+sIwUbmyYM/pHj8n0pXr/sPvGLqSeoxbTt4PncdXpz1+Oov96H9WolwUZRBAqQTfsPPi9tLQlr6CojKtcy7ccpQ9+mtz4fLD7xs6jPur14XJ34YYzOXsG88xSWHQSJSuBWFld0+LXMYUIoFdTXfuYEnLL6ZpfCtthozpszNFSf3+hXQ57gTB3A9HSVvSNG1TSMbd4yi2ephxxN/n9hZlGVK+Pu8TxTJYgCG82IoAEoYsCJ7i6+icUlVFC22+H8V1UiCDDf7h1KwmSDIgg2M9CBLUVbXoQl1PGffPLLvizw5up3nm0xW1Tx3k/PIuTDmujowUQREm4Ej7YQzNj+R5O+DFb8+3gudwWZrj4FKLl874zeFkoBFNLBYB+nSPn7rKoMaz8QPzA6Qy7huAEB0c4B7cANjlw8Q6lS7ddlBA5ycLrPSUUDFvyUAn6pM90WrD2AO/4aakwq1THBUvsQ2dus+jSz8ctdu/15x08H/aayhUvON5hd9DUJTtp34nr3D7X0tcxhQigV/Pk6XOqUiIoIKmQll8M4OowvqsMvzf09xdurqDaDft/S5gP6MoPxA9cK7GUFbOUpr+/xP1NEKwJEUCC0MUx10uvQ99JRcuJT3w+u0uVq0Sitr5hULmlaOGD1w1LK+bXXnLej8UP7p4avq7uncdr42dx1xd3f62NjhZAuQUldPOeFwuH9380bcOs489fjKLBk1fTvuPXKDk958WzmMdUoq8rPxAZWP4Kxzl7F3+2A0crmzZNyMotJGevYBYekxZuU2Jlljo/v1SQ9EzQz0pc3XLw4soOHmcO/Ex+YSndUueg9+glzdzgDENXhlAZw3G29HVMIQKoZfDiY+dY/n7Ad5Th94cO7BSD7f9Jt3gWTbnq+0cvSW1NpU67veF1/RILzFZ+8Gc9N9ly9QfVKmv9/hIEa0MEkCB0cfS+kLOepmeBEPpO6sRDbmyccNknme+mYhcPRFBL0W5v98IyafudcJp+3JMG73I0mUDgz9E7v/ZqMN9trergze5dhY4WQKZsrk3FO9+pRHz5brp824WylShpKbGJ6bRi23GusjR9X7ryA/EDY4Sk1CwlSEqoqrqGzQy0bfbD2kdUWFzOi1LRsrZh92n6uPfUl44NIuiL/rNo7/HrFBKZSOWV5jfws8CqqyfvwCjeP2ToBmcYujL03dD5tP/kzRa/jilEALWMsuo68ldC5PD9GJ73Mfz+0IGbKBBBU4968qzOdf/UF2Kkdd8n2u3tVmAqP4+5yg+q6qiub1E/i+9La/3+EgRrQwSQIHRxuJWjqo6rOuuUyBi624l+2ti8FU5Hwz/oLnw3Ff3s9yOy2EwhrbCKxRDaO5pGfsVDyil7wHdMkXDgrikqOXB7G6sSFlPCB4GefiQti8760QWvRMoqfv2EsrvT0QIoMi6V5q22oX8qEfJrJUb082vbaczb/PajIfSXL0bR+z9M5OqPzckb5Kdeu7TM/IyWdpXDzp3Rs5sLjL9+OZpGzFjPLWipGbkvHmUaXbHBQtAhU9fQbz9Wz/f2L8+HKhaWimK5aF7BLwtDzZGQksW7iPqNX0Ef9Zqm3u9o+t0nw1mgoUqln1/HBz9N4evk6B7IVaDXRQRQy9CzjK5R2bTior/6vnBgsWPs+wShv79WXAqkK77JbF4Qk1Xa4u8v7Pk5p76L1l4LolH7nc1+f6GyjX1FWO6aU9p8cbMgCG8mIoAEoYuj94VkFFWTbXC6SVtsHTBKQBIBYTLWxpVtXTdcD6bDTjFsA+sUmf1S2Idl0nX1jz92DuGO6UIlZiYf8aBhe5yo12YYLxh/Hd36Nu2oJ1eb4rLL+O6ptdLRAigoIp4FiGGirxePvvvDBF4KitmbhesO8mxOSFQClSjxU19vvsVHu8o5ugVSX3XMhi1mMEPYf+IGGwuUq58zh67Y4OdX7zhB3w+dx45t+vn+ogTVsGnr6MCpm5TSAkGlKauoYoODs1cdafHGw/x+ewxf2EwY6oDpwjyYLth7UE5+8YtnaT0igFqGnmVMyivnmyRop8V3k7HvFIT+/kK7L6rZWFq6UX3ntfT7a4H6+YmH3dnqGm5v5r6/0Pp2OyidBVbNI+ux7RcEa0cEkCB0E7Sr0u2gNB4qNlcJ0oE7oLjLOfWoB62+EkTb7oS/FBtV0rDyciAPIQ95Ratb08CdUww1Y2kgBowxK2TtrSMdLYD8Q2Ko77jlzZ4fw/8/j1vGSfeq7SfIRgmK2w7eLRYqmlolVnLzS+iarTv9MGxB4/Ojlew/3+3Pr+3gGsAiCWKppWTmFtLZ6/dpyuId9PZ34xuf9/efDKceIxbShj1nKT4588VPm0cLNTzmtqM3v98Ne86w4cE3g+fSn78YycerX8dSgkQEUOvAPGJwSiGddo/n7xp8fxgzRTCM9v7+2ncvii3+xfZaEKwLEUCC0E3QrkqJeRUsgsxVgnQgGUBS8PNWexqsEonhe51fiqF7nHjGB33yLUoeXtw5RfKAu66w3i6seMjDx22xFe7udBUB9NXAOXTisj2FxSRRTGIapaTnKCFTzPMurREqvPg0NZtOXblH3wya2/j8//neAN67M3HhdvIPjaV69ZytSRxRgfIOjKStBy7QJz9Pb3ze36pzhteBaMPcUUvRrXowXoAxBN4vjBicPINo8/5zNHjKavrLl6MaX0cEUOeAVt6yB3VsdQ3La3OmCDra+/sLc4vYWQSjGFj/C4JgHYgAEoRuhq4E3QlKp5WXAjkJwGJSYzs2LBlILOCWhLus04950B67CBY/sjG9gZYKIFQ5sKCztZUTQ0wJIEsJLJgZxCghcvS8LYsq/fwN5geTae7q/RQRm/Lip1tOZVUNzy8Z2lfjnOHcrdh6jA0T2oopgdJWQaLNHVLSc9W5uUuG+5YMw1Itd28KxZW15BadQwcdo3m/GW7ioOWto76/hioRhbY3VH60+JHvL0GwPkQACUI3Q1eCkvMr2altl20EjTvgSj02mL/72ZZoGE52VqIrgE0SwtOKqbCiYemqtI60XABhdsbm5E0Kj05mEfS6dFcBhEpUSGQCO77hXOjn7S4CSNt7h0Ynsjse2uwwc6Wf3zAsZbrwpoDvC+wpg7PlzYBUdl8bs9+lw76/Vl8O5JtHaHsrrqqT7y9BsFJEAAlCNwUDu9hY7hqVQ7uVCJp90ptGqn/g0VaCFo+23lHF47G9vfdme75Li7umGDKG+InPKRe7WAMwg7Ju12n6fuj8l4b7DePtb8fRlEU72JQARgaFxWX0sLauxYtJNaZb4GbT8Yt2FBKVSFFxqdzGhha41lacTLXA6X06kxa9XgtcUUk5uXiH0Fp1rj7q9Ysddltb4CqVYIOgSVTHHJ2QrgRHEG3ed56GTFnDBgv6dV5XAOH61DysYye7yNhUnmMaPn1ds4WzhvHpzzPYrhxGDWXlVS+eTdCVbPvQDF6gPPO4J43c69zi2SBzYer7C25vMDwQ4SMI1o0IIEHopqBnvabuMRWUP6SYrDKuBu28G87/0A/e6djmO6pIQnhQ+JA7bb0VxksCsScDC1arHtZb/cyPIUlp2bTzyGXqN2H5K/fywJ4aImjgpFW049AlcvIKZmOA2kf16pq2XFCaEkDaTGDC/K20YN1B2nn4Ci9MbW3F6VUmCNin02/8cnJwew0ThJwCOn3VgWeI3lLnwfC4X9cEIVaJnit33GjbwYu0bPNRGjd3C1eusADWEiYINUqkpmfnq+sVQpttLijxs57b2yB+/u/fm9tt6/h28Fw6f92J0rPyWUAJDehKNr5PQlOL6FZgGguhls4GmQtT319Y8PxAfW/KzI8gWDcigAShm6NtspFIuERm8+6fDddDaN5pH14CiOWDsLSG9SwSiz5b7JsF/nzAdgd2W0KbCOxnZ5/04na3Aw7R5BiexXdrZUO6aUy1XJkKJObYzYNKyFUlMlBNQfWipRUhUzbYLFBUwv/HT0fQhz2nUD8lkuavOcBVIbRtlZZXUv3jtttgf9Z3JrexBUc0WGubO17dOhYek0Rrdp6k74fNp9990tQGexQNnbaW2wMxX9NSUFXxD4mlExftafbKfdRn7FJurTNVmXn/x4ksDG85eLNpgil0xQfvLTOnkIIjE/g64Xr9rM6HucoPrgmuzYCJq/gctlYoWgtaCKUUVPLOsiNOsTzbCCE04aAb7wRCBUe+vwRBsCQigAShm9MwlP2cHj56wm5sqSqRQH+9Z2we3QhIo2NKEG29HUbLLgRwdWjyYfeXYuoRd24/WXTWl9ZfC2aHJrS5YVAZ9tYp+ZVcZZKWt1fDMzMJzWdmTAWqEhBBn/SZRn3GLKEZy3bT/pM3WlwRMrUIFQERhKWlv/7nIPrjZyN5ESpawbBjB4tNS1vQimVuESqqXANVcr/j8GWKjE81e7wQPwVFpWTr7MtCB+Kn6fNBmGBfESy7XyVMDIHj25odp6jHiEX0D3UuYAP+mw+HmKzMfNR7Gm3ce448/MKpuLTixbM0R1d8fIKi6Nz1+7y7aJASrB/2msqvYa7y0zArNYlmK0EcFB7f6lZBawGiGdVkVGUK1PcXvm/wvYPFqZe8k1jAoHVNvr8EQbAkIoAE4Q1DV4TKHjziu6po+8Cd1au+KVwdOuAY/VIcuh+tRFIsnfdKpLvB6eQdn8dW2+KO1Dp0xcTVO5SdwQz3z5gKXbFB1QiLQNfsPEWXbruSt0q8oxPSuGWspKyCah7W0tOnv1wPbrlT4qP/hBVcPcHzGHt+He98N56mL91FF246UZYSWC0F8zgrth5nx7am5g4QAKiC4JjPXLtP4TEplJ1XzHbUT9TvjRZQ1TUPqaC4jN8L3O8MZ39QVUJ16WslGve9qCiVVVS/eHXT6IqSp38EV9J+9e6rBQnOD67HD8MW0rELdjwnhLkhDQQKhCHEZ1xyJnkHRvF12HrgIu8sMqxYvSrwWn//ZiyNnLmB3e5SW7HY1drR318lVXW8XNknPp8cwjLl+0sQBIsiAkgQ3jB0Rahe/eOPu6rlD+q4MoQWOQz/QhQZBv48s7iacstqOHFAq4gMCbcOnfCjIrHn2LVm+2deFUiYMRuEn0fb2ndD5tGoWRuVWDjFw/YQQ4YzJKiS3LT3pEXrDtKnfaabFQB/+HQE9RmzlPfvJKRkvXgW85hq7WPh9p4Sbj8o4TZ9HW3Ye5buOPmyeIAI0oIQRgr33QNp97Gr/J4gfv7nn4MbnwfiBy5qOF937vuwyQCEjTl0RenWPU/6aeQiPh79nMZC7y8aM2czzy7BjOFR/S8tUQ2tdDFc7YGZxaSF26n36KW8qwgLWw0rVqaCz4sSWt8PmU8HT91q9QJaa0d/f+H7p/JhPQshVHDk+0sQBEsiAkgQBMGCoK3KzTeMth24SL1GLWHh8R8tSJwNA05ycJSbumQn7Th8iexd/HiPjJ61gbgIV8n1hRvOtGDNARo8aTULHDzms74z2GgBoko/n27JmrNyH4VGJZqd2dHo1zly7i7PvvxWHde/v/3L+9GVoJ6jFtOSjYd51giWz6jM3HMNoNNXHGj19hPN3Nh04Pm+GzqPVm4/zs51LTWDqKhSxxWTxG19X/Sf1fh8ECCo9KBN7ePe0/h84NgGq9dHJWfv8WtcjdKv8/iJEmrquSBUDpy+1VDtUY8xN+NjLPDaEEpfDZhFi9YfJO+ASJn9EQRB6IKIABIEQbAgqCqguuAdGEnrdp/moXwk48YS5lcFRAZEEJzGsGtm0YZDbHzQmLirpBo7ddAiFxmbQr5B0eTqE0rX7Ty4AgWr7be/Hd/4fHooH0LA3T+8xUJDvw52C2FHz/dKrDS1+daVoD98Opz3A2H+qefIxSzGfhqxiL4ZNIc+6DmlmRubjn/+NJn36dxzC2C77pYKM66AOXjRgnUH6P0fJzU+n670wCFvy/7zfD5guw2TCQi/5LQcXsbaKCRZSCWzicLQqWvp7e/GsYgxN+NjGLryg11GG/eeJWevYBasMvsjCILQ9RABJAiC0A5g6SUqIBi4h+U1hMz/fDCYE2VjCbSp0Ik1RMX5G06UkpFLDx7WvniVX9AzMflFpTxHc/D0Lfp28Lxm7m3fDplHF2+78BzQw9pHLx5tHhYc9zxpyabDbO1sWAlqTeA9waABLXWwq76hnre1NtHJ6Tks9HBuIa70czdUlOar4zzCwsdUS50+X5ilOnfdiaYv3U3vfGfevc8wtLCEpXeP4Qu5CubiZfp1BUEQhM5HBJAgCEI7wGJEJcHBEfF09pojzV9jQ5+0YFbHWEAwoH1t7ur9dM3OnXLym++vaZidUEl9XT2VVVSRk2cwDZ+xrpl7G2aMYLTgrJL0wuLyF482T23dI65o4HkhggwrQS0NLejQnjZPvZ+Lt5wpISWzmcmDOaLiU9nOGq5sv24yUwQhMnnRdjp1+R4lJGfyPiNjlS5cH8wQOXkE0czlu5vNJrU0dGvhmNmb6MQlewpS4jNPXXdTrysIgiB0PiKABEEQ2pHqBw8pPimDW7Hmrz1AvUYvoY/7TKM/fzmKZ3RaWhHSM0EL1x+ku06+vCwUggRiB5UTw1YrzLks2niIXwuVJ/08et8OLLcTU7Na3HKm0ZWgVduP08BJK+mj3lPpb1+Npv/9cAj9x7v9mr0f/H+0vsFB7q/q5z5WP99r1GIWhNdt3dk0AqYJLUW7tTl6BLL5gqHAM2VzjfeJ8wSzg7zCErYsd3ALpM37zrMDXUuFqXatw/tBVQ/zRbAwP3L+DsUlZ7S4tVAQBEHoPEQACYIgtCOwhMaOICzTDAyLpyt33djdbZgSIe99P6HFibeeCfr05xkEm+0Ne87SNVsPfk60jxkO26dl5tGhs7dpxMz1PBOjn+e/3h/IrWewxMaOn9Ym7LoShHmkK3ddadO+szRm9kYe/P/LF6OavR89k/P1oLm8TwjVp8t33NRxx/H8Es4NzlFL0W5tu45cYeFi2OKHmaMzVx14meqDml9aBfVen8DwON5FtO/Eda4U4Tl+r0RUS4Wodq37Wr0O5o9QafIKiFDnO5ffS2sFpSAIgtDxiAASBEGwIIaVBogF7MEpLa+kqgc1PHuDAXmbkzdYhPQevYRd27A35jcfDG6W0BuGdl37cfhCmrNqP8/BXLV158Qe1SANjBjQ5gaxhWWrOsHH/6IFDa8LMdbaWSCNFhRwezt6/i6t2HKMJi3YRkMmr6F+41dQn7HLOLT72qrtJ/jnWrro1RQZ2QV08pI9jZ+3hd5S50yfFy1MICzR1qYFob4eKek5dNvRm3YfvUpLNx2h4dPWtUiA/ttbffm6oMqFatePIxZwa+HKbcfploMX70mCSQSEYUlZJc9gIfDf+DMRRIIgCF0PEUCCIAgWxLDScMPek+67B1FYVBKVllWx2MDsTWJqNvmFxHJr3FabCzRxwVb6rN+MZi1dhsEC5r3+XLV474cJXIkYOHkVbdp/nuJTMl8cBfHrQGhctXVjR7amiT6eA61xEEetnQXSaGGBNjNUm2IS0igkMoECQmPJLziaXeMQ2n0tRgkF/FyhEoMP1Tl6XWEQGZdK81bb0D97TKJf/2NQ43nRdtoQWnB10y2B+npA/ExetEOJzZnsVgdLblTDzFV+fvPhEPpcCdTRszayuxsWybr7hfH7gWtdeUU1tznmFhSTT1AU2Tn7cWCRKsSvtMQJgiB0PUQACYIgWAC9TyY+OYNu3vNqrDTMX3OAVm1D9cNWiYM4dofDAL52IUOSDMvsU1fusbnAyJnreUbm834zecbkz5+P4iT8P01UKnRL28wVezjx1+jn91LPPWLGOvUcg+nf3u7b+DhUTyC68LoZSiB0dbTJA9r2sFPIsHLz96/HsqMc9hChJVDDM1jqmhy/ZMdiUf9804AIwvwS5pjQxve+Ou+f/TyDl5kOm7aOnd2OnL9LHv4RjW51+ngwj4QdQnCy23bwIl9zBPZAQfzi7/AzUgkSBEHoOogAEgRBsAB6nwwWf45VibiuNEDEYA9O/wkraMPes2yNjRYpnUCjTaq4rIKrFHA28wqIZJMBmBTMW2NDg6espi8HzKa/fWV8MedvPxpK3wyay5UPtGNp9PMHhcdzu9gfPnt5IeufPh9JAyauZKEGK+iujhZ0bn5h9PO4Zc0qN3Big1CxdfLl1kMN3OVSM3Lp7LX7bAve9DEIrqi925+F5pf9Z3EL3cJ1B7m1ENU5tPhFxCbzjE9xaTk/H9zq9PGExSTRmp0n6eexS1m0Yq8RAv+NP8MSWFTApBIkCILQdRABJAiCYAEa3NG8aMHalxdz6vjjZyN5NmbH4cvc/mYKJNWwz+aqgr0nD+tjAemkhdvV45dzEv95v1n0Yc+p9M5343nx6PRlu5pVcvA8qDbZOvvREJXUG7bWQVDBlABzOWhN6+poweEZEMELS2E/jR08+v3gXGCm6pwSOkmpWfyz+jE4n/Yu/gTziPd/nEjvfj+e3u8xkT79eTrbeQ9Q4nTigm20fMsxsjl1k247ePMuJQhVU8IFNte45qj8/Dx2WbOKlBZWP49ZyrNCuvInCIIgdD4igARBECxAcloOO5Oh0oPqik6EdcDy+u1vxymxspvFjSk4aVfJNQbr0R6H54WlNWZpYNt88ZYLLzldv/s0zVy+h5ZuPsJmBpFxKVRZ9eDFsxAbL+DnURmCc5yhuYIpu+iuiq5o4dzNXbW/2QwQFqt+2GsKi0FH90De8dMogtT5hN32oTO3uboze9U+WrzxMO08cpmXy2JhKuaXMMcEswTM9sBQAo8z1boGUwvM/KDtDdUeY7NE+LMv+s+ivcevq+dP5GsqCIIgdD4igARBECxAbGIGrdx2gr4aMJt3xBhLhlERgEsajAJaCxzN4GyWlVNIkbEp5OYTSpdvu3K1Ij4ps9H1TFc9IIi22Fzg6sQfPxvReBza1QzVpMt3XBtnWroLqFYdPnuHRs3cwHNMWnjo8/vd4HlKcFxr5oqHORzMD+F8wTUPu5QCwuJe+/2jze6OozctWn+I2+/0+TWMD36awr8XDaKs7MWjBUEQhM5EBJAgCIIFMCeAEEjSITz8gmNePKrlPH/+nAUOHNQgdoqKy9nCGtUK7J/RrmcQP6h+wIlsxIz13Hr3H+/0bzwG7WqGSgiEmJ5p6S7gvYdHJ3E154dhC15qPcP5ffu7cTR+/hY6cellM4T6x4+ppLyS3dqy84pYwMCq/HXfP6pz1+zcac7qfTznpc+vYeDvMMt1w96DHyMIgiB0PiKABEEQLEBLBBACu3FgD91eQCBhFujCTWf6bkjzoX8sU/1+6HxeSBodn8ZLSOvrH3P7HBaTog0sOCKegsLjuNKUmplH5Up0aIHVXmgXPYg6mEFg0SoCBgQpGbm81+iROk6evckv4fmon8c0n735w6fD2UVv8/7zlNDEFtzSQEShgjZrxV524Wt6jpvGO9+PZ4c+/CweIwiCIHQ+IoAEQRAsQHcRQP/zwWD6pM90mr/2ALeJVT14yPuJouJS6cxVR1q2+SiNmrWRhk9fT3NX23C7GSouusWuvdAuephxQnUK1SsEBAaMCVx9QlkEPaippaTUbDp91YH3/ugWOB0igARBEARziAASBEGwAF1FAGnXM1snPxYxf/j0ZftrWGn/7esxNHTaWjp55R65+YazWQL2FGFRKAb60SYHlzXMtoxUIsTm5E1y9gzhilBGdgEvToVwQvWotehWvgcPa9n+O+NF1QkLWQ+euU3Tl+6mj3pOZYMDBMQFdvFgCSmc3GBLfUmJpKWbjrLddNNzyy1w346jcfM2N9sHZGlEAAmCIHRfRAAJgiBYgK4igLTrWYQSK6iC9Bm79CUTBDYLeK8/CwXYco+evYkXi/44fCEn8hA/WJgKi2mIoL9+NZq+UKJo+PR1tGbHSa68QKzEJWeyCGot2swhNT2XxcwZ9XzLNh/hZa2oWMHOGo5ueH0E3PP+8uUoFmYQbSNnbqCfRi5i8YOfe+l9vdufbcKxwycwLI5nfNoLEUCCIAjdFxFAgiC0C8+e/4vqnzyj2vonVPPIdNTWP6Wnz9pvtqSj6CoCSAPHMSxdxazP98MW0G8/Hkb//vYvlSDYYv/246G8IPU3HwxpNktjGHp2aOLCbbRWPeeJS/ZKCAVz2xoWqZrac6Nd6UrKKvnnIEzuuwfxvp7N+87x833Wb0azPUWGoY/X2M9B/PxO/flXA2bR/DU25OQZzFUwY8djKaxNAD3/17/oibqWj548pYev+Ezj8/746TOeF4N1uSAIQldEBJAgCO0CxE9JdR1llz6g9KIqSi00HrllNSyCujtdTQDpVjhX71BauukIL/yEiNHHgZ1AEBVoj/u3t35mEdH0OA0D4gmPf+ubcbyEFZWWARNX0oxlu2nn4SsstrA41BAcB1zpsDNn55ErNGXRDl48+u3gufRxn2n01rfjuOpkuKfIMPTxGv6crvzgvKNNzskziM0cYJZgbIGppbA2AfTk2XOqrntMRVW1lFlSbfSzjMDnvfJhvfr8P21X0wxBEIS2IAJIEIQ2wdbLj59ShUp68isesthJyC2n0LRicovJJfvQTLoTlE63AtOMhkNYJgUmFVJsdhmlFlRSjkqgilWSVV1bT0+etl8Ca2m6mgDS5BaU0M17nrRk02EWHYaVoKYBMYGWsz9/OYr+8tVoNkwwJUy08NCtdFiqGhSR0Gw2qLyimoLC4+nw2ds0eMpqnj/CHJLh8+nA66HSg2WyMDT4zYeDuSXP2M92RuVH86YKIF3pqXn0mD+HWUrsJOdXUFRmCfkl5pNzVDbZhpj+PNuHZpBXXB6FphZRnPpMpylRhJscZQ/q1PdEg5OgVIYEQehsRAAJgtAmIH7yymsoPKOE7MMy6IRrHG2+GUqLz/vTrJPeNPWoB005YjqmHfWkOernVl0OJBuHKLrql0wesbmUqERUde3jF6/S9emqAqi27hHvn4E4gAgyrATp0IIGyTxmbUbMXM8Vmle1pvFjlJj502cjaeCkVXT22v1ms0EwTTh52Z4mLdxGH/SczD//qlY7CDS4u6G61GfMUt5ZhAqR4c/p4+3oyo/mTRVAutKDGxn4HF70TqI9dhG0+kogzT/jQ9OPe77yM42/m3nCixaf86NNN0LosFMM3VTCKDC5kAoqHkplSBCELoEIIEEQWoW+Q4wkCXd2ozJLySkym854JNCmmyE0SyU/Q3Y5Uo+NtvTdujv0zdqWRe8t9jThkBstu+hPe+wjlRBKoYCkAkovrKLS6rouPyvUVQWQRleCYHPdY8RC+vMXI+k/lYCAkMD//vmLUfT1oDk0ccFW2nv8Gh06e5sWbThIw6avpW8Gz6X3f5zIZgSmKjIf9Z7GVSAPv3AqLq148apEMYnptGzL0UZ3Of3zuqUNTm8QUO//MJG+VOdumBJfq7efoN1Hr9LWAxdp/lobPt6/fdVQOdKPg7HD1wNnd3jlR/OmCCBUYxqquE+opLqWUgoqWazcDkqjvepzCCEz1saF+m67Rz9suGv0s2ss8Pkfsus+C6LVV4LoqHMsOavvieis0sY2OcwKCYIgdAYigARBaBX6DnFiXjndCEil7XfCaf4ZXxp/0I2G7XGifipRaq34QXy//i6LoIE7HWnkPmdOnJZfDODEyS+xoMvPCnV1AaQrQe5KoGw5cIHb0SBo/lOJir8qcdFv/HLafvAi3XP1Z1vq1MxcioxPZXFx4PQt3s0DcWKqIgOBhJ+57eDNYksTHJlAo2dv5Mc0FU661e2DXlO42rNAPfbYBTu67/GLsQL2+EBQ7Tl2lZ8D7XP6cT8qUbRl//kOr/xo3hQBpM1KUMX1js+j0+7xXI2dcsSdRqnP4cAdDtRrsx2Ln29b8ZnG5x/fAz9vtafBSgiNO+BKc095q++LMBZXaKmDCBIEQegMRAAJgtAidKKEIeiIjBK67p/KidKo/S7UUyVIxpKgtsQPShD13XqPph/zpMP3Y8gtOofvTnfVO8ctFUC9xywlr4BIeqrew3N1TjsaVGfcfMNo34nrNHHhdiWE1tCUxTtox6FL5K2Oy7CSAstqLEKFsMFC0nlrbOj7YfMbK0j6faFCA5FyUImlaCWcKiqr2fkN5gg9Ry5+6RwgUMH5edwymrfWhnYdvcrPH5+U2Wzhaml5FfmFxNDR83fVce5ksYTXWb/7NIujjq78aLq7ANKVH8zaYfYOn6+DjtE077QP9d/uYPQz2ZbQggiiau3VIG6tw5xQgRJeDx895mOR2SBBEDoKEUCCILQI7eoWlFJI++5F0ozjXjRktxOLn++UWDGW9LQlvlWhRdAYJbIgtq75p3TZO8ctFUA9Ry0mF+8QqlVJe0dWLDSP6h9TUUk5JafnUEhkAvmHxlJoVCIlpmaxODKspECMlCsxk1tQTCkZOeTqE0pbbM43VpD0+/qtes/fDJpL89ceIFtnPwqLSSafoGg6cOoWfdF/1kvnAPHVwDl04rI97ytKSs2m3PxiqqquofoXg/Ka+sePqaS8kitSOE6IoaCIeIpLylDvo/nxdhTdXQDpGxoQPxAj+HxNPOTG4ufHDbZGP5NtDYignpvsuDUOrbK7bSPYNCGzuFpmgwRB6FBEAAmC8Ep0ooQBZv+kAjruGkeTj7i3qs1NixkkP2inwWPR8oY/N/bzxgJtNKuuBNIlnySuQGFeAUlTV6GlAggi4cw1RyVAcqlSJfydVQl6XWB1DYGzZNMRXkaq3xfmc9CiBuMC7B5CtQgzPKjavP3d+Maf0zNHgyevYfHV3cD1qnlYR1FxKbT3xDUaNn0dL4vV788w/tFjEi3eeJjuOvlSXuEvrYGdhWHlBwJkxcUAFiX4XBr77BmLBjFjS73V5xmf6x5KNLX0+wChZ/623Aql+xFZfCw1dd3H9EQQhO6NCCBBEF6JrvxA/Gy9HUZjD7hSn632LRc/6udwRxmzQajkYBZg6O779PPWeyyKjD3GWCA5gwhCi84xlzjyScjn4+oqtFQAvfvDBJqzeh9XBFCF6axK0OtSVlFFgeFxtPvoFfqs74zG99XgCNefW9s+7DWVqz6f9JlOb387nv7r/YGNP6dnjiYv3sEVne5GTW0dpWfn0y0HL5owfyu9p67nf//jl/dnGJ/+PIN2HbnCC2DLyqtePEvnYVj5wZzdiL1OrbqhgYDoQTvbhINu/LkevLN1AkrP/I2xcaEVlwLosk8yZZc8eHGUgiAI7YsIIEEQjKLd3rALBG1vqPxA/BhLZnSgovOTSoIwOD1aJUeTD7vT7JPe7CSFvv9dthHs8Ia7vmi5WXDGl2d8kEQN3+NEfVRCZK4yhBYdiCDYbWN3EPaVdAV3uMTUbNp28CL1GbuURYCxZBgBC+rvh87nWZpLt10pJDKRraINZ1+6KtUPHlJ8cgYdv2THrnHG3uOrAruFIIwWrT9EUXGpL56168IVE/U5QNUH80Zh0Ul0zdaDVmw5Tp/3nUm/ete0rTdE4XdD5nHFLyU9lx7U1L541s6j5tETXlja0soPblLgZgVuWow/6Ko+rx7qM+1Fyy7404474bT/XhS3ssHyesl5P25tm6Q+9xBHA9RnFULpu3Wmb3TgtXEMsNn2jMulospaevS4+y9GFgShayMCSBAEo2i3N7Sb7VNJzuQjHtRHJULGkhiErvRAyCA5OuQYzQtQfeLzKCytSImVUnaOS8qv4EWp0ZmlFKyElWtUNl3yTqJtt8NYMJmrDP244a4SQfdYVNmpJA77SpDUdTZZuUV04aYzTV+6i95p0vJlGFhCChGEKgl25yzdfJSFUHh0Mougrk7Nw1pKzcjlnT/fDp5n9D2+KrQAXLvrFM/xdHUgfmCygKqPnYsfbd5/nvck/fOnKexsB5Fj7H1yRezd/tR33HJuGYQhRH1957d4wYL6sm9yiys/+DxOO+bJu71QMXJRn9eg5EL+/GJXF5akJuVVUHxOw2faNyGfF6LaOETTorO+LIQggow9NwKvjWOAuMLNEdfoHBZBgiAI7YkIIEEQjALxk6AEC4wHZhz3NJkoaeEzaIcjTTvqQRtvhPCcjp9KhDKKqqmqtp6eGHFtQyvOo8fPqKSqjjfGYw4ALlRLzvvTGBtXs0JoxF5nrii5RmdTQUUNzzV0posUElzvwEjaduACfd5vhsnEWIe2c/5iwCyauXwPu6c5ewZTbGI6D8uXV1RTHQb8u9iMEMQAKiEObgE0aeF2+rDnVBZ8f/liNP3uk+Hc/mcYv/tkGP3p8xH092/G0LdD5tGslXuVgHJk++quhhY8MH7Iyi3kPUYwXkDLIvYZ/Tx22SsrfDrQ9gdzBAhiPL6zWx3hnFhe84j8Ewto3dWgV1Z+UIHttdme7eghYnAzwyEskyuuqAg/esXsHW5GYHeXT3w+nfdK5GovqkJDdzvRTxtNCyHt+Hjofgy/Tlff+yUIQvdGBJAgCEbB3p3rAQ1W12h/MXWXGEkU+v8XnfXjPn5UddIKK5WwqeWhZiRexhL4htai59zuAlc3mCzA5to9Jpf22EVyMoSkyNhrInqrBA3zRLvtIihGJUyd7SKl9+zcsPekn8cse2VrFEIv9PzfD4dwooxqyvDp62jF1mN0+UVrHAwHutqMEAsEJcwwv4TjhB01BBx2BPUYvpBnoJrGN4PmqD9fwPbVExZspQ17z5Ctix+7zlXXPHzxrF0HiJ8Cdd5DoxLo4i1n2rDnDE1etJ16j15CH/WaqsTPSPqPd36x/zYVcMhDpWj/yRv8XjtbyEL8hKQW0Sm3eN7xY+6GBvZ62ThEkVNEFsVmlVF++UP+nOLz+qrPGUQLPvf4/MPdDa953T+FW+SGKRFk+Ho6cLMDn3dUdrFYuavv/RIEoXsjAkgQhJdAclOnkpyozFJecmpqz49hy9tZjwSKUYmSqYpPSymurOWdJJgtQEXJVCVIt85guSISJggoHHdnoSsHISpxXrr5iEr+Z3Hlw1wlSIdhRWjv8et0454neQVGUmRcCred5RWUdJnKEM8CJWWQm08oCyG4vkEsQMA1jVXbT/Cf7z56lU5duUdOXsGUmVvY6cJOX6/KqgcsNFMz8yg6Po28A6PY4AB7kqYv20U9RizkHUfmBK2OxkWtSgzCLhy24bAd7yy061tWSTVd8WtofRu007HZ5wmByg8+b5jhwXyPZ2yuEiIPlBB5/RbT6trH3PKKdtiVlwL5++KnV7TEjbVxpeMucRScUkRlDx69eBZBEATLIgJIEISXgIjAVniIivlnfE3u+dGVH4gf25B0Ss6roHKVsJiq+LQU3GHGDEBAUgGLoFdVgiCCUAU66hxLgckFKmHqPFc4PSyP6oGrdwht2nuWvh4wu8WJs2FF6PN+M+mHYQto+Iz1tHTTETpw+hbdcfTpMpWhJ0+e8t6eouJybhVLSc/hmZ6YhLRmgT9PSsumjOx8Kiwuo4e1dZ0u4HSlB3bW91z96fDZ27R4wyEaNWsDV3tw/tHa9/tPhtN/vte/xUL2tx8Po++GzmMR7O4XxuIHu5c6C+36Fp1VSltvh/Lcj7GZHH1DA+IHBiNolcstbRA/bWlFe/L0OVUpEZScX0n3wjJpx91wbl81fH0dA3c4chusuMIJgtCeiAASBOEl0OYC44MzHgncBmMsScGdYiQqaHtD5QdD0OZaY1qLrgTts4/kBY2m3KQG7nSkZRcD6IpfCg94tzf6jvpDlRii6pSvxOKDusdc9UJCj8QaMzLOXsG0YK1NqytBhoFBeyTj2DcD5zRdGfLwj6DgyASeUYHDGEQIEvrS8kqqflDDxwFBZm1oIQrDAbiuwXoa+3fgtIe2PcxYhUYn8vm7ec+LDp25Tcu3HKORMzfQJ32m0W/Vtfr3d/oZvRavCl35wZ4n7P25Ye/BLZEa3BjAZwvW7RDq2MPTlkppS9E29h6xuTT/jI/J1jfdUgozEj8lfszN+rQWPRt0LzSTliqBA6dICC7D42iw13ahbXfCWbTJglRBENoDEUCCILwEkvp7YRm0+WYIDdvTvGdf3ymedtST79JiPgCVH9wlhnW2pdCVIJ/4PJ4fMOUmhXaa4XudVMIUxi5z7Y2+o46WIpwnVL/gbKcTWm6tqqunrJxCNjVobSXIMP5NJdYQQX/5cjT948dJjZWhQZNX0ZTFO2jF1uO078QNunjLhe65BpB/SAzbVEMMQQRZG7q1rUQJwZSMXN5ZZOvsS6evONCeY9do5bbjPNOD8/fTyEX0Zf9ZvNAVy0xh0Q0hg2qcsWvxqtCVn8UbD9F9jyAWP5gL00D8RGWWkG9CHlcr4aCG9rD2BtWXuJxydn7DAmNTs3xsKnI3gpwjs9Xv9gOL39DQs0EJ6ljOeyayZTZuohgeB25y4HO+4KwvuSvR1tUWHguC8GYgAkgQhJfIKKriFhg4N2F5qWGCwoJDCSO4vQWlFLV55sccbNvrk/SKhKmhHW/ROV/eV9Re7lG68qM36MO1Dg5XOA93g9PZya6i5hH/DH5WV4JcvUO5ha2nSrYhYJAowwrbWBLdmvjVewPob1+PoS+VuBo8ZQ1NX7abKxk7Dl2m4xft2IwB8zlBSgBExqbwotb45ExKTm9oRUOCXlBcxu51FZXV3M6GgM3106edn3A+V+cRe5EgIjBvpI9PV3RQ8UJVJzUjT72vLJ7fCY9JZsHj7h9Od5XogVU3Zo9w/icu2Ma24zBm+MsXo15bkOpobFn8aCi998NEtrvGzJNh5UfbyWMO5qpfMh1wjKIjzjF0OyhNCfZfhHN7gUoOqj977SP5JoKxz0/PTba8rwu/x6jStKetPOZ6ApMKuW0VFSdTO78mHnanq/4pfHMBFVZBEARLIgJIEISXSMit4J0fg03Y5HLL2YUAuuSTTGkqWWrrzI85UF2Cs9xxl1iTi1iRxE0/7kn3wjPbzT3KcIP+ikuBbNc9er8Lz0Gd80zgnSi6ZUdXgiCCgiMS6NwNJ5qzej99P3Qe78IxllS3JnjPzHv9VQI+hBN6zKt88NNk+vTn6fT1wNlcJcIsy/Dp62nuahtaveMkbdx7lnYfazAjgEC67x5EPoFRvNwTrXSI9Kx8XvrZ2UD8YC9SrhITWDKrj09XdLBz6fRVB56N2rj3HLedzVi+m8bM2UT9J6ygHiMW0TeD59FnfWfSP3pMpre+GUd/UucJguU/3m35TI+p0C1vWAa7YN0BPhb/0NhmlR+IH1QmIXiWqt8TmIqMsXFhMwIWQe1cCcopfaCEV4pJ84OGljNn2qrEfFhaMVdp2uMGggYzhnCUw4whDEx6bDDekofzZOMYTd4J+dzCJwiCYElEAAmCwCBpR3IC9yVY0ZqaFUDCf9AxhucESjsgMalTYiZPiRpHJW5Qlfp+/V2jd40xr3TeSyXycKJ72Lz1S5s7QLS9TmDOCc54tiEZnEzqPSoI/Df+DItZIYIw4/GSEHpUz+1Y12zdWYhgnueL/rNYtFiqImQq/vsfg5QAmMSzKXA0QxUE1ZD5aw7Qqm0naKvNRbI5eZOOnrfluHDDmVv30ErXNAJUch8SmcBVFlRbUFGyRETGplJQeHyz1/P0j+CWPpyzU1ccGo9PV3SmL91NExdu53MJ+23M77z17bjXnuExF7ri8z//HMQW15/2nU4DJ6+k5VuO0s17nmz0UPXgF1tvPfODyg+EziaDllLsxUH1EBbRoalFRn/nWhJZxdXcKmqqkoSfwW4dU4uM+293YLOTsx6JbFvd3uj9X5EZpbTheggbqRi70YLP1NqrwercpfNNDUEQBEsiAkgQBEYLBMfwLJp53Muo+EEgkUJSkqGSpYft2Cqjwa6guvonnCTCRvdnlcQZs8XG4DRc47zi8qi4qrkww3u7E5zOyeDrBFqIUBnDbMKwPQ1JG84RAv8Ndy2IIJhHhKUXN84u6KF8DORjwWlEbDI5KYFx5Nxdmrlij8UqQqbi/731M4ughoWkw+lPX4ykt74Zy21bH/ScooTDdBZjXw2cw4FFpb1GLeGWrqYxSAmnsXM20Yxlu2nxhsO0UoknS8S8NTY0Ysb6Zq/XZ8xS+mnEIvph6HwWb/r4dEUH4hFVnb9+OZqd2jC/g7bA153hMRe64vOxElojZq6ntbtO0TU7dxaFaMdDex6c8TR65gdtb6j8DDWwf/5J/c5gvxZE/dZbYUZ/51oSmKeBWYipShIEGIQWKrc/GhEamP3ZeRcLhXNYSLU3DZ+H51xJRVV3lvquMdZq22+bA7flnXSLp/Si9hdmgiBYFyKABEFg0PefWlhFtwLTaIoSOYYJCQKVFyQl3vF57T77YwgqK7vuhps0Q8Dd9c23QskhPJONHAzRd8LnnPKmacc8Wci1JsYddOPX6KuStR82GLcFx11rbM6/4JVIoWnFvHzSEN3aFZuQTpfvuDZWhNBK9VHvqfR3JU5+04Zh/PYKLQBQZUG1xXDh6evGP3tMol8rgWbsNTsz/u2tvnwdILBgkvCdEmK4TgvXH6SDZ26b3GdkOPOz+kog/14Y/r7o0K5nxn7nWhIQ3ah8mtqbg4ooWjS1YDd8fczhYDlquBLtmGHrKPiGRFAarb0aZPT8aFc63HiAhbYgCIIlEQEkCAJjTgBp97dF5/w4uW/v2R9D0J5zWiVqc5QAw91hw+Mbsvs+rb8eTHdD0jm5MkQLIIgf/CzagVoTvbbY00+bbFn84FwYvr6uBA3Z5aiO0YuOu8ZRelHVi1f/BT3cX1ldw5UDXRE6c9WRZ3QmLthKn/Wb0W6tXK8bugUMVRZUW1BRskSgOoUqlbHX7Mxg+/G+M7g6Bee4E5fsyMU7hCLjUnkpral9RoYzP6Zm6XRo1zNjv3MtialHPblKYkoARWeWsl29qYruxEPu7OYIwdYRrnSakqo68o7L46ot5n0Mj0tXyGA0gmMTBEGwJCKABEFgzAkgJP5oVcEdWziedTSYA7jun8ptcJgbMDw+DHjjbjgGvo3tAzI3C2GJQIWsvxJnaCE85hLHr2kOXRFKTc8lT79wNihYsukwjZy1gdvAdGUILV9//mKkSswHszW2saRdouWhBd1//2Mgt9D9/eux9MFPU7gd8IehC2jYtHW0ZONh3hPk6B7YbMbHFBARSNhvBKTSvNM+Jls2LRXmKjiYW8OMj7HHIqYe9aB7oRnq89Ww9LSjqKipV8dcQqfdje8bwznDAuQ1VwIpthO+bwRBeLMRASQIAmNOAPXabEdj9rvQbtsINgToaNDWZq8SNewEGra7+X4itKbNPGG68tLeAkhXyCYfdueENCTVeAucIboihBmhotJySs/Op6j4VPIJjmYTAF0Zmrl8Nw2evJqrEqhOGEvqJVoeuqXv/R6T6KdRi2jCgq20ZsdJOnz2Di9IhQkDqnOo9mCnkuGMjymePH3Ou3ewTPiAYzRNP+bJibyx3xlLhLkKjjkBhJbWgMQCFj/t6f5miBaKV3yTaZL6zBgeF24mQATBkAXvQRAEwZKIABIEgTEngDq7Jx8CCPM9aInBHiLD48OddrS3HXGKNVp5aU8BhGQNr49EbpcSiP5Jbd+kb1gZunzbhfYdv84OaCNnbqCeoxbT90Pn8yLPD3tNofd+mMCmAH/5YjSbHXTV1rL2DsNWvd9/Opz3Jb3340T6qNfUxgpPv3HLadSsjTRn1T7atO8cV97gfhedkEaFJeXNZntaS3FlLZsToMVr2lGPdqsE4XcO1SaYCsDC2hBzAghW1CGpRTzP15EtrS2dOVygjj1SiUlBEARLIgJIEATGXELS2T352B0CC2pY58JC2PD4zNn5tpcA0pUfJKJYIBugxA+Ota2b9A0rQ1m5hbzENDo+lXfhYB7lup0HHTl3h9bvPs1uapMX7aBh09ayLXRXNRdo7zA0a+g5cjGNm7uZzQtQSdMVHjffMN7bEx6bzAtisf+osKiMKqse0COInzYKAlx/uKrh9wEiqL0qQW0VQHChg6lJey9kNcTc943+XGEBMuaYBEEQLIkIIEEQGHMJie7Jh6tVdFYJJ/ewtO0oMNdz2bfBUtjYQkf82YpLAXTNL4WXPxqCqtUeu0heXtprs32zx7c2cHcaO4kw84O2N0tVfloKdgthyWpMQhq5+YTyYtOz1+6TzambtGHPGZqzeh+7lvUes5SrRT8OW8DzRF/0n0mf9Z3B1RBURd75fjwHqiSolhiaFLS3vbSOpnbdTQN7kv742Qj6y5ejlagZy8eK4/6g52T1PqbTlwNm8ftCNQzvc8DElTR69kaatnQXLVKiB9Wd4xft6LajN3n4hVuswtNSdCXIRomgGUoE4fcFib2x36nXCXP7r8wJIFRNHSOyuMIKK/yOAi6SMdllvFR44iEjM0CdPHMoCMKbjQggQRAYs3dkkZSohB97cIJTixoXfXYU5io4erGkXUgGV2AMic8pp3XXgrlSZIkEFOcCbU0wPMDMj6UqPy2FF6zW1VNlVQ0n9Dn5RZSRXUAp6Tk8sB8Rk0wBYbHkFRBJLt6hdOe+D5256kAHT9+iPceucTUEVRHsIkKMm7eZBYShTXV7LxjVoRe2Gr7+90PmUd9xy9iNbfKi7TR71V5auO4Az+vsOXaVjl2w5feFahiqYn4hMRQUEU+h0UkUGZdC8ckZlJ6VR7kFxVSszpOlKjwtRVeCgpILuT1z7ikf/h009jv1OmFu/5U5ATRRifer/imUlF9BD4xUkNqLkuo6rjztdzDuAtfZM4eCILzZiAASBIHBEHR2yQM2GsDMgmFComP6cU9yic5uXPTZ3jz/17/oiUr2Y7JK2QABO0OM2QqP3OvMFR73mFwqqmq+0DGjqIpb1Jac9+e5Ajh0tSWw72f15UB2e8MMRUdVfloLCyWV8JeUV1JKRi6LguCIBK6GoCqCXUQI2Dxv3n+OVmw99lIs2nCQpi3bRaPnbKIBk1ZRn7HL2iXguoZ5HMPXX7vzFO04dInd2M5ec6Srtm5028GL53WCIxMoTgkciD5Uw/A+uyqlKuH3jc+nM+4JXNUw9jv1OrFeiXpUUYJSCsmYDTYc1FZcDGCrbVhuG35uxti40BHnGApMLlCPby6g2gt2dQxIpZXqMwSrcMPjMjfTJwiC0BZEAAmCwGCvT2VNPd9JnnXCu1lComPCITe66JNEcTll3MbS3ujFkv6JBSw6TC10HGujknhX0+5rqHClq0QqOrOEh6rbGlEqYrPKODlD4tlRlZ/W0rB5/xnV1z/meSJUQMorqqi4pIJyC0ooO6+IAzMwmIVBS13TiFKCKSxaJdgR8Vxd8Q2ObpdAtQpVK8PXj01Mp8TULBZvGTkFfKyo5hQUl1GZeh9wZ8P7qq3rmJa216X+yTPefQMhjpYuY79TrxN4rqziahYveA1DzC0QNrc/q71IKaikffciadxBV+q9pXlLqrmZPkEQhLYgAkgQBObZ83+pJP4ZCwhYz/bYYFxowIFt2+0wuv9ibqC90a15NwPTuP3N8Hh08DC4fyonVh3ZyiMIXRmIhzMeCSZb7zDXB4OGw04xlJhX0e5ucLDarnn0mIJTCmnlpQC2r8e8j+FxsTC7poRZsBJmZR0nzARBsA5EAAmCwDRUCp5zy8ymG6G8bNRYq1mfLfY89I8dJxAb7U1hZS05RWbTtjvhNHyvc7Pj0THjuCe5R+eYvBMuCNZIo338TeP28drcZPlFf55ja283OK7EFlWxsJmpPrMQP3B8MzwuzP8cUaIsUB1TR7bmCYJgHYgAEgThJfSszKzjXuzCZJiY6IQJbmyecbntNguk7xRj9ufQ/WiePcLdYmPHg3kBOMCFphV32VY0QegMKmoeUWhqMZ10i+c9XoafHx1obb2E1tbsMn6MpV0e+QaLek4IMtfoHNptF0Ej9xm/oQHDFRixwJAFbasQTYIgCJZEBJAgCC8BxyqXyGzaeTecRhipuGg3uPEHXemgEiY+Cfns6GRp9J1iu9AMWnjW12SrjB6WRgsP5h0gnGCcIAhCy81NBuxwoEXnfOmcZwJ/jizt8ogWW1RmUWHeo8SPqdkfvf8HRiWY+8NuI3ymBUEQLIkIIEEQXqK69jEvOsU+HSRM2HUD0WOYqGCeAC5Ux1xiKSy9mI0ALNF6pis/ED9OkVmvvFOMaJxJCu+YmSThZbA7BsPzSJqR3MJ22VjAyhgmALX1TyWh7UCePH1OVeozHZBUSMsvBvANA9zAMPwcod0VDov4Gdx0QHsrTE7aWgnSLo4VDx/xc94JSuPlq6bMTH7aZNf4mU7shIXLgiBYByKABEF4iZYmTD9uuKtE0D2ac8qbh6yDU4pYBLUVXfnB3M/mm6Em7xTrEPODzgXi505wOi+CRRsinLuMxc67EewwCPtjiCChY4ChARweIUAxUwPDA7SwGn6OIEYgSkbsdeLP/QXvJP5MtbUSpF0c4Rp53iuRll3wZ6FlTPwgBu50VD8TQFd8U7hyJQiC0B6IABIEwSgQIcecY00mTDoG7nDk3TqYMYBoQtJSroRQS+/06zvEqPoUVj6k6KxSbtdBmwza7EzdKdab4pF0+ycV8N3q9hzeFoxjbkGtDhaqAamUqpJqtDUJHcsvra0RvDzVWFUXoStBECowKojLKWeR21JzBD3rg51YqPpkllTzbN5VvxT1PeFnco+Xbn3D7wlmEE3tNRIEQbAEIoAEQTBKWXUd9+AfVsktliUaJiw6kLRABE096skVm8s+yVwNaumdfn2HOLWwklveYHiAfT9oe0Plx9SdYrTgwdoXwis5v5LvcnfEZn/hZUQAdQ/0LJBDWCbNOelt0uZeV4KG7b7Pczg2DlFseY92NLTHmkPP+mAZcURGMd0OSqOtt8PYxGTwLkeTNzTw53CeXH0liOcKxc1REIT2RASQIAhGqVPiBfs3XKOyacVFfyVyHFjsGCYuOrBkEXeWUQ067hLHMzmhqUXcegNnuZzSB5Rf/pDndHBHGf+fl0LmlHEF52ZgKm2/05AoGXN706HvFE846EaHHGPIJ759TBiEliECqHug93xhTmuvfSR/fl7VWqrdHmF5j3mcq37J5JeYT/E55XwNs0qq+XMMm3oE/jujuJp3CUVklLDTG1pj114LolH7nU0KHwSqUbiJsuisH13wSuTFroIgCO2JCCBBEIyCnUB19U+UgCnnpATtK0hSjCUwiO/W3WURhJ8Za+NKs0948aJDuMmdcoun6/4p3NrmoISRbUgGt8Sg1WWH+vvF6rknH3Gn4XudTLq96Wi8U3w5iLzj8qikqn1suIWWIQKoe6D3fKEVzjs+n/d4jd5vurKr3R6x9wumBPh8wo1xw/UQOqgee9E7UX2O03lWD4E5sFPu8WxasuZqEBukwFobC017brYzLX5e3NCYdtSTq8ew4UY7qyAIQnsiAkgQhFeCeR5sbT+jkhu0zvTf9upKkA59B3nUPmd+HMTQxhshtOVWGCdRGLSeqUTSKJWEIUEy9hxNQydKSMYwn3DJO4myZEi60xEB1L3QlV236BxacyWIhu124hsXpmaCdOjWOFSCURWCZfb668G8oBix9lowzT7lTWNsXLk99VUVHx14TZis4Hdjj10khaUVyyyfIAgdggggQRBeCfrw0Y+P5ASmCJi7QYJjLKFpGvoOMpIrmBUM3ulIQ1WyNUwJmKG779Mg9f9R7eG7w0Zc5gxDV34gfnDnWVzfugYigLoXurKbXljJJgdbbobSmP0uJmeCmgb+HjchUBXC3iBUd4bvdebAf/dT3wu9Ntvzz5gVPy+eC78XqAQHJBVQYcVDmeUTBKFDEAEkCEKLKK2uI9/4fDrhEkcLz/i2+M5xW0O7vU086EarLwdy5Sclv5IePbbsosb2RrtjIcHDQDrsvnXg/1t68WRH8aYLoDf1uul9X2hL3XIrlKao64f21ZYIobYEnrvnJlsauus+zTzuRfvuRVFgciEVV9Wyc5wgCEJHIAJIEIQWgUoQFllGZ5bSTZXItubOcVtCu70ddIzhmR8MSD9QyRsstmGh3V3Q7liVD+spu/QBpSrhgIDdOP5/SXX3nGV60wXQm3rd9L4vGBfA3OCsRwLf2ECVFdVWY9fQEoGbJmiLxc2MO0HpbMpQrL5XutsNDUEQujcigARBaBX6zvG9sEw2OMAi1HEHXPnu8U8b214RQtsc5gLQJoc9QGh5O+ka323c3pDE1alkrkIlzPkVDzlRxvmKyiyhkNQiXgaKu+63AtM4YBOMzftwzYJ9eExWKf98ukqy4ZpXUfOoMTlsy0b+9uJNEUCWvm7l6rqhQoR5lq7c0qVvbISnF9M5zwRadzWIZhzz5Fk7tLr9/9t7D/coriz/+594f/t7993d2d3J2eOxZ5wj2Jhscs6YIHLOOWcQOSeRRJYQSAjliHKWSCLnnIyN7Tnv/V64jKapVle1WqJFfz/Pc57dMa3q6qq6t873nnvO+UKNx6qMabPVDfmAHRZFyYB1CTrihGcBzw6FDyHkVUABRAhxhFk5Rp8fNC2Nyj0vq6IKtVCB01TViBDETx/lgKGnUEhCmcQVXtQ9SGpLtTc40SgJnF1+Q8KzynV+A37LKHV9hmxMkv5rE3TFK2w5MtZ7VawErYnTYhKfw+eRbwWHO0c5pqjc5a9brV4XAeTr+5Z5+pqOENltIPqqMOWxIdjOXr8v6Seuyq7kk7r0NYodYDxiUcLqntoxk7s3QF2/xeF5ulocGqOiDD5y+GpbJJcQ8npAAUQI8QrjOGG1GwnMO5JOaKcJpXL7KgGD6A2amZqCB9jK1mRWuF5Vxmpwc/W/0RW+/aJI3Wi1x/IY/XeoFrcyskA3bHy2Pca/cwMqbpGCU5d39qYuC4weKNP3ZCjHOV79TvcNIF0Nn8N1wbVA1byNscUSnX9ebz2Eg4ru+Pg+f6G2CqDqvm/rjhXpCBEEBa4RCol8+/1TLWL9MZJnMBFeND9Fuetx29J01Ab3DxXeEMXBQgeuDXLzMJ7NmEahk/bq3zotPirdlh6T3uqZQDPVqaHHZZ0SlHGFl3SEDPlThBDyKqEAIoR4hekrgm0+KJBw/sZ9HamBw4ftcVviS2XxoVztDI5Vogar6HAOe6+MkX5r4mS4EkpTdh2XhWE5erU9NOWULs2bdfqanLx8RwsrOKf+vkVGbyFSvx9bpbByPmd/tv6t3ZYd0xXv4CTadaJh+Bw+31SJRYhH9FJBTxVsG4LIxHYriCB/obYKoOq+b12WRusI0YQd6TqSiUR/NAH296IJJsKLc0WlRVR/xLjEvVt9tFCXq56Lstc705UwitdRIhj6fk1Sv3X+gWxZroTTlrhSOZR5VpJKLmvxDuFz/e5jfe8R9SGEkFcJBRAhxKeYPiPIiYgvuqhXwdEEdbNyiFZGFSpnOV87UhBIKMMbU3BBMk9B9NyVW/f/me/i7zxVTtx95cwhKgMnD78PvY3s9jWya8axRqRstDr+2mPFklx6RQnOB9qZfNURhdomgGrqvhlDbtzILSnqmS9Sz/pF/Zwjr8vfc4MMWije+1aLofSTV/VvwLZX5EAhyoWGqjAsYiA3KjrvvCQ/Fz0Xbz5kXx9CiF9CAUQI8Smmz8jdR0/09jXkVWCLERzOU1fvakcKTjP+N/KIrt19JLcffKsru32nxE9tyQmAE1166bbuSTR513EdOWgx77DtvkZODCKo/vQwfXwIDay+o2s+xMSrjijUNgFUk/cNhgIAEEH4/eO3p2nBha2d/p4bZDBbXZGvg8gj8tEQHbp464EuFIHxbMY0xjl6+UAw3Xn4nTx68pR9fQghfgkFECGEOMBEEMou35H9x0/rfBFsmbJyfqvDEA1CrgmS7rEKj3wNiM1XFQmqLQLIX+7biM3JsiPppOScueHXxS0IIeR1hgKIEEIcYCIIcKKR29RGOdGIzlg5vdVhZktcq/mHpd/aeFkRWSDFSgS9Kke6tgggv7lv8w7rXLhF4bk6L6i29hEihJDaDAUQIYTYAFvzHj75Xm/3QSlfOxEE9E+pr5zeFnMjdPPHHsuPKec3ViePo7ABbND6BF1lC+WUIRLwOVTIQ8PIupPdb8kyDjVEECJBOC/kW9R0JMjfBZC39w3l3JvNjtBVzbov8/19Q4GETXEluv8OKsS9qggeIYQEIhRAhBBiA5TuRc5DRPZZncvhKYJgGkCiZDB6JAVH5MnO5JNyNO+8rpSXW35DG6ps4X+jGAQEQnBEvq6QB4cazrTVsY3BmW71fDvc1oQy7eTXdCTI3wWQt/etjbquQzYkyfwDOTrfytf3DaXhUTIeZbexLY9b4QghpOagACKEkErQ5b6VY4rEb3T9XxCWo/sbWTm2MDSNRPNI3fV+bYJujgkHOqH4kpReuvNSXyOTZI4EcwiYxOLLukLerH1ZMmhDonaoG80Id9uN3+SWwLlHhS6cJ5p61hT+KoCc3rcv1H3DdYZgRQ+g6bszZJMSJ9F5F6T4wu1qvW84PxQEefwdt8IRQkhNQAFECCGVAEcXpYBRuQs9i7oui5ZGM8MtnVoYxE+f1XG6V0p45lnJK78h5dfuaQcaTSZdy3xrR/3Hn3QEAJW2bqjPoUJejvq7wznnZGlEnt6ChS1ZiBy4fp/ZUoVeLGuOFkraiSt6S1VN4a8CyOl9w7/hOkP4HMwo11Ee9K65pgTUPYt+VL66b+jzhDLS8UWX1DNSc/eNEEICGQogQgipBDR6PX/zgd5CNXB9gnZarRxaE/lB9/vF4Xm6V8q5Gw9ecpztYvopoZfSvAPZWuCg2767iILpN4OtcBAlNdVnxl8FEKJgiP5E5Z2XwRs83zecH5qhQvyUX7tfY/et2ZwInVO0PqZYR5JqS38gQgipzVAAEUJIJaBUMfI/5h3M0c0yrZxomIn8QPyklF7R/VDQB8Xbvkamn9KlWw8kteyKrIsu0s60u4iC6TczYUe6ri5WU31m/FUAYWsargOa7nZbFu3xvqEqW2LJZS1ecH41d98OKBF0SMZtT5XUE1dqTX8gQgipzVAAEUKIBSaH5PTVu7I2ulDnhXw9+2UHH05tg+kH9XanRWG5Op8DoslXmE78KcqZnnsgW39PZVu5eikhgmpn2I4FAVbd+KsAQlNOFJ0YE5KqCw64no8pdtB1abQs9IP7huu3N/20LtiAwg2EEEKqDwogQgixwOSQ5J29KdN2Z+hqa9hG5eq4ouIXEt6nhWZIQtEl7URj+5SvMMn2SJJHngjyRTotOfrSeRjDv0GQJJdekZv3qz+nxF8FUNmlO3pLW/tFkZZV2XAvW817VoQgrvDiK79vKNCwMDxXYtW5IF+MEEJI9UEBRAghFnz/w49y++ET7bwO3ZjkNofkWe5NsmxLKNM5P9WFyS2Jyj0nIzYn661byF9xPR8ItfE70mRP2intfFc3/iaATN8fFIMYvtn9fdO5N+sTZWNMic75qS7s3rfmcyP0+W5NKFXPUfWdDyGEEAogQgixBNuQTinnfm/aaemzKtZtDknn4GhZHVUo6Sev6ryT6sLklhSdv6UFR9/VcTq53vV84GCjyeaKyAJ9/tWNvwkg0/cH2wCR2+P2vi05KivVNUorq96qeXbvW8MZYepZOqrLdaMvECGEkOqDAogQQiy48/CJbna5/lixzhNxdVhNDsmAdQlyOPusXLz1QFeMq24u336kK5VN3ZUhbRZEvnReiHigvwzKOReev6nzmJDPZEBi/9Mff5RH6lxvKsf/6t3HVTIIP+S4eCozjWu4IaZYNw+FaLI6lh3DVjVs7XNXLKC23jdEhSCMJuxIk/xzN166b4QQQnwHBRAhhFiAPAzkY6A6GHJ8XB1Wk0MyZddx7XDDicb2q+pGVzcruyqrogqlS/DLDj4iHji3EZuTJOPUNd2npmI556fqHO9/+72cvXFfJ+hH5p6vkqH554gtydJmYaTUt8i1MQanH6JsS1ypHDh+xvJYduxY/gVdZa/04m3dV8mV2nrfUCYbImjopiQ5bnHfCCGE+A4KIEIIseDS7Yd6G9Uk5Si3XnDkJYe18cxwXd54aUS+7t9SU+gtXlfvyb7007rim+t5Geu3Nl7iii7K3Uff6XwmwxPlWF9TIiHz9DXZEFsis/dnV8nGbU/TZaabzj4kX059ObfFGKIb2P41bluqLiphdSw7BmGDSJK7qm0vIi2h1pGW2nrfCCGE+A4KIEIIsaD8+n3dnHLA+gT5ek7ES46qKX6wPaFMzldj8QNXdJL/t9/rKMjAdQkvnZexXqti5WBmuW7iWnGLF7a+IfpzOOecjA5JlXaLoqpkLecf0VvfIH6wvczqXGBmi1ereYe1MLE6lh3rsTxGRm9Nkc1xpbrUtysoRIFmsMM3J+t75HoetfW+EUII8R0UQIQQYoGn5H5EhbCNCtu5UOWrpkF57iEbk146L2Puig5ULO5QWSTCX+1FBOewdQSn/No9WRtd5LZvU229b4QQQnwHBRAhhFjgSQC1XRgpM/ZkSkTWWbly+9Hzv6o5KICsBRDuG6q7oRIeKuK5/n1tvW+EEEJ8BwUQIYRY4EkAtVOO9Ox9WXIk55xcuUMBVFNmRwC9jveNEEKI76AAIoQQCyiA/NMogAghhFQVCiBCCLEAjjSaiUIkWG2lQiI/qpmFZZbrymM1henjk3n6ugzekPjSeRn7ZkWsFjmoPAbRY3jdBRCaoKLUtLuGozoHKPS4HMg4oyv91RTo6YOy1jlnrsuQSu4bBRAhhFQ/FECEEGKBSabvtyZel3h2dVRbzjssY7elyq6Uk3LhZs1VEzN9fBJLLutmnq7nZQziBuWgUemsYjWx110AnbtxX1eIG7oxSZpbVO9rPjdChm1Okq0JpfqzNcWPP/1Dvnv6oxw/eU0GracAIoSQVwkFECGEWPCinPIm63LKEEXo2bJGiSREHWoKiBmUSA7PLJc+q9wLGERAjuad141B0fvHoP9e/bZo9W+ohgaHuzYZRB/Oe0fSScsy1hdvPZQ9aadkwvY0aT2/kv5NSkCVXb6jozKIzlQ3ED837n+rG7lCVLuelzEUbzik7u3FWyyDTQgh1QUFECGEWPCioeYu64aaX007KK2Ugz19T4YUX7z9/K+qnzsPn+jtb+uOFUvXpdEvnZcx9JpJO3FVnnz/g3byDWiueffhd3Ly8l0tkBBtqE2G8tU479zyG7pZqCtojno097zMO5At7RdFvXRd6k09qAUtGtzmqGN8p8RhxetTXdx7/L0UXbgt2xJP6F5GrudlDAIvtfSKFj/oHUQIIcT3UAARQogFN+9/K4nFl3WkoNOSoy85qnUnPxNBQzcmSkLxpRrr3P9CmIVaC7MvphyQRjPCZdy2NCk4d+v5X/0TbMV68v2PSkh9pyMo2GpVm+z01bt665prZMugBeIp9wLR3LdBGxLkaP55LZggEqubq+p7IpUwm70/Wzd0dT0vT/eNEEKI76AAIoQQCx58+72UXbojoSkn9ZYpV4cVBme6x/JjsjmuRPLOWkckfA1EQHBEnv5ebOdyPadG6r91X3ZMlhzK01EeV3Qy/o8/yfdPf5THT57qPJPaZo/UebtGtgxmi19lWwRx37qr67cxtkSyz1zXoqm68VSdztN9I4QQ4jsogAghxAKds3HvWc4GtpNhhb6Oi9MKQ57JpJ3HZU/aaTl7/b48/eFH+ekn3+eUmByS+KKLMnpris5B+nLqgZfOp8W8w+rfU93myLzuPP3hJ73dLLnkigzbmCRfTT2oBY/rdap435DDVV1b4RAVvK0EFopWjAnhfSOEEH+AAogQQiwwW8WyT9+Q8dvSdCnsL5UIcnVcG0wPk46Lj8rMvVmSceqa3H/8nRZBvgZb8pKUE40oAiIFcKLrWDj2HRZFycKwXIktuKi3iQUaEJ8QHflnb8q00AxpNe+I3vLmep3MfZu+J1OSSi8rcflYiyBfA/GD5wJb8lDEgfeNEEJePRRAhBBSCcg5WX44X2+Ds9pyZnJKUHVtR9IJKTx/S249+NZnkSBdtODRd5J79oauOIfeP80syjsjOoUoFUpbI4pQcvG2EmOBW0YZ0bgNSnQgevf17Jevl7lvvVbGyIaYYl2e+uqdRz6LBJly5UUXbsnm+FIZuTVFR3lcz4P3jRBCah4KIEIIqYSrdx9JZM45mb0vS9otfLnoAAzONPoCjdicLBtji6Xg/E2fRYIgfpBftD2pTIZsfCZ+UMnM9RwQnUKUCtvjUkqvyL1qikTVFrB9MaHoks6p6WhRxAKG+4ZeQf3XxssyJXKPn7zqs0gQxE/ppduyL/20jNiSrMVPPYtIFO8bIYTUPBRAhBBSCViNx6o8iiHAUcbWqbqTX94Kh2gC8koggrCSj1LV6NfjVAj99I9/yNMff9RFGC7ffqiOc01CEstkwg7rvjbGmionGlGoVZGFOuE+0EHD1zPqOhw8fkZHgdzdNwgQXDvc2w0xJZKsRAhygpxW9XO9bzlnruuy3SiT3taNcIZB/PReGSsrjhTIqSu8b4QQUhNQABFCSCWYpHrkcczamykdF0dpZ9rVkTVbqlrNO6yFyJz9WXIoq1xKHW5pMlunTly+I2EZZ2RBWI70Xxevew5Z5bIYQ6nu5YcLtAOPfKFABz10UDEuWwnR2ZXcN2xBgwhCJAjb0JAThEaqTqv6ud63heq+DVyfIG2U+Klv8b3GmPtDCCE1DwUQIYTY4OKth9oxnrAjXfffsaoIBzNCqHPwUZmhHO+dySclteyKLqldfu2eXLj5QPfyQV+Yinbp9kMpv35f54ykqM8j4jQ19LjbctfGkFT/9exDMnJLskTlnlPn+UCXgibPMPdtorpv2MLorpqfuW8QSpN2puvS5onFl3T0DxEhd/cN/w1V2/A53Gen9234pmQlmMp1tApRK0IIIdUPBRAhhNgAzim2lu0/fkZvl3JXXhmG/95wRpje+tR7VayMCUmVeQeyZf2xYu0go0cNmmJWNBx3fUyxzFWfQ84IKoa1XnBE94eB0271PTDkBA1anyhro4ukWIkniB9EP8gzzH1D89ihG5PcVvOD4b4hSoSthj2Wx+jPIyKE4hPu7huOG5JQJksO5cqorSmO79uao0VSeO6WjlbxvhFCSM1AAUQIITYwZbGLzt/SifWoCofcEXeRIGMmxwSRBeSijNuWKtN2Z8js/dn/YpN2HZcB6xN0wn4DJZ6sjlXRTPI8ttutjCyUxGKUcubWN1fMfUOEZlVUofRT4hXiw9N9MxGhVvMP679xd9+mhGbI8M3JHiM+xnjfCCHk1UMBRAghNvjHP/4hP/74k9y491jST1yVddFFWgRVFgmCmRwTRBaw5Qk5QthC125R1L8YogZfK8cc4qduJZEDY3Ci+ygnGmIM54Pzqo4+NrUdc9+QF4U8LhQ6QK6Pp/sGMyKo8vsWKc3nHvYY8THG+0YIIa8eCiBCCHHAd09/1CWW4bzCiUV0oI0SL+6qjPnSIKbqTwvTzT0RTVoakS/R+Rfk2l0mz3viVd43mI4m8b4RQohfQAFECCEOMFuq4ExjO9yB42dk4o40t1XGfGV1Ju/X/X9QNQwJ/cg7yTp9XTvRT75nBMETr+q+GUMVv/Hb03jfCCHED6AAIoQQLzAONRLs0e9l5t5MXRwBlcaQC+Ku2phTMzkj7ZXwCVoTJzNQpll9X265szLN5Bk1fd/aLoiUnstjdGU5FFLgfSOEkFcPBRAhhHiByS1B40uUSEZ+CRzc2fuydG4QnF84wVbOsRMzOSM47t6005Jx8pqUX7svdx46a9RJnlHT923W3ix1/FOSduKqnOF9I4QQv4ACiBBCfACanaLS2JGcc7LscL6M25YmA9Yl6Opg2GbVev5hnUyPKIOVNVHWbHaEzhPBNrfuy47pSmGoPrYyskCOZJ+Tk5fvyr3H38lTOtA+w/N9O6KbpKKSH+8bIYS8HlAAEUKID3j6w0/Kyf1ertx5JCev3NV5HsfyL8iu5JOyNCJPb4EasC5eRxmsrO+qWBmyIVHn9ywOz9O5IkfzzqvjXFMO9B25cvuRPFDHR/Tgp5/+8fxbSVXxdN+m7DouwzclSb818dJ7ZSzvGyGEvAZQABFCSDVgqo6VXbojicWXZF/6aVl3rEiWHs63NEQLNseWyL600xJfeEkKz9+S6+rvkSj/409skFlTuN43FEvYEl8qq48WyfIjBbxvhBDyGkABRAgh1YBJtscWq+v3HsvFWw/kzLV7OspgZaeUnb12Xy7efCjX7z7WifJwon/48Sf56R+MHNQUL9+3h3L2+n1dNIH3jRBCXg8ogAghhBBCCCEBAwUQIYQQQgghJGCgACKEEEIIIYQEDBRAhBBCCCGEkICBAogQQgghhBASMFAAEUIIIYQQQgIGCiBCCCGEEEJIwEABRAghhBBCCAkYKIAIIYQQQgghAQMFECGEEEIIISRgoAAihBBCCCGEBAwUQIQQQgghhJCAgQKIEEIIIYQQEjBQABFCCCGEEEICBgogQgghhBBCSMBAAUQIIYQQQggJGCiACCGEEEIIIQEDBRAhhBBCCCEkYKAAIoQQQgghhAQMFECEEEIIIYSQgIECiBBCCCGEEBIwUAARQgghhBBCAgYKIEIIIYQQQkjAQAFECCGEEEIICRgogAghhBBCLPjpp5/khx9+0Ib/nxDyekABRAghhBBiAYTPw4ePteH/J4S8HlAA1SJ+/PFH+fbJd/Lo8bfaHj56LPcfPJS79+7LzVu35fqNW1WyGzdvy+3bd+XevQfy4OEjefztE/n+6VP9vf/4xz+enwUhgQlWf7///nv5Vo0LMwadGv72u+++V2Oq5leSXecPp8b5gLzO4JnGs4336oVLV6Wo7Ixk5BRLQmquRMUdV5au/v8cycovldNnL6p37h09lgkhtRMKoFrEE+W8XL12Q86ev6TtzNkLcuJUueQVlEpiapYci0+rksUnZ0hGVr4UFJXJydPn5NKVa3Lv/oNX5rAR4k98//1TuX3nnly+el3OX7z8YhzatXMXLqsxdV1u3bkr3ykhVdO4zh9OjfMBeZ0xCxxnlLgJPRAlk+euli4Dp0njLqOlYaeR0rDjCGnceZT0HjFHVm3aI8lp2VoEEUJqJxRAfgwcrjt372nHKaegTGISM2VveIxs23NE29bQCNm4PUxWbNgts5dslKnz1lTJZi5aL4tWbpNVG/fIph3hEnrwmByOSZWEtFzJzC2R4tIz+uVwWTlxt5UT9+gxtwSQwAHOf0HxCYmOT5M9YcdejEO7tnN/lBw4HCepGfly8/bd50etfoxjd+HSNYmKS7M8NzsWHpUo+UUn5Nr1m1pMEfI68ejRYylX77dDkQkyYtJi+aJlf/nlu63l//lDo3+xP37aSTr3myxL1+yUrNxi/Y7Gu5oQUrugAPJj7ty9L9lqgt28M1yCRs+XRp1GSr22Q+WL1oO11W01SD5vOVA+adZfPmjcR95r2KtK9n6j3vJR077yafP+Ukcd98s2Q6RBhxHSptcE6Tdyjkydu1rWbtoj4UfiJDO7UAszbI0hJBA4f/GqbN9zWEZPCZbWPce9GId2rUH7Yervxsr0BeuluKz8+VGrHxO5ikvOkoHjFlmemx3rNmi6rNuyTzKyC/TxCHmduHjpmoTuj9Lip06LZ+Ln399o+pIA+s+/NtMiqPU342T15r1KBBXJbSWCCCG1CwogPwZ5OdiahugMBIrrRFxT9l9qwn/zs05Sr2V/6dpvkoyeGiyLV2+XXQeiJSk9V0pOlOs901wJI68zJ8+clyWrQqR191Hy+4/aW46Vyuzf/9xEfvH3ltK+z0SJTcqssQgq8vmwpXXTzkNSp9Ugy3OzY+80+EZvC4qOS9VRIEJeBxAhxThEdHPS7FVuIz+u9tcvusmgsfNl1/5I/f4jhNQuKID8GH8RQP/3T421CPqVein86dOO8rd6PeSjpkHSpPNI6TN8lsxauF6vnHEljLzOVFUA/Z8/PhNB9dsNlR37omosgoriJvFJGTJDjVNEea3OzY5RAJHXEVPlLS4pSzoGTXYb+XG1X7/fVhq2HywzF66TkhNnnh+NEFJboADyY/xFALkzExlq1G6wXglbvm6XHEs4LidOn9PJoag4hao6xBkmZwN70rEN8tr1W3L+4hUpP3dJ25WrN/S1JTVLVQWQsQ+b9pVFq7ZLRnZhjWwlg9DaujNM+g6bKX+p08XynOwYBRB5HUFRD7yvDh5JlPrth1k++1Zm3n/9RsyR7LzS50cjhNQWKID8GH8XQCYy9Ov32+jtAF+1GSy9hsyQRStDJDk9R65co6PuDSZno/zcRcnJK5bo2BTZsSdC1m/dqy0iKkGLIFKz+EoAvV2vh4yaGixhR+J0QZHqBltUZ8xfKw3aDJRfv9fG8pzsGAUQeR1BefeLl67KrgNHdd6r1bNvZeb9hxzZ1MzC50cjhNQWKID8GH8XQK5mVsRadRslc4M3y5FjKXL6zAV58OCRPH3KanGumL4s2DZ47uKVF30n4pKzJTwqSUJ2H5Gla3fK5DmrpP+o2dJ76DQZOm6erN4YKqfLLzw/CqkpitX9mTxnte0cAXf2h086SIc+42XFul1ySo2P6sJEEtOzCiVoxGw9NjFGrc7JjlEAkdcR9OZCiXdUPf2yrX0B9P/+uYn8z99aSvu+kyUtq+j50QghtQUKID+mtgkgsyL2u4/a66p0vYbPlt0Ho+Xk6bM6EZv8K6YvS2ZukYSEHtLOpe470XmU3opRt/Ug+fjrIHlXOZ5v1u0iHzfpLV2CJsjS1dvVNT3//CikpsjILZGu6v7YzRFwZ//ztxbyfoMeMnziYskrPPH86L7HRBIPH0uRFt3H6LGJMWp1TnaMAoi8jmBx7t79h7rlQ4OOIyyffSuD+Hm/YU8ZMVmN46LqG8eEkOqBAsiPcSqATJL1z95qJr96r4388dOO8taX3bXjUplhS84bn3fRwuUX77SqsqNkDN89bNISCT1wVEpPlDMS5ML9Bw+lpOy07Dl4VIaNX+AxsoD706r7KFm8YqucOHXu+VFITZGSUSBNu46xvDdOrKaqwfmq+puxv33VQ0ZPC5bwyDjdDJaQ1wETKU3LLJRvhs3W702UurYaAxXtj590lE59J8jKDbsYkSekFkIB5Mc4FUDGsXqrbmep33agdOk3Sfc0wKptZYay1n2Gz5Q2PUdLneZB8pcqbpUx9rO3W2hx1X3wDC2CGAn6V27eviPJ6dmyaFWINOowzGNkgQLo1eIrAVRT1eB8Vf3NGAoo9FXzxNZdYfqcCXkd+Mc//qG3I586c143AUeT0z992slyDFS099SYmrlogyQkZ+qxRgipXVAA+TFOBdDP3moub9ftIs07j5Bx05bKmk275cChGL1lpTJDY1M4NcGrQ2TirBXSd8RsadFjrNRpPUg+aNJHOz4/V8IKThucN6vvrsxeRIIORusKcTXV/8TfcXp/KYBeLb4SQMaquxqcr6q/GcOKd+egCcxBI68lt27dlZS0HF3NtEPfSfKumpP//FlnPe/Cfv9xB/nz5511JPTjr/tJ7xFz5eCRhBorZ08I8S0UQH6MUwcZ294atBmkxU9UTKp2Ui5dvqb361dmqER19vxlLU4KS07J8axCiY4/rlenFyhnO2jkbPmkaW/5xTtKBL3RxPK7KzMTCeo5dJYcOBzPF8ZzKIBqF74WQNVdDc5X1d+M/f6jDtK25xjmoJHXElMOG3l5O/ZFyjQ1dnoOnqbnXFj73uOk15DpMmbaMlm+PlTn1p05e5ELeoTUUiiA/JhX5SCbxnAXLl6V9Mx8CQmNkFFTgqVVjzHyydd9be+RdjXkG02as1qJsxQtzPA92H8dqFAA1Q7MFpnE9Dxp0nW05b3xxqqrGpypLpiakS99h7uv/vZvf2qsx7HdnD8+fyQQeJY7d1ZiE9NlY8h+/bzDlq/dIZu3H5BDkfGSV1AqV65eV+PsyfO/IoTUNiiA/JhX5SBDlDxV4gRRmlu37+h+NFm5xXIgIlbmBm+yvUfa1X75Xhv5otUAGT9zhY4yQWQF8soZBVDtwCRJozw5KvRZ3RtvrLqqwZnqgoi2Nus6yq3AwX9Hvp/dnD8+fyQQwLsPIuiamp/ReBrPOgxRT/xvFAC5e/e+Lp/NRt+E1F4ogPwYf3GQjQN45cp1SUrJerFHGrk92N5mdS5WZoo0NFdO2Y69kXr7wMNHj59/S+BBAVQ7QOXC+/cfypGYVGloo0yu6Q8Cw/9v9RmYGQ8YS4lpuXoLzo8/Vj0ievfeA8kvLJOVG3fLp837W343DEU3vmzZX+q16i+/es9zXyM+f4QQQl4XKID8GH9xkM0WIKx4odqN2SONwgbIY7A6Fysz1a8+bNxHN5SMikmWq9cCt58IBVDtAM/95SvXZPfBY1LPRqNE0x/kg0Y95X+VwLH6DMyMh8adRkr40SS5deeufPf998+/1XuuXLshEVEJMm76cvl7/Z6W3w3DVlZUiuxqM6LL548QQsjrAgWQH+OvDrLZI71zf5R06j9FV8b5z782tzwnK/vdRx2kdY8xsmhliJSUnfF5LpDJgcB53rv3QG7fvquFG66nO0PyKypx3X/wSP9tTWxtwPfWBgFkBPDTp0+1GMB1vXP3nr5mrtexouGa37l7Xx6qz2NbVm3N+cJW0LPnL8m2PUfki9aDLe9NRTP9QToFTdAiw+ozFe2zFgNkw/YwNabO6WtbVU6fvaB7k3Tso75fnYvVd8J0EYYpwTJmarD8/SvPCxm//bCdNOsyXOYv3SRlJ88+/zbf43T84t/wGXz20aNvfRZJq2kwNjBGnnz3nTx89Eju3ruvxtjLv9v8XkQlnzx5UuvGlet8gn5o7uYS/HfMIY8ePa6197W6efHcqGcBz4S78fJiPlbXEjs6cA9wL/wF/A6cF+41zrOyZwLPTE29p8nrCwWQH4PB7o8OstkjXVByStZu3S/fDJ0pbzgos/sfb34tv1fniq76cclZPs8FMjkQp86ck8LiMsnIypf45Ax9La0sNiFdb+3LyilUjl25XkHH5Frd+Ov9dcW8mPByRbUyXCNcq6TULJ0o7Ho9jSWqf0ey8JnyC/q31tacL6cCyPQHmbV4o7zfuI/lZyoa7v30BeskLvG4vk5VJb/4pIyYvETeb9BTR6OsvhP2YZO+smjlNlmyert8/HWQ5Wcq2q/fbyMN2w2SmepcsXBRXTgdv/g3fKao5KSuMOmrSFpNg7GBMYJnAGMGYwdjyN3vLS07ra9TbRtXrvMJmkEnp+e89DvNvJyTV6zzUGvrfa1uzHODZwHPhLvxYuZjXEsIDH8TlN9//1QvQuL8cM/dvV/wrOCZqan3NHl9oQDyY/zdQUYUICu3SJat3yX12g62XU3K2BdtBsuuA9H6JYiVQLuYFURM4A8ePNQrW6hYV3ryrGTmlkhMYqbsDY+RTTvDZdWmPdrJm7lovb6OVjZ9/lqZrZxVOIIbth2UfYdi1csiRwqUI1muHN8bt27r8/N2xeyeetEXlp7RZZQr2qGjybJ0zU7pNcyegETOxhct+8uQcQtk5/6jLx3P1bLzy3R5c9wnvFw8YVYSUdYV1/T8xSu6NHpu4QlJSs/TOTDYBoZrhGs1e8lG5bivtbymMPz7ig27ZWvoYdl/OF6OJSjHLbtIRw+w9fHBg0c6v8bfcSqAENFZr67RltAIadplpMdcoDc+7yx9hs6QrTvC5Jy6X97yww8/6nPFogLyin7xTqtKG+vWaTVQ3ZsICdl9ROra+F3/q37HBw17KnG1WPKKvC/a4Dp+r9+4rZ/TIiWqMnKKHY9f/Bs+s2bzPtm+N0qPq2T1vKKkP57h28pxxuq4r1a8MZYwpiC2cgrKLMdeRcsvPqXG052XHE6cDxy42ziWOs/8opP63mGsYMxg7MxWY8jd71239YC6TrESk5Spxnqpzqm8dfuuz1bGzfldU/cnr+iU5W+raDkFJ+TCpatqvnugozuGF/PKo8dyTY37MvVuSs0seDGfrNu6X+Yu3fzS7zTz8tK1O/UzGhGdImmZhXqexzvD9XuqymM1x1+8fO3Fc2j1Gyua0/nV6fV0d3x3z81e9d5aF3LA7XjBs4RnKkTNY4fUtUxV31F28pyeixEVwj3CvapuzPjHQgcEz0X1zJSeKJf0rEJdWhz3Gvcc52v1fsGzgmfGvKfdjXOn4xTvaLyrSeBAAeTH+LsAwgSDCSwm4bj0GjLDdjUpY2gmt3xdqOSplzeq6tjFrCAi1H/i5BlJTMmUXfuOyJzgTdJ9yExp1GmkEmRDpU7LgToJ/KOmfXUnfFxDd/ZB497ysfrc58p5bdRxhHQMmiSjpiyVDSH71fGz9AvX2xWzwtJyGTd7re4hU9Hqtx+uV94hfv7rLc9bCOHMQgS99UU3JR6HvHQ8V+s7ar5s2hGuRSpelp4wK4lwwtHdfPvuCFmknqWRk4Olfd/JugAAcmA+V9cV541rZnUtjeHfP2nWTznag6Reu2HSsuc4CRo5R+Yt3SSRx5L0NkpfbPmqbpwKIFyfzbsOyYGIGOk3crbHXCD076rfZqBMV+O8uAqRlcfqPM+rlz3EcYP2w+Tf/9xU/s8f3S9IfKU+Ex6VJBFKMDToMNzyMxUNIg4iqIN6FtKyip5/q3Ncx29cYrps2n5AJs9dLV0GTnM8fvFv+Aw+CyHXpPNI6RQ0WcZOXy7bdh/WjWbR78xXK95YPc/OLZbNSqAFjZ5vOfYq2vApyyVeOWquEQwT6cpU4zMk9JBMmrNKOvabrO9L3daD1Njpr8ZQH7e/F0K7Xruh0rb3RBkxaYmsUWIxLTPfZyvj5vyi1fw+bPIyy99W0fqPWaCL2xQVn9TixGDmlXIl0I7GpMiSVdulp5qnX8wn6ncgL9T1d8L0vKzmGlyP5t3HSNCI2TJHiaKDEbEvfU9VgfjZExb94jm0+o0Vzen86vR6uju+u+cGzwKeCXfjxczHGCMY7z3UPVis7kXUsWQdcaypSKIZ/xiTGJuhB6JklhJsuLe4x7jXlb1fMCbwO8172t04dzpOx85aLQUlp5+fJQkEKID8GH8XQIYTp87qvIBmnYfpPAGrc7MydNQeO22ZREQmyJWrN54fzT2IFmCFBtGeHCWaImNS1QsiTGYt3iADx8yVJp2GyW8cfL87M9W5PmzUS3oMmiZzgzcrZzZecgvK5LI6T6eN77C6hAnW6ruq09B3CS/z6LhU/WJwxxP1wsAqPFbhElJy9Cr6rEUbpb9y3lt2G+nRgbdrEMfoSfN1p+EyYeZKCVEvrZTjeXqVE0LIrNz5G8hhOnX6nGzaeUiLOavfVtHwma3qtx2NTZEZ89foa4ixafVZmLkufYfNkjT1rHjrqGO1MzOnUJas3qEdCKvvgkFI/0IJ6Q5KJKD6nNPy3o27jJak4/nPv9U+7sYvtv99M3iajm5C4Ft9pxMz4/fjJn2UAJ0jwWt2SHhkoi7egshmVYWQ03lZR7oPRsulK9d0FARC9dr1W1JQfEoOKQGK+xU0fJbXv99E5lDQYsGKEHXMRB29xnfgu7wdV06FP5xuzMVYkMJ1NvcbpaMRQcZ4nzR7lbTpOUZ+/3EHy2NUZmacNOkwVEZOXiLrQw6o5zdHR+khhKoawTh55rwSZyHSWr1DsUXb6hwqmt351eD0eroeH+L55u07Ulx2WiKOVv25Mbm4k5WA2rkvSs0dxfqZ8dVCgStG+CCHp7j0tEQq4bVs7U4ZPHa+NG432G2/MnfmOs6XrdulrlWanFS+D54HRJawCIVn5W82ijV5O6+R2gsFkB9TWwTQVTU5YzKbMGulnrStzs3K8BJs981YWbpmu375eAKTGlb99ipnYtz0FdKu1wS9gvh+497y1y+6ym8+aCv/31++tvwuJ2aqc8Gx+PNnneXTZkHSuudYmTgbletSdUgdLzO7+LsAgvjBfnusBnYbPEPqKocN1/TNul3ldx+219ehsi1cdg3bI/GC+626T+/U76m3hw2dsFA2bT+on9fqevFWFTx3BcVlejtWZWWljRkBBEdw3ebdWkjiWlp9FmauS7Nuo+VQdLLXuQ5YRAiPjJcx05bK379yX/0N4qeucpomqvGK7TNOG7x66yi4G7/vNeqltwHCiatsy55dM+P3539vpa97nRYDpM0342Tq/HVacFc1l8TpvIznYdueyBe5F3DMjqkxuUiJlc79psjHTYPkL3W6eP37TWQOlfw+atJXOqljLlTHjo5N1WLT23Hl1GF/t0EvmTZvrZpL0vQ1MvcbUaG+o+bplf131Zz0e+V4/8ebzhtpm3GCef5v9bpL407DZcj4hbJBCaGiklNVjmD4uwDC9saU9BxZuSFU589W9bkxubgfNe4jLdXcM2XuWkn2wfhwh9kxkpFTJItXbpOeg6ZLPfWuwY6G37zfRt9bJ1voXcd5g/ZDZdDYeXrXBhZlkau6euNu6dp/svxJiSurY1Q0CqDAgwLIj6ktAgir99jOhG0/XymHBpMSJierc6xoZuXSbk4BXgCp6gWwZGWINGo/xGOOg6/MrDShieukuWskLDJBzpy7ZHuvvb8LILyU0fG856Cp2hG1OlZ1mLn/fUfMkj1hx16s3PlbJEi/tLMLZNGqbfKRcjqsfktFMwLoeGa+HDwUI1PmrNbOodVnK1pVq8HZrf4GR7n7gMmybstenTfi9Pn01lHAyi8Smxcu3yIN29X8+G2oHKTFq3doJw+RXG+FgTcCCM9DoRIDeQVlcvhoksxYsM7rSIgnMyv7+A58l7fPk7cOO0qwF5eekpyCUr39aMCY+fJX5eRa/U1VzMwf3wyZJhvVuEGzbkSevI0EVbcAMltUd+yL0lFBq2NWNJSwx6IitvvlF57Q0eFg9fx28bIRuTvz9fhwBfcDUXREApHft3j1TvXsj3Uc8fFkru8TPc7mr7F9PymAAg8KID+mtgggUxUOk1uHPhOVY9NSOTaeIwZOcwqMAFqgHKjPmvdTE3flOQ6+MrPS9Mt322hHts/IeTqB1+5ee38XQHhWFizbLM27DJff+WALoV0z9x9bDYPUS8us3PlbJAhOVUJyhqCyG7b5WP2WimYc3tz8Eu3wL123Uz5u1s/ysxUNY7wq1eDsVn+DYzV+5nI5Ep2on+GaEkAm0jhz4Tr5pGnfGh+/f1Bio5Fy8ibOXiVJ6bler3R7K4BQmWvl+l0ycPRc+bLVQK8jIZ7MrOxjwWbA6Dk6wgoh4xRvBdDOvYdlX3i0LFPPfTslxiF+fvaW/YbZds3MH2+r4zfrMlKmzV+nt3F5GwmqbgH07ZMnSlhcl91hMTrHzeqYFQ1bxMdMC5YNW/dKyK5wmbdUzdHdRssflfj5Tx8KB1+PD1eebSE+K3vDj+lI4EdfBynh395xxMeTub5Pxk9fKkPGzqUAIm6hAPJjaosAMuQVnZShExbJO/W6yX+/bf+Fh2TY6IQMjxEV9MXILSiR5etDdTKn1bFqwlDmeIZyhuOUQ4Ptf54iFv4ugE6pF3/wqm3Spsdo/WKyOlZ1mlm56z9qjkQcTdRbhFCRyV/w1uFFWWaY3Spr3laDc1r9DflB2C8PgYbiIzUlgLCAkZaRK/OXb9UluK2OXZ1mVrobdRim55CMnEIdlXIacXT6PHygfuv8FSGydste6Tl4qs9y6jyZGVcDx8xTc0C6XL9+SyfQ28WpAHrry256SyvyQSfOWuHzSIU7M/e1aecROoJaVHpKbzV0el+rWwCZLWBoelzfRtERbL9GDupYJYKGjJtfbRFDY+Y6Nuk0XLe3yC86od653heZMDk/2DIefiReFyuorDGzr8w8943aDdKLenZzpCiAAg8KID+mtgkglExeqJybFl0rT/p2NVQ0w6qYp4gKSlEjkTj04DH5sq3njvzVZaja9VWbQerlt0YXRvAUsfB3AXTp8jXZGxatxetbX3a3PFZ1mlm5+6LlAB0BQe6CHYeipvBWAJ08dVZd26u2q6x5Ww3OafU3U34eYwljqqYEEErtni4/r8uD4xpZHbs6zax0v6Ecy7bfjBU0YkbuiNOIo9PnAc1wUaBAi5+G3+hnHc+81Wd9aS/GVauBMnPheolR54wkd7s4FUAQDVhE6dJvotRp0d/nkQp3Zu4rckm+GTJd1m3dp0vtO72v1S2AjCCwW3QEIvmjRr2kbot+8m79HuqcqidiaMxcx7/X6yEDRs3VVUDPX7jy/OydYwRfUlqOLnb0hXomvCnW4NTMc/9rNZ/+9oN2tnOkKIACDwogP6a2CSBMlgjV9x0+UydnWp2jlZmywWeUcwQnyR3P9hI/1v1kUFLZhNDNxP3fbzXXE96bdbrq64UoEfIqsPqO0rKINDVSL54G6v9CdJmSoW/X6y6//qCt7ZC8WSlDYYSwIwn65VfZympGbokuq4r7U9HwnT9/p6Xt7zW/82dvNdPOsuvxXK1+uyEyN3iTxCdVvqXK3cr8v6lzggPzy/day58/76xX7z58Xm4Y9wzXENcS1xTXtr66xnCUUN4c2zeQi+DkhW1yF+CYotGmt3v5fY23AgilZe/AAUjPk/Z9J3nsB4TnwJtqcHarv+G7cQ6te03QEdcHaixh++rxnGLp2G+Kx/MzZjdi64pxiNDrA+VuXcfv/7zdQm/DeVuJcGw1tDt+4fjqqJc6Bo5ldc4VzVznnoOm6aIm2OKIa20Xp8+DWZH2FPmBk4YCFRBMWIh4Wzmib3zeRY9l/D6784SrmXG1UL0XsE3S7n1zKoDs/k7zHKJiKN4TiBwhif3P6p5g/rb7HLqa+X5UBD36fBHFScSrugWQwe6Cg3nPeIromuuJd8Jv1PVz+l5xNQgGRE3Gz1whmbnFjsc5om74PKKriLKu2BAqjTsO8/g7XM38Ljz/2EaJ6w3DewjvbETMf6XeTd7+TmPmPYd5MTWz8PmvIIEABZAfU9sEEKpQHbJRhcrV4MigcSSqtqA5pjvgDD9z2IokaMScF32HzIvi7/W6SfOuI/S+dzSCQ9M3bInYeeCorq51LDFT4lNztfO2O+yYbhqHymcok4nSquZ4VudY0YzD9rkSAmgIigR5OHbuwGr+5Dmr9b2paPjOT5v2sf295ne+Vbez1G878KXjuRquw4Zt++R4Vr4WOe5wtzKPc8K51W89UHoPnaFL2C5Zs0NfN5SEDlXX8Ki6lglpuboZIxoVIrKwXL3wxkxfpgSisy0bJncBFY6wnaum+lJ4wlsBhKpfaPSZW1imc3M8OYZ4ieOaO60GZ7f6G5yJ95WDOGzSIsnKK9FjCWMKjTpHTgm2vTXLbsTWFbMCjoaHfUfMfmn8vle/h7TvPV5GTFosc5Zssj1+h45fKJ8166scLHu5h+Y6f9V2sKzetFfy1f1xstXH6fMARw7OOawyx95U50O0CNdg9NRg6TN8prTpOVrqNA+yPU+4mhlXHYMmS3jUs7wvO/fNqQCy+zvNc9ii2wjpN2KWDJ+wSG/T6zFoqjTrMtzrLYLm+xu0G6LLK3ual13xNwFk3jOeIrrmejZsN0hfP6fvFVeDSIEIav3NODl4JN7rcY5S14tXbZN2vcbKX5RYcZrzZ35Xqx6jZMiEBfpaw1AYYszUpfqdhHeTt7/TGP4Wx4BPkZVX+vxXkECAAsiPqW0CCCs+ialZuoMzmpVZnaOV6Yao60Mlr6BU5/l4Atsb5qjvwHYLFEOAwdkeNHaeTuZHEm5CSoYUFJXp6nTY4oXqYmZFXTeSU05j2YkzkqlekgcOxcisheulS9Akebf+swTyyl7gxrAqNWjsfNm1P1J3QHeHbrCnnDjcl4o2TU3m/YbPkEbtBstv3m9r+R0V7WdvNZe363aR5p1HyDjl7Loez9VQ2S02Md1jw1GzMn80Pl26DJimV9c+bNJHGnccrl4yM/WWrC07wiQ6JkU3loNQhWC6cvW6ejE+efHCu6+u8WX1W/MLSyUiKl4WLN8q7ftMlL8pp/y/37bv0EBAhOyJ1HkwcMJeNU6FvesWM1ThQkNZT/2AjFUUUOgb4wm71d/w3a27j5bFK0P0dlVDqbqfaERo9zk053fW5vm5Yr6vlboenzULejF+h45fIMvX7ZADEcckOS3L9vjF2MIWm2ZdRshf6nTWDo2dFWGnfcgM/yyKsd5WUQx3hpL9v1bXG9EeLAK1U2NlwswVsmbTbj0nhR+Jk627wiR4dYjOqUGzaUR1nUa8jKGC4eJVO9Q1K7IlDJCHh3y8Xer6fqlEr9Ux7RjmUsypeDbxXkD0D7lCqAa4PfSQ7A+L1o2sN2zdp/OHhql/a6E+87767G/VM2v3fhr7S52uui/MttAIXXnMbi6Qvwkgd2YihX+p21VH41v3Gi/DJy6SmQvW6us3Z/EGGTd9mfQZNkuadhmlfIfeOjrk9Hkx72XM53beywaMT1yPyGMp8s2g6barvRnBB/GFKM/XXZXwUXMC5qs9B4/q6wxDy41DSpjhnYR3EyK5n6s5xOmOA2M/V2Pp06a91TVbqvtnkcCBAsiPqW0C6FmRglIdAXBSpMC1gZ4nLl+5rkuD4mU1Y+E6Wbx6u16pOp5VqLdOYSseKk7hfLACjxwJOPnmRYj/C8f0vvq323fuavGChM9d+6P0iqvdFUg4Lw3bD9ZVrUqUM+YOOBL4DtyTipZ6PE82bz+gRZSdMrF4iTVoM0iLH2zdcT2eq5WfvaReRLd0VA1NCd1hBExR6WlZtHKbjJoSrP8vmuMlpubolTysBF+9dlM7TrhuqOyDa1jxmj59+lT9t291Yj2qHSHysSf8mIyZsUK90Oz3h8ILe+bCDdrJtPM8VDdOt3bWbz9cR8PgtOOanL94Re+n99QPyBgcVTTvzM4r0tvbPGG3+ptJUt+jHE6IcgPE0ILl9qsAVlUAwakO3R8pc5dslGnz174Yv+jkjiqAEDw3bt6xPX5xf7LzSmTzjnAlAifaXhF22ofMgO/MyM6XRWr+wRY8q2PbMWxVatxxqI72INIVk5ihcwpPl1/Q1wDzHJoE4/4UlpyS2KRMWbtlv+OIlzE8u3iGt6pnGYnpnoDgxKLWwSOJenur1THtmFnJ79xvosxbvlX2H46T9KwCKVP3GueB33pBjREIfiyu4N/wmTnBm3V/Gqcr/OgL80mTPnoeQ2lsu1tJa4sAMpFCFI1Zu/WAHEs4Lll5xbpBKhYXSk6Ua0ce5az3qffk9EUbpJ56bzh9XrxdIMC2XyxMIAqH77UrYE0kGNvvUIkOwjs1I089/2f1nIFrDLt67caLsVFcekaOKKE1Y+F6xzsOjGHRB1Gz2coHQTNwEjhQAPkxtU0AIcpQdqpcv8yRI2J1jlbm9EUCx7Kw+IQWTDEJaUr4FGjn3O6LzhUjAEqViFmxfqd0Cpqg9+FbnWtFw8SO1a2g4bPluHLenOas+Nv9xfngeoYdidXbR5w2fHXFJOfvOxSrq5PZXaGDSECp4F17j2jH6FWDXjlYlUdyt52qVg07jZSYpKwXz6O5rlOVs2/nPtt1PJxWf8Pq+7xlW5TwzlWO7T+3RDp1/KoqgCDqsnKLXqzo+mr8os8ORFWzzsN0fonVuVc0bJdCzggECHrWGIHlCcw/Thrjuhq2pGEsN1RO1+S5q3S3eogck5PlDjPv7d4fpbftNmg7WC/CWH2HlZncDkSZcvJLPV5vk3MZFXdcP9NWx6zMTOTng0a99MISopR49kzk2B0mwpecli0L1PPaqe9EeVuJd6eOdJue4+RQVJLtHC9/F0AmYoiiFrj/O/Yc1gtv7p4bcx1jlUAaN325fNV6kF5Eszq2lf3hkw7Soc94WbFul5w6c+H5UT1z/uJV2a7ODQLNzoKPsV+qc6unznH0lKVyJDrZ9vvHzK+z1dhv2GGYvkZOGqK/ar+JvDoogPyY2iaAkEuCQgZbQyOkrnKSrM7Rypy+SLCqfu/eA/1iw+eR34IXql0HxhWzqoxoSUJypsxavFFvv7A614pmcgla9Bgr0fHHHees+Nv9ffLdd3JNndOlK9d1/smjx1XLwTEOel5hmSxQ52x3hQ5bZTr1nSCrlMOE1fBXDcqEL1uzXdp9M0Yn6Vudc0VDhaeE1NwXz+Mzx/WkrN68TznMAyz/pqLZjUw4rf5mio1g+2LFYiM1LYDMlkuMXV+OX6wKH4lO0jkCmFOszr2imZyRdr0n6vtlV4A962tyTufB4VpYHbsyw0JAqx5j9DwTr8QronH31TFNTpY7zLwHQZ6Qki3zVoTooiRW32FlJrejbe8Juo+ZpxwznAvOKT4tV5p0GW15zMrMRH4gfnYfjNbR+Rs3br+IHLsD/4bPYH4sLDkp29Sz1jloku1IkNlKVVc976s27rGd4+XvAshEDCfOXilH49KUQLgi9x48dPvcmOuIRaSYhHTdusHJls3/+VsLeb9BDxk+cbGawz03KjcUlpzWJa8/adpHby+zOraVIfI/feEG9U5M1zsO7L5/zHsrISVLpqj70aTjMF0Mwuo7rIwCKHChAPJjapsAgrPrJGnWmLcvEl9jHEq7nbqN1Ws3VPYfTtDbReysNBpq2/31FrNlEauWf6vXw/K3VTSzUo2iC9iW96px6hi5llM1K7GIhDXqOFw7Z5XtxbcbmbBb/c1UOfraTXGFmhZA1QW2emIL1YZtBx1FoM2WReSwQWR4wtt5ztyHT5sFyTQ15qNjU7ya74yARDGIHkNn6QqN//nX5pbfaWXIN0KUHrlpleUGGrx12BEt7TpgsqzetFtvLXIa4TORPZQqR/Prlur5xBxo9V1W5nQLl78KICPo3m/4jYyZGixhh2P1nGoXM/+ERyZK+z6TbEdITCQNxTNS1Tm7m4cMTiPSxkxEtIP6njB9ryqPELrD6XvGGAVQ4EIB5MdQANUsZgI/mnBcGjnY8oEyvTv2R8nFS1fk8bf2t4wFigCCMMR2lrlLN8sHTTxH1sxKdef+UyU9u/j5UV4dVRVAZiUW+VQdtWNQ+V58u5EJOHV2qr9h1Ryr50iKtiqv/boIIDjLt2/flfCoJC1qrM7dykzRisvPi1Z4wtt5ztyHbv2nKEctTi5eVPOFOpZTjDDAtjmIvW+GzpQ3HLQdwFyDfltxiZWXxzd4K4DQ8T947S7JzivWUT5PDrQrJrKHc3QyfxhzmuPlrwLICJEW3UZJ6IGjck5HR+w/N2b+QX4ZCnfYjZAY4dVMnSt6F3kSsE4j0sZMRBRFc5CLi3PFOTsFYh6i3mlklgIocKEA8mNqm4NcU1vgnGJepM+S9J/oiRJbSeAsYRsdrnNFO2SzcaUx5AGgc3ZJ2WmdmG2X2nZ/XYEjhi0KeDGi0AOuK6ISEDwVrye2C8Ulpss85cCgupzVb7Myf2lMV1UBZMgrOqmbzb5Tr5v899stLP+2oqH3Tbh6FlFUAqv+rpSfvShrN+2Rrh467ntK8nX6+3TZ+pADUnbyjC5SUN3YHb9IjsYixL5DcfJVu6GW525ldvuQGbwVQOY+oGhKfuEJxxERVxAFQq4eikhAbFh9p5U5zbFz6rCbXBX0vjoS63mrnSdMBOPg4Xhp2WOs3lpnp0rni0jq5MVq7HnewuWvAkhvRavfQxe/yMgu8vq5QSEeVNtDnyQ7RXeM2Y2Q3lHzFMTu0nU75WMHRZBQ8Q3bVlHdDbmA3mJy1mKTsnQ0CcUi7ESgKIACFwogPwYv9drkIMMxqYkiCE4xK6b37z/UYfJTZ85JYXGZZGTlS3xyhr7GFS14rZrAv3ZQxa5xb5kTvEmvUsL5t0ttu7+umBcOfjOq9GD7UVZOoSSlZuny2+Z6opzv5m37ZZTDrQmvmwDCiv3C5VulRVfflMNGTgVKqX/Vqr9uCGh1DBjKmsMJRLI9SnO74vT3ofIZ+u9kZhdqJ7y6sTt+MX8cjUnWvbkq2xLoanb7kBm8FUDmPuw/dEwLD4g6JxERV7QwUPPlXiX4sA3X6jutzGmOnVOH3eSqoDIXckeqKvRMBAOFZoZNXGS7SqeJpHboO1nSsoqeH809/iqAkHfYofd4Wa7eS6iS6O1zc0PN0wkpyHHdoN9ZVt9lZXYjpMihjVaCd8qc1fJuA8/vM2PPFiAidONoOwsQ7sA8gXwoiF1UkcM2auwksPrOikYBFLhQAPkxtc1BRtla9PJB52enZbDR+NCpgHBFvyiVU4CEV2wPQrIwymRm5ZZIYlquTvzdffCYbNoZris4odQztgTg+la0XsOcbUXC/AMAADTYSURBVCnx9kXo7/fXrLzDgcFKP1bbL1y8qh15vGRSMwt0HsLByERdshTbceB8zl6yUaYvWPvieo6fuVz3eGnjsEypvwgg08jW7gvV3Xk7XYFFgvsiJTRQHrqi0DCCAA1Fg0bM9thnA2Jg2bpdkptfoqNJrjh1/JyWrbfLqxq/TvuQeSuAfC0czXOQrJ61Tv2n2l7xdppj59Rh/2e57TBb5bbtgmIkwau26f5vv//Y83NqrGHHEXqewrOFZ8wd/iqAMFcMGTdf9hzANmv3/eY84W31QrtbXp/Nb5EyaMw8W/ObqRLYutcEfX88VUG0C0T9inU7lWgcp8S+5/cNBVDgQgHkx9Q2AQTxgtX/2coBdtIIVW8h27JfStTLGKu83qJXRK/d0FV/IqIS9PagqeoFhaZ4bdQkixdhvbZDpE7Lgfo74ZDAmcO1rWhwnv7rLftJxa+rADIOFrYanTh5Rju8cODR1HPYhEXSud8U+brbGL1VC40SsZIHZ/uDxv96Td+p31M3b/y9w0Z1/iKAMpQD3nXgNO042nEw3Z230xXYt+v1kFFIej4SpyMfBpMEf/hYim4YCfFTWXlg18asrjh1/LC6O23eWolNSNPPsK94VePXqaDzVgD5euugWaAoKDklk+bYX/F2mmPn1GFH8YHR04IlPFI9t1ftJ+t7Av2C9oZF622kaB5r9d1W9oWam3aHxcgV9WxBBLnDXwUQ8vvGzVguh48668fjirfVC+0KICxYrN4YKp2DJsifbLSRMFUCh01aJFl5JR6rINoFDbS3bD8ovYdMl7987nkhhAIocKEA8mNqmwDC/t0j0Yl6xR9Or9U5WpndCdYVs2KMniYnTp+X1Ix8OXA4TlZu2K07YXftN0nqKafAbidqb+11E0BwsJHLg0Zz2XmlEhmTKpt2hGknEdGLFt1Gyjv1utuu8uOt+YsAsuuwmKThFt3H6r9xBflhyBNbp5xgOMNWx6hocCLwDK9RQgDOhQEOeLlywEOUA44CHFZ/C7O7wurUcfH2eXfFFB3BOMDzXFvGr7cCyJMQ9RZskVy7eY907T9Z/qSuldV3W5nd8eXUYX9PCcqZaq6A2PdlhBALbN4UQ7D7fvFXAeSr8ebtc2v3+iG/EPltDdsOkl+/77nf0G8/aCfNOg+XeUs3SdnJs8+PUnVQVn7PwaN614EdoUwBFLhQAPkxtU0AOZ14jHkrgMyKcUp6rixeuU36Dp8tzbqOlk+b9derZnDmfvVua48r5FW1100A6WTW3GLdf2P01GXSTjnQWHlH1OKvX3SV333YTifx263y463VNgFkqjV16jdZ0rNfzjkwz+veQ7G2cjawSg8BMGXOv25Vwja2nLxiWbZuZ6VbTe2usDrduuIrh8xUjYpLzNC5UbVl/HrrSJpkcmxFslNu2y7elv+tLgGELYXL1odKrs0thXZ5sYCw1d4CgjEKoGdUtwDKLTwhg8bOl7e/6CI/sxGB/bMS6z0GTpH1W/dpEe8rnC7EUgAFLhRAfkxtE0CYXDeG7Jeeg6bKG593tjxHK3u2ReGY7fr/qCh08/YdKVYvw4ijSTJ36Rb1u0dX+0qxO6vtAshspUERC0R90GQRq/Do5I1mdtUd6XFntU0A4aX/dt0uMnD0PMnJL3v+1//EFI2IScyUtr0naoFSWTUrPMt4poOUMEACOP4eAgaJ76iYNNFDw0/kW7X9ZowsXb1dTp52XwYY22oiIuNlrIdy2saq6pA9+e579ezf1pXQ0Btp+sL1ujBEbRm/3jqSDTuNlJikrCoXBXDF6TxirLoEkNOiEnapbgeeAsja7F6/jJxi6YJcNJvvC1/lNrlS2/wm8uqgAPJjattAxncuWLZZmncZrqMEVudoZTpJNT5DbwupLEnVgJ4SKek5ykkP1bkZHzbuo19Y1b1S7M68fUH5y/01uT5wkjfvCJMh4xdIow7DdLncn/9dvcyqOdLjzmqbAPrVe22kQZtBMn3+Wl04wRVcZ0RhsvNLZfjkxR6rWeFZxjPdosdYNT6Oa/EEEXT23CXZsHW/9Bg4Vf78mfuFBuRioEfQISVuKsvFwDMbFZOsk+LfVc+y1bEqWlUdMoif2IR0WbgiRJerxZYpzBe1Zfx660g27jxK93XCHFeV6m+u+JsAclpW3C4UQP4tgFKzCqVlz/G23xe+ym1yhQKI2IUCyI+pLQMZjh0csxzl2KHMq5MypVgFb2+zTKlZOUYzx+DVO6SLh/4nnsx8PxxXNIbD9YPhf//srWZ6S1NlHfuN1VYBZCI/2JJzUh1vX9gx6Tdilu37586w+oeKVOZ6/lY5t9gT7ini4WqvWgCZ65OYnidNuo62PMeKZvf+nFKO4bK126XdN2N0iVurY1U0FJjYExajt89hG53dqnSeqr8ZnD6H3vbtMOM3JT1X5gZvclwV0NVe1fj1WgBV0/PsbwLIrsPsFAog/xZAr+p3uUIBROxCAeTH1JaBbLb2xCZm6u716L1gx9GF84IcBbuN6szKMRpqNu82Wv6oxM9/VmHLjPn+hu0GSbMuw/W1gzVoO0hvZfLUsd9YbRVA/4z8nJON2w5Iv5Gz5aPGvW3fP3cG8VNXOefmeuLa4ho7FVavWgCZ64Mu6Fi9tzrHimb3/jzbcpYgY6cts7XlzDTaLX3eaNduVTq7SfdOn8NnkaVgOeSwypcZvxA/TTuPUE6ms6qArvaqxi8FUOVGAVQ5FEDPjAKIvGoogPyY2jKQMbGi9OT2vVGOJlacb+vuo2XxyhDdW8YdplpUXmGZLFS/zenK8X+8+bX+LjhuSNBFzlGDjiN05GnEpMUyc8Famb90k75usPHTl0qLLiO0E2UnmbO2CiCThH4oKkEGjJ5jW6D8258aa+GJbu9vf9ldRxpQjax+ByV0Oo3UPUnQiM5cz7mLN8jEmculq8OI3asWQE+f/qDLsqP/DLZpWp1jRbN7f5AYnltQonvP2OmXZfpkJSRn6Pt1NOG4NFLX2eqzMBMZsdtfw+lziK2RA0fPlV17j+iGnp54tkDySHLzS3Wxg9o+fimAKjcKoMqhAHpm3kaSPUEBROxCAeTH1JaBfOPmHeWcOe8w/daX3WTohIWyJyxaV5Bzh3HUkTDdoe8kxyvHv1Ofb9VjjIyZtkw7naFhx5QTmSFpWYU68oRiCqUny/U1gx2NTVNO1DLb5TxrqwBCJCI8Ml4mzFwhdVr0tx35Qa7GXz7rJI3bD1UO6BJZtnaX7NofrYRCmsSlZOsKaIUlp19cz7yCMolNPK5zPtC7xeqYVvaqBRCiJuh+juabqIJndY4Vze79wXERlQlVx/3SxnHfrtddRk5eLDt2R0ja8VzZsS9KR3esPgszkRG7/TWcPod//KSjdOo7QVZt2KWbDnriWf+Rs7JzX6S06z2h1o9fCqDKjQKociiAnpm3kWRPUAARu1AA+TH+PpBN7g86dG9A9bfB0xxVf/ugSV+ZvzxE0jLydWEDd6D/Q2JqtsxesslWg1XTjwW5APh8p/5TdOQIyeDo9u6p2lxNvQhf1f01962o9JS6phukSadh8hsbRStMZAGlRTsHTZKZC9bJ/vBjghwTNCl0F2nwN4fRLk7P2+79MVtGjyknvmXPcR6T/00/IETSdh+IkqXrdsrHlUSO7FZ/M1T3c/jPqnWr9FixOmZF8/fx6/XzXE1FELztv1ZdAqi6iiBUdyNPCiBrs3v9sPDVts9E28VMnEaS7cIy2MQuFEB+jL8LIOPIQcAMn7hYPmrUy1GOB7ZNbd8XpSc/RHncoRs1btotnftNtLWFyvRjqd92sMxdtlWiYtOksOSUXmVCMrinanOvuwAy9y0+OVu6DJgqv/mgrfx/f/na8jsrmoks9B42Q6/mo2M/7h2apj7+9lu3kQYKoH8F1wjX6nhOkQSNmKOjaXAarI4JM/2A+g2fIUtWbpUpc1bLuw3cPy92q78Zqvs5xGfmL92smx6iIIbVMSuav49fb5/n6iqD7W3/teoSQNVVBhvFWgqKy2TVpj06L87qu62MAugZ1S2AcgrKpP+ouR7nM2NOI8l2YSNUYhcKID/G3wUQXm54yW3dFSHNu44Su/X/TZWwdn0nybHETLeRAxOpcFpdDseu07yfjJoSLAmp2XLrzl3dO8gur7sAeqwcSPRd2HXgqK4wZvVdFc2syL/1RVfpNXS6rA/ZJ2Wnztp25AJFADl9oZecKNcls+u3GSi/fs/9Vi04E+iR07jdYBk6dp70HTZT/lKni+VnYXarvxnQrR/5RTMXrdf5RlbHrGhOhB6KSKRnFSqhN9t2n59fvttGvmg5QIm45ZKYmuN349fb59k0Qr3v40ao5WcvylolCuzm2Jn5F7l66dnFz4/iHqcOO/K0sFUR0TpfNkK9deuOpKRl6yI4HzbxvBPAmN0+cxRA1mZXAGHb8/gZy+Wzpr21L2B1rIqGhR1UskQ/s/yikz6LjJ67cFm27AiT3kNnVDpPGqMAClwogPwYfxdApoP84LHzdajZbv1/UyUMCZC5hWVuIwcmUuG0utzbX/WQUdOWyoHDsXrCd7ri+roLoNvKoTyelS8LV9rLyTEr8s26jJStoRFK9J6Ve/ce2H5hBYoAcrqlAy/qrTvDpI8HQWP6Ab3xWUctghp4EEx2q78Z8DxkZOfLIvXM23ke7D6H33//VB37nhw+liItuo/Rv8HO1hiMp4lzVsuRY8lyXl1Hfxu/3j7P5r4gr8zOfbFLSdkZmabO/6tW/eVX77kvi27MzL8oVFJYevr5Udzj1GGHiEY+aGJKphbXvuLylesSFhEroyYvkb/V62H53VZmt88cBZC12RVAeC/MWbJRmnQcqncVWB2rokGIQwR1DJosiWm5PouMYvFpxfpd0qHPeL0oZfXdFY0CKHChAPJj/FUAmX4ecUmZMmbqUo/9SFztDeXs9Rk+U7buCtNOoDswISL/5+CRRKnffpjlsawMWzA2bA+Tk6fPyoOHzrdglJ4ol5kL1722RRBQ/ADbo7BNyk4Z5v9+u4W8U6+bDBozXwmnQscvqtoqgJzmHDhN6oVzGJd4XGYsWGcr8mIiQe4iKU6rvxmcbi2y+xzq4iUXL3ss2uBquNbb9kTquQHPjlPs9kkyVlMCSG8NCzmgHMUz8uDBw+dH8x44898++U5SM/Kl73D7ETankUqnDjvGwWg1DsJ9lNxu+nGhXD8c2459JthybM14sNtnjgLI2uwKoHL172s375Gu/SfLn9SzaHUsK0MhmD3hsfq3oc+Zt5jnpEiJ+hkL1tp+f1MABS4UQH6Mvwog089j9uKNUr/dEO1k2Nn6ZuzDpn1l0artkpFdqFeI3eF0q5YxlGM+HJOmt+ihlLFTcgtPyKCx8+XtL17PMtjnL1yRkF3hymmqPPJgDHkbzbuM0HkcWG22G/kx1FYB5FQYOC3rCnF+4tRZ2bgjXCeOWx2zoplIkLtIitPqbwanQs/uc4gS4sWlp2TNln3a+bc6lpU16DBCIuPS1XPzWEeBnWK3T5KxmhJAiK4tVvNepod5zy5wFtEc98DheGnWdZTb58LVnEYqnTrsmFMwt3ha4LKL2UqZmVsswyYukvcb9NTPutV3VzQzHuz2maMAsja7AggRuoMRsTLSYYTuwybKH1i5TfkDBVUaF+Y5OZ5dJANGz7P9/qYAClwogPwYfxFAZmUFE+jlqzd0RTb0JXHazwOJ9ugd07b3BDl4JN7jnmw0fSwpOy3rQg44cqC8dZwxgcLhSlUvqM79ptjOaaopAfSr99voJo/TF6zVq9zegqISazbtli42i0r8+bNO0mPQFNkQsk+v8jmlpu+jr8DLGC/lRau2Kec1yPIcK5rT56DiFrHmDraIuTOn1d8MTh0jCAtEVybNXqVXW93h9PoZq+r4TUjLlSbqGFbHtrKaEkDPypkvkQOHYrTwcLqQ4AqKj2TlFMmS1Tt03pfVd1qZ/r1zVkl0bIqt3+vUYcf2J2yDQk5ZvhIeVd3aBKGH8wyPTJQ234yzPS//7sN20rLrCFm4fIteaPAEBZC12RVAqOSalpEr85dv1aLG6lhW9pc6XaXfyDkSsuuQnFLzlrfPi1kwRbuMVj3G2n9OKIACFgogP8ZfBJBZWcFqHvrG4HwadxymXhLO+nn8Wr0YG6sX44yF63RhA097sm/eviPJ6dkyd+lm+cBB0qu3DpTJOcJ+8WbqBWU3p8nbF5TT+4vVLKxqDRwzT1fc8RaULV+2Zru0U87yH2wIWLOiG+Llim5N30df8c/iABtsbVFz+hyYcYUiAX1HzLZdPcmdOa3+ZnDqGMGpgAjq7CGJ3un1M1bV8RsVd1xXXLM6tpU5vW/eOpK/eV8Jgw5DZdZCJQwKqy4MnkVyD6mxOUs7kVbfaWUQo8Frdkh2XpEWUZ5w6rBjoQsiqEPQJImMTXVcxMKVO0pIZyohjXOu02KA7XkZ81a/EbNke+gh3UfOExRA1mZXAKHk+eny87IlNMJWJNnYz//eSj5R74VhExZJfHKW18/LNfU+jY5Lk2nz1srHSoDZfU4ogAIXCiA/5lUJIBPxwcobVnHPnr+sXpaluiHk2OnLbPeNMfZvf2os/6kcu4+a9lF/v1TCDsfqcLkn/ulA2atOZczbcrNwniAOnPaZqCkBZIoRtO8zUeJTsvX+/8oEpDucvuhNH5o1m/bo6JFdzIo8qlRtUy/F/qPm6O03Vt9hZa9aADm9P94+B4jmTVV/V89mErs7c1r9zeCtY+Tp/ji9fsYaqfGLhrp4dvAM2cVUpVy/LczWlkJjNSWAIG6Rp9N9wBQ5eDher1Zj1dop3uZgmnm4cafhsnN/lO0cK6cOuzFUg1u6LlRy1POI6IDTiNczQftIikpO6dypXsNm6vxRq++yMjxzM5XYxDsE7xJPUABZm10BZCLakbFp0k69o1Bsw04ExrzXGrYfKotX75Dk43l6p4nd97cZDynpuTI32PnOFAqgwIUCyI95VQLIrExjskWezjY1+Y2eukwde4x80KiX7b4xxvDix+o2kiP3hcfIOTUJ23nxOq1OZaxeu2FyMDLR8UoSVs0hzlA+G6vpVse2spoSQKYcdcMOw2XvoVi5cu2GFkFOcfqih3OFPjRT5lS+5ckVsyKfnlkgoyYHyydKAP/cRnlUY4EigJyWMXZnTqu/GfxNADVQz3dkTJp+dvAM2cVUpUSE9K9fdLM8tpXVlAAyOVyfNQuSafPXSnSsdw6ttzmYZh7uPXSmJKblqN9h7/p6K4CQCN9t4BRZs3mPlCph6nxBCrlpZyX0QJTuVwbx8182cjqMwXEPUffI7vuGAsja7Aog4zfkFpTp0tZ2hbl5r2E3QiMlglCdMEmJGbvvbzMeIH6adh6h7p2znSkUQIELBZAf49SBQLJ6sy7DZc6SDZJXWKYnvMoMIWvkZ6BXw81bt3V1sHMXrkhxWbmepPdFxMni1dv1yj2cV7t7ao2Zie0N9SJs23OsLFweohsa2n0Retv4zu7Ko4l0oVrVteu3dG4TrrXTCJe3LyhUuEtOc7417L1GvWXGog1yTE36iMigJDUS6l3vKxwIRPFcV9LxN6s3hkrnoAk6umP1HRXNrFz3GjJDrzrjvlTWx8S8CPH7CktOyqYd4bqEttPnp7YJIDQnxfaL2IQ0/bd2wbgLPxInY6YGy98dCG9j3lZ/M+CZqQ4B5O3zjTyxdSEHpfTEGT03eRq/OH+sGB+LPy6jpwQ7rkpZUwLI2O+Ug9a6xxgd2Y6OfzaGMU+5i+ia8XTv/kO5dPm61zmYv/mgnXyt5jY4iqUnPefEGLwVQGhb8AEaJw+dISHKgc7JL1Pnf81tcRr8TsxVaKqMxS9EfnbtPyrDJwfL2w6S6v/jza+1U9tl4DSJTc6yPR4ogKzNrgAywIfY6qDIjjETCarfdojMU75CVGy67g+ESCXyhTGnwnAN8L/x31GUJzImVUf6nI4HYxRAgQsFkB/j1AFDyceG7QbJxJnLJTbxuJ7sKrMzZy+oAV+uG9Ylpmbp3IGQ0HCZE7xRug2aLl+1GyofNw3S25awT9funlpjZkLDqs6ytbt0CeUbyily59C44rQ6lTG7K4/GscBWlGPq5QKnolFHJX4cRri8fUG9KA6w1VlxgF+910a+ajNIRk5ZIgcPx0pBUZkuEet6X8+UX9DPkOtKulkpH2RzpdysXGO1ed2WfVJUfFKLIHeYrRDZSoCu3rRbN099+8tujp+f2iaAvO1/YnIclqze7iiZ3Zi31d8M1SWAvH2+Md8MGD1Xtu+O0FtSPY1fk5uIxP56rQfZjogYq2kBBAcdDvaXrQbq0vLYWpqWme82omvGU1HpKdl/6Jh+Hr3JwUSVwvEzV8iR6CT9XXbxVgBBmEMEYeyjUfb4mSuV0I93254AcxTmKszH6FOGbW+dB0zV4udnb7ew/A4rg8BspQQm+pxhe6nd8UABZG1OBRDyyjJzCh0X5zALpr96v6180KSvdOw3Wc+n8Engm2AuhkXFJOv/jR5qM+avlW8GT5c6zfs7Hg/GKIACFwogP8apA2ZW3Lr0myQLVoToia4yQ1PLjdvDZMWG3TJ7yUYZO22pBI2Y6TgC4mpmrzmqhzXqMFQmznIW0jboMq9Xb+iqLo06DteTIyZJq++saK4rj1m5JXJaiQJscbuqXiAoHXvx0jVdKSszp1gfHyv33q4gefuCwjYlbFcKPXhM90KwOraVGWFZp3k/GT1tmazauEdHWVzvK35XgRIrWImHE2lAtAvbb6bMWa2jFlbfYWVwTPuPnqcdE2yhgcOAFV08pzDkdZ1RL0kUaMA+8GXrQ6W7EqIfNOop/6vO1+qYlZm3uVy+wmm/JG/LHOt+OcqJ37n/qDRoP8z2c27M2+pvBvP9Tvv1eBJA3o5fCBhEcYaOXyB7DkbraDaqD7obv97mJhqraQFkzHW+3hMeI8cSMyVD/aYi5biXnCjXjaKRE3EoOlnWbNkvI5TIdfo7TYSwSednjYyd9kfzVgAZc52vMFdhfkC54nw1PxWVnlHz1Cn9u/H7d+2P1mWRneb8GAf6w8a9dYVCu+XoDRRA1uZUAJlxf+hokt66+MdPO2p/wOrYlZmpJthX+SSYg+EHwXBvx6rnCA2k0RTabv8rd0YBFLhQAPkxTgWQWXFDHsFHTfrqSa4yq6smNiQLf9Ksv3zQuI/efoOQtdMIiKuZveZteo7VSdkQP06SGg2IFEEkJKbmSMe+k+QX77SUf3+jieV3VjTXlccRk5bI+q37tTOL1aMj0Ymy9+BRWaHODZVnWvcYKx836eP1CpK3LyhsA8G2lsMxqdKg4wjLY1uZedEjyfRvyjHH9sA66j663tfeI+ZIeFSichav6G0lhjt370t2XrEsXbdTPm7Wz/I7rAz779/8oqtOoh4yfqFyFrbJ3rDoFytziEat3bJHJs5eqZNgcWyIYNwL3BOrY1Zm3uZy+Qqn/ZIQ5fCm0eUPPzzbxhWXnCUd+k60/Zwb87b6mwGl6PF3u8NipF7boZbfYWWeBJC34xfRG4gg5BsibxAFIrbsOOh2/Hqbm2jsVQkg1/ka1x4FILoMmKYbuaIZ8+Cx86VTv8nSpMtI+bRFf11K2+nvNBHCwUpQYi522h+tqgLIdb7C3IT5rmPQFBk5OVgmK4cW2z9RCrlVz3FKhA/RiwlOc36M0GredaTs2HtER8CxHdguFEDW5lQAmXFfXHpaVqwPlc5e5jbiGcezjrkXvgl8INi76noYX+XX77XR/kZV2gdQAAUuFEB+jFMB9KoNExb6/HykxAQcl4UrQuR4dmGVHdjCktMydvpy+bhpb0dJ9OaF+KFyjnoMmqYjXJOUcz5+5nK9utyxz3jdVM9pboqrefuCMlt4UpQT2XXgdH3tqiI8Xc3di8us+GPlvHm3MdpBciJQzMp1mx6jlQO68MXK3KjJS6Rb/0mOczDcmU7qPxitI0tOkvp9BXIznPRLcuoouIL97hDr79e31+jRmLfV3wxmi1X40STdRNjqO6zMboTO2/Frcs8atB4ofYbO9Jvx6ysB5M5MBAw9v96u28Xr32eEx1tfdJWeg6fpRaDyc5ee/wr7VFUAuTMzj3zRIkg+bvRNlVfyf/luG3XdBsi4GSt0aXmnuXAUQNbm7bx269ZdSUnLkeDV23WjXmxN9GaB0alhrEBs261CRwEUuFAA+TG1TQCZPj/YjoJqb0hiNduvKnOQPHH+4hXZvidC+jkso2wcALxo//xZZ71SjpfJO8rBfOuLbvLHTzpqR9NpboqrefuCMknc2Kc+e8lGaaLzj7zfeuhq7l5cJuKQllkgQycucrxFzaxcw0l4+8vuL1bm0P0bQsFpDoY7w/lv2xOpczxwvjWN035JVRVAp8svyMr1u5RjP0E/m1bfYWXeVn8zGCEel5wtjTuPsvwOK7MbofN2/JrcM5QGf6OO/4zf6hZAGDsYQ1jdRu8vb3+fWQBq2mm4bAg5qOdjRJydUl0CyMwj+K0/V+dZ1ZV83MeJc1ZL5LEUuXj5muNcOAoga/N2XsN7H+//tIx8XQiltZdbzJ0ahE/dlv1tL8RRAAUuFEB+jL8LILPS8sbnXXTn57a9J+ompygljYnWV7kbuuN5bpGs2BAqDTsMcxyxsGtGMGGVGsUB3qzbTf7rLc/Jt1V9QV26cl0nN4+cvFjd52/0OeBcrL7LiXl6cWE1eN3WfdJj0FS9Suyr73U13CvcMxRvgMCzuzJXVUFRVZw6RFU9X0S6DkbEqudgiRaTVt9R0cx19bb6mytOHTO7ETpElzKyC3SUqkH7odU+fv/3by10IRS7uQc1JYBMdbLqXgl3zcHEdjrk23j7fDh9Lmrqd5r7jQgZxkuPITPlwOE4rxdMKICsrarzGvyYmIQ0JYI26UiQtzlB7sw8BxA7KPTRpNMI3QAXu1AwD1j9TUWjAApcKID8GH8XQGalBcmIi1Ztl4NHEiQnv1Q79Jgo7VZ784TZohOfkimDx8/3Oqnek+mXqTrup1/3lSHjFkr/0fPlTRtV0qr6gsKqLCo8bdx+UL7uMkK90J3lgLgzTy8ubJdCqfDVm/boxGpffa+rweFFDgIqFKJMu92VuUATQE7LRpvr6m31N1ecOmb4vXYidDopWo2Lo3FpMnDsvGofvx82/EZ6DJxqO/egpgSQqU5W3SvhiKRUzMFMTs/V19/b58Ppc1FTv9Pc7zrNg2T01KUSeuCocmDPqvvjrH+UgQLI2qo6rz357ju5pnyZ1Ix8XenS25wgd2aeA7xX0ENozea9smrDLtsLSRRAgQsFkB/jLwLIrCjCacXqDSpiIfG+be8JMmHmCl2OEiu8qM2PhOrq4uz5y7JJiYSgkbPkEyVS7EYSPJlZSf9r3a56G9rwCYtk265DsmztTvU9nosEIDF5xOTFciAiRm9DcooReEnpOTJ2xnKp13qg/O7Ddnpir0pExtOLy3xv8vFcXVmnUfsh8oeP21f5e41h9fcPn3SUL9sMUmJyjkyctVzGTQu2vTKHZOnN6j6cKT/vKJnZV9S0AEJyetnJctmw7aD+7VbfUdGqWv3NFW8EkJ3fa7bYwbnYELK/2sfvwNFzZema7TJ1/lpb8ybms3Fq3B0+mqAr/3nCW0cSydtT1FxeXSvhJvLyabN+0m3AFJ/lYDp9LrBVEVW6ZixYp0TQOP2/f/Eu2ij4Zl4xOw/+puZdbO9D7ycUYHFa3c4VCiBrq+q8ZjA5QSiMgEIfHzUN0jstvM19Nc87qv417zZKxilfJDImRfsi2IVi12+iAApcKID8GH8RQGZF8cuW/XXJViSZrt16QI4cS5XsvFItTG6jkd+3T3TUp7rAyw0T1P5Dsbr6k6+S7c1KevdBU2Tlpj26OWFmTpGE7D4idW28KNBMtKu6LujngcR5pxgH8cLFq3r/+vQF67UIqmpExtOLy3wvnD6sEqNvA3o2+SoShByNTkGTZP7SzXIkOlnikjJ0VTW7K3O6qpoSAxAFEAc1TU0LINwLjKPwqCSp395zMYKqVn9zpboEkMl1Q++oslNnq338HjmWLPHJGbJ68z75tLnn/kNwwoaMmy97DkTpHjSe8NaRRKn7Peq3V9dKuIm84H1x8HCcz3IwnT4XaES9XDm5h48mKjF/QJe+rtOin8/mFbPzAA26127ZJwmp2fod5LS6nSsUQNbmKwFkcoKKSk+rOS5RgtfulCHjF3id+2qedyzebd8bKelZBTr3CyXzo2KSKICIRyiA/BizJWbxqm16XyscSkzMGLAwFB34uXqpOE0eNXtmf/YWEozbvDgeViTf+rK7vKsmjQ+b9JFPmvXTk1+zbqOl7/BZMmXOKl0V63B0opScOFPj5YmNww6REbovUsZNXybN1bm916iXTq62u5JkqtW9WaerniCbdB6hJ+K1W/bq5p2614gy5FX0GDpLv4Aqs6/aDZEB6mW8McS7KksGU50tKiZFNyxsoSblj7/uK2983lkngtu9z2aFtGXPsbI3POalMtiumEhQakaeTJu/Vlqrv/useX99TX/1vucyo+Z5+p+3W+hiASZC2HXgNL3al5iSpfNEYIkpmRK8Zoe0+mac5bWsaB2CJqsX25FXJoDwIl27eY8ug/1V28GW51jR0Hk+LDKhysUIMnNLZOjkpTrHBuPPnXUfPEO27AyX/MJSuXvPefU3V7ILTkjfUfMtf5uVYRX3wOF4j8+Xwd34xbHw3EDI2MkN8jR+8ZxhHEVEJ0m3wdNfOm9Xw99PnLXCdgTXW0fSlA13XQmHYICY/cMnuAYtPEZK3EXkO/VH1GerHI1NkQsXr/gsB9NbYVxYfEJyC0ok7EicLozjdD4z88p/v9VcfqscZMxHaNfQovsY9ewsl22hh3SPKF+9h/QOAyXYBqq5HE2frZ6VitZKzZOocIZ3NN7VdnE6zrz9HlceqzkJAv9gZLx0HTTN8ruszOk494TpE5STVyx7D0bJ7MUb1HdMlfrth+nxhGcZTaVdz+M99d8+Uf+GRcmv1GfRrH3RyhDd7wkFZEyOG0QiyuVDGCHqavVsVTT4VG16jlbXeJugoTgJHCiA/BjTSX2/cmLhLHQOmiBte47RqxWwJh2GyqdN++joDF4mVoPbyvBSwZ7Zt+p2lvptB744HqI7IyYtlukL1+ntE6s37VUv+Ug5dDRZOccFUlRyWk80iBjcv//QZy9Yu5iVZHQLP3/xqq5ihkanMxdt0J3j7a4kmWp1A0bPUX+7XraqF2lyeo5yzC7ogguYoGEn1GSI7UhYfavM5gZv0lt7YhPSddTOW0x1NqxiYTULe9rxckBD1/qtB9q+z2aFFPvi45OzXqwCu8M4pjdu3tYORdiReL1CjXyNhu0Ge/xe8zy9V7+HtO89/kWE8Ghcum7miONCECDnqLj0lO5EDxFkdS0r2rJ1OyVGXdNXtQXOFCXAqjCKe1idY0Vbs2Wfun4ndKTj6dOnz49iH/N8Y798fEq27Dp4TLbtjdTOpJWFRSVKYclJdX1vqfv73fOjeM9ZJRo27Qiz/G1WtmrTHh0p9fR8GdyNXxyrQ59xtnODPI1fPGtYqS5Vzx76Mrmet6vNX7ZZd5u362BWVQC5roQv3xAqY9T83kGX9e7hMVKCsWgVkY+KTVPPwym9eIPFFFxrX+RgeiuATqn5E41IUQUQ99rpfGbmlb/XQz+3ETJIzUfzl29Vx4mW41mFck4JFswpvnoPXVfzVGzicTXn79fbFK2elYqGORJRrhJ1H/E+tIvTcebt97hinrus3GJZvXmv5XdZmdNx7gk8lxijd+7ckwtKkGEcJKXnSUR0iq5miXl0tnqnup4H/hv+bad6jtAYGA2CS0+Wy5VrN+TBo0cvctzgn0QokYey+XYaWD/bqTBBVm3cpf0bEjhQAPkxrislq9UAXbp6mw7VwuaolwmEERrItek1Qb9g7Vjz7mPVgJ8sA0fPk+nz1744HqI7Bw7FSFzScfWCyVeC56ROcK7pSI9dsCUO+74TUjJk597DupR0t8EzBP1J6rUb+mIFvW7rQXr7CXqc4N+6Dpous9S1w9/gb93tHTfV57D1oDIz16uqe9ANSOCFk4gVyYSkTNmiXpbT562xfZ879Z+qk0F37DmsI3V2qz8ZIYQVNOyj3rU/UjdjNN+L5oVoUmgiEGYl7uuuo6Wjep6GTVwsy5VocRchNM9ziRJBcDatrmVFS1KfgWCq7twyd9i9/8aOK9EKh6+qDpmJyJlIBraeWNklJZQhtnzlADr9vWmZedq59ba6mBm/ONYK9dwgj669eo78ffxWVQAZzHhABC8iKl5fg+FqDGFubqbGlFkRN+MNYw9jEFX/gtSYrKmIfFW3RnqazzzNK0PGLZAFyzdLqJqP0tUzV11l8c3ziGcBz4TVs1LRvJ2fnI4zX82D5j5gq3V6Zr7ld1lZVce5J8x7576ayy6rOc3d+8FcB0/znim7jy2Sdsruo6Eqovxbd4XpZ4sEDhRAfozrSglWJxCixT5VGFbXC4pPSlZeqaRmFuqXqx1LzsjXjeKy80vVhHLmxfFwfEwuiGLcun1X7t17oF5g3/rMwfI1mIzx0sLKHSY9XI/jOcW6OSP6k5gV9B37omT/4Xg5EpMmcSnZ+jP4LDr9X79x2+3eceOIQhBUZuZ6VXUPugEvBPw2VDNC9ASOA+6T3fucnl2km0+eU7/v3oOH+lg4pifMCv0T9ZJFLgq20ZSU/fN7sSVwd9ixFxEIsxIXm5ylI4S5hSd07xx3EULzPONFd1P9LqtrWdHw2/Giw9/gb2sau/ffGJ4BOCg416qsvBuHwEQy3BlW+XGOVf0+g/Pfe0c7onafL1fM+EXEAs9NXtEJSVPzkr+PX18JIDMeEMVADheuAcYQxhLGlFkRN+MtVI29o2oMpmYW6Kp/NRWRr6oA8jSfeZpXcgrKpOzkWT3H39TPnHdV3jxhnkc8C3gmrJ6Viubt/OR0nPlqHvznffhWj12r77Kyqo5zT5j3DqLm3377rdv3g7kOnuY9+EiLVm6Vlt1H6q39Vs9oRcP209HTgiU8Ms4nuZSk9kABRF47zAvGrKDDkb9x8061rWAFCmbFuroiEIQAfx+/vhJA7jAC2KyIm/H2qiKhVRVAnuC8QnwBxg2EMVpxIJpsd0stcotmLt4gCSmZWmSRwIECiLx2GAfCrKBjxQi9CKprBStQMCvW1RWBIAT4+/itbgHkuiJuxltVIwDeUt0CiPMK8QVmi19sYqa06z1R/tdmURUUIVm2PlRyC3xTTIbUHiiACCGEEJtUtwDyN6pbABHiCyB+sI10085D+hm0ejatrE6rgbI1NEJX/eTzGlhQABFCCCE2oQCq3CiAyKsA+TtogDpqSrDO67F6Nq0MBTfQe+3u3Xs68kgCBwogQgghxCYUQJUbBRCpCEQFKt8hvwbFdXxVLMjw5LvvdTGUxNRs3fy0Sadh8psPPbfDMP3EOg+YpstwM+cs8KAAIoQQQmxCAVS5UQCRity5e1+yc4slPjlDMnzYLsIA8YMefHOWbJJGuhegvYbopp8YSuqjFxFzzgIPCiBCCCHEJhRAlRsFEKkImh5v33NY5gVvkiWrtsvmnYckJjFDt/AoV+MIZfBv370nD5UoQkVAFDOwKnaC/4Z/Q5sGlH1HzzWUR4+MSZWZC9dLm55j5Pcfd7B8Jq3sr190kyHj58ueg1Fy8dLV599CAgkKIEIIIcQmFECVGwUQqQh60o2dvlwatB0sn7foL1+1HSId+kyUUVOWyoaQ/RIdmyLZecVypvyC7r+EYgZWfZ5Mlber125IadlpiTqWLPOXbpZvBk+XOs37y+8/6iD/8WYzy2fSyj5qGiTBa3bq70aUigQeFECEEEKITSiAKjcKIAJMOfvk9DzpFDRZfvFOK/n3N5rKv/+5ifzi7y3lw0a9pMegaTJlzmpZunaXbA09rBseR8WlS0Jqjn7uKlpCaq76t+Oy91CsrAs5IBNnrZRmnYfLm591kv/6q33hY3J/2vaeIAePxL+y/lrk1UMBRAghhNiEAqhyowAiwDQ0PhSdLE06j1LCp6n8nz82VtZIiyD06fnzZ53l3Qbf6F48eG7qtRsmDTuOkMbq83jmKhrGT8NOI9VnhspnLQbIO+rvfvthOy1+/u+fGls+i1Zmcn9mLFynm6a+qv5a5NVDAUQIIYTYhAKocqMAIuChuveny8/LltAI/UxYPSs1aWiK+j9KdH3WvJ+Mm7FMl8y+fOX687MlgQgFECGEEGITCqDKjQKIgFu370paRq7MX75VPmzS1/JZqUmD+Hm/YU8JGjlbDh6Jk3NqDGMsk8CFAogQQgixCQVQ5UYBRMClK9dkX3i0DJu4SN6u193yWakJQ97RL95tLR837St9R8yS9SH7pOzUWfb9IRRAhBBCiF0ogCo3CiACTp05L8Grt0mbnqPl9x+3t3xWasIgfuq27C9DJyyUfYdidOnse/cesO8PoQAihBBC7EIBVLlRABFwuvyCrFi/SzoHTZC/1evmuFiBt/Zv6jv+U30XGqL+vX5Pad5ttIybvkx27T2iz4mRH2KgACKEEEJsQgFUuVEAEXDtxi2JjkuVucEbpVW3UfIXh+WqvTV8B76raadhMn7mCgkJjZC0jHw5f/GKbrbKyA8xUAARQgghNnn87RPdOf5gZLx0HTRNl+O1Y31GzpWs/NLnR6k9ZBeckL6j5lv+JivrMmCaHDgcr67RFXWtmGQeqDxQYuPk6bMSeSxJ5i3dJH2Hz5Jm3UbL5y0HyvuN+8jb9XrIG593kd991F73CLIbITJltH/2VjP51Xtt5A+fdJA363aRdxt+o8tj4zvwXXODN8mR6CR9DjgXQlyhACKEEEJsgi00N2/dkazcYlm9ea9Mnrvalm3cHibl5y8/P0rt4eyFy7JpR5jlb7KyVZv2SGZOkb5GuFYkMHn6ww9aeFy5dlNKT56VtMwCiYhOls07D8m8ZVtk9NRg6TN8ps4RqtM8yHaEyDRSfatuZ6nfdqB06jtBBo6eK9Pnr5MNaowdOposqRkFUnqiXK5cvSEPHjySp09/eH5WhPwTCiBCCCHEJj8ox+7hw8dy4eJVSc/M19t87BhEARpD1jbu3L2nxF6R5W+ysrTMPL3d6IG6RnCCCQGmMSp6A6Uez5XwI3GydVeYBK8OkYmzVki/kXOkTa8JeqtoZda8+1jpFDRZiZ55SvSslVXrd+n8nriE43Li1Fm5deeufPc9hTfxDAUQIYQQYpOffvpJO/bIBbp1+45cu37Tlt1Wjtn3tdAxM46r1W+yMlwTXBtcI1wrQgCeBTz/yMNBdBBNSM+evywnTp+TwpJTkpVXKqmZhTpPrjJLzsiX9KxCyc4vleLSM3LqzAUtuK/fuKWjPSxyQOxCAUQIIYQQQggJGCiACCGEEEIIIQEDBRAhhBBCCCEkYKAAIoQQQgghhAQMFECEEEIIIYSQgIECiBBCCCGEEBIwUAARQgghhBBCAgYKIEIIIYQQQkjAQAFECCGEEEIICRgogAghhBBCCCEBAwUQIYQQQgghJGCgACKEEEIIIYQEDBRAhBBCCCGEkICBAogQQgghhBASMFAAEUIIIYQQQgIGCiBCCCGEEEJIwEABRAghhBBCCAkYKIAIIYQQQgghAQMFECGEEEIIISRgoAAihBBCCCGEBAwUQIQQQgghhJCAgQKIEEIIIYQQEjBQABFCCCGEEEICBgogQgghhBBCSMBAAUQIIYQQQggJGCiACCGEEEIIIQEDBRAhhBBCCCEkYKAAIoQQQgghhAQMFECEEEIIIYSQgIECiBBCCCGEEBIwUAARQgghhBBCAgYKIEIIIYQQQkjAQAFECCGEEEIICRgogAghhBBCCCEBAwUQIYQQQgghJGCgACKEEEIIIYQEDBRAhBBCCCGEkICBAogQQgghhBASMFAAEUIIIYQQQgIGCiBCCCGEEEJIwEABRAghhBBCCAkYKIAIIYQQQgghAQMFECGEEEIIISRgoAAihBBCCCGEBAwUQIQQQgghhJCAgQKIEEIIIYQQEjBQABFCCCGEEEICBgogQgghhBBCSMBAAUQIIYQQQggJEET+fx3LJdf3Y/uMAAAAAElFTkSuQmCC;" vertex="1" parent="1">
          <mxGeometry x="-100" y="640" width="109.44" height="70.64" as="geometry" />
        </mxCell>
        <mxCell id="aM5ncvH869bX6Gn5c9m2-48" style="edgeStyle=orthogonalEdgeStyle;rounded=0;orthogonalLoop=1;jettySize=auto;html=1;" edge="1" parent="1" source="aM5ncvH869bX6Gn5c9m2-43" target="aM5ncvH869bX6Gn5c9m2-47">
          <mxGeometry relative="1" as="geometry" />
        </mxCell>
        <mxCell id="aM5ncvH869bX6Gn5c9m2-60" style="edgeStyle=orthogonalEdgeStyle;rounded=0;orthogonalLoop=1;jettySize=auto;html=1;" edge="1" parent="1" source="aM5ncvH869bX6Gn5c9m2-47" target="aM5ncvH869bX6Gn5c9m2-61">
          <mxGeometry relative="1" as="geometry">
            <mxPoint x="400" y="590" as="targetPoint" />
          </mxGeometry>
        </mxCell>
        <mxCell id="aM5ncvH869bX6Gn5c9m2-47" value="LLM Model" style="rounded=1;whiteSpace=wrap;html=1;" vertex="1" parent="1">
          <mxGeometry x="220" y="560" width="120" height="60" as="geometry" />
        </mxCell>
        <mxCell id="aM5ncvH869bX6Gn5c9m2-49" value="Sentiment Analysis" style="text;html=1;align=center;verticalAlign=middle;whiteSpace=wrap;rounded=0;" vertex="1" parent="1">
          <mxGeometry x="221.25" y="525" width="117.5" height="30" as="geometry" />
        </mxCell>
        <mxCell id="aM5ncvH869bX6Gn5c9m2-51" value="" style="shape=table;startSize=0;container=1;collapsible=0;childLayout=tableLayout;" vertex="1" parent="1">
          <mxGeometry x="110" y="628.65" width="120" height="61.35" as="geometry" />
        </mxCell>
        <mxCell id="aM5ncvH869bX6Gn5c9m2-52" value="" style="shape=tableRow;horizontal=0;startSize=0;swimlaneHead=0;swimlaneBody=0;strokeColor=inherit;top=0;left=0;bottom=0;right=0;collapsible=0;dropTarget=0;fillColor=none;points=[[0,0.5],[1,0.5]];portConstraint=eastwest;" vertex="1" parent="aM5ncvH869bX6Gn5c9m2-51">
          <mxGeometry width="120" height="21" as="geometry" />
        </mxCell>
        <mxCell id="aM5ncvH869bX6Gn5c9m2-53" value="Comapny Name" style="shape=partialRectangle;html=1;whiteSpace=wrap;connectable=0;strokeColor=inherit;overflow=hidden;fillColor=none;top=0;left=0;bottom=0;right=0;pointerEvents=1;" vertex="1" parent="aM5ncvH869bX6Gn5c9m2-52">
          <mxGeometry width="120" height="21" as="geometry">
            <mxRectangle width="120" height="21" as="alternateBounds" />
          </mxGeometry>
        </mxCell>
        <mxCell id="aM5ncvH869bX6Gn5c9m2-54" value="" style="shape=tableRow;horizontal=0;startSize=0;swimlaneHead=0;swimlaneBody=0;strokeColor=inherit;top=0;left=0;bottom=0;right=0;collapsible=0;dropTarget=0;fillColor=none;points=[[0,0.5],[1,0.5]];portConstraint=eastwest;" vertex="1" parent="aM5ncvH869bX6Gn5c9m2-51">
          <mxGeometry y="21" width="120" height="20" as="geometry" />
        </mxCell>
        <mxCell id="aM5ncvH869bX6Gn5c9m2-55" value="Article mapping" style="shape=partialRectangle;html=1;whiteSpace=wrap;connectable=0;strokeColor=inherit;overflow=hidden;fillColor=none;top=0;left=0;bottom=0;right=0;pointerEvents=1;" vertex="1" parent="aM5ncvH869bX6Gn5c9m2-54">
          <mxGeometry width="120" height="20" as="geometry">
            <mxRectangle width="120" height="20" as="alternateBounds" />
          </mxGeometry>
        </mxCell>
        <mxCell id="aM5ncvH869bX6Gn5c9m2-56" value="" style="shape=tableRow;horizontal=0;startSize=0;swimlaneHead=0;swimlaneBody=0;strokeColor=inherit;top=0;left=0;bottom=0;right=0;collapsible=0;dropTarget=0;fillColor=none;points=[[0,0.5],[1,0.5]];portConstraint=eastwest;" vertex="1" parent="aM5ncvH869bX6Gn5c9m2-51">
          <mxGeometry y="41" width="120" height="20" as="geometry" />
        </mxCell>
        <mxCell id="aM5ncvH869bX6Gn5c9m2-57" value="Company type" style="shape=partialRectangle;html=1;whiteSpace=wrap;connectable=0;strokeColor=inherit;overflow=hidden;fillColor=none;top=0;left=0;bottom=0;right=0;pointerEvents=1;" vertex="1" parent="aM5ncvH869bX6Gn5c9m2-56">
          <mxGeometry width="120" height="20" as="geometry">
            <mxRectangle width="120" height="20" as="alternateBounds" />
          </mxGeometry>
        </mxCell>
        <mxCell id="aM5ncvH869bX6Gn5c9m2-58" style="edgeStyle=orthogonalEdgeStyle;rounded=0;orthogonalLoop=1;jettySize=auto;html=1;entryX=0.364;entryY=0.091;entryDx=0;entryDy=0;entryPerimeter=0;" edge="1" parent="1" source="aM5ncvH869bX6Gn5c9m2-12" target="aM5ncvH869bX6Gn5c9m2-45">
          <mxGeometry relative="1" as="geometry" />
        </mxCell>
        <mxCell id="aM5ncvH869bX6Gn5c9m2-59" value="" style="group" vertex="1" connectable="0" parent="1">
          <mxGeometry x="-30" y="560" width="160" height="130" as="geometry" />
        </mxCell>
        <mxCell id="aM5ncvH869bX6Gn5c9m2-43" value="Map Data" style="rounded=1;whiteSpace=wrap;html=1;" vertex="1" parent="aM5ncvH869bX6Gn5c9m2-59">
          <mxGeometry x="40" width="120" height="60" as="geometry" />
        </mxCell>
        <mxCell id="aM5ncvH869bX6Gn5c9m2-45" value="" style="shape=image;verticalLabelPosition=bottom;labelBackgroundColor=default;verticalAlign=top;aspect=fixed;imageAspect=0;image=https://www.svgrepo.com/show/376344/python.svg;" vertex="1" parent="aM5ncvH869bX6Gn5c9m2-59">
          <mxGeometry y="20" width="110" height="110" as="geometry" />
        </mxCell>
        <mxCell id="aM5ncvH869bX6Gn5c9m2-63" value="" style="group" vertex="1" connectable="0" parent="1">
          <mxGeometry x="390" y="560" width="150" height="90" as="geometry" />
        </mxCell>
        <mxCell id="aM5ncvH869bX6Gn5c9m2-61" value="Search capability" style="rounded=1;whiteSpace=wrap;html=1;" vertex="1" parent="aM5ncvH869bX6Gn5c9m2-63">
          <mxGeometry width="120" height="60" as="geometry" />
        </mxCell>
        <mxCell id="aM5ncvH869bX6Gn5c9m2-62" value="" style="html=1;verticalLabelPosition=bottom;align=center;labelBackgroundColor=#ffffff;verticalAlign=top;strokeWidth=2;strokeColor=#0080F0;shadow=0;dashed=0;shape=mxgraph.ios7.icons.looking_glass;" vertex="1" parent="aM5ncvH869bX6Gn5c9m2-63">
          <mxGeometry x="100" y="40" width="50" height="50" as="geometry" />
        </mxCell>
      </root>
    </mxGraphModel>
  </diagram>
</mxfile>
